<svg width="449" height="363" viewBox="0 0 449 363" fill="none" xmlns="http://www.w3.org/2000/svg">
<rect y="361.149" width="1.746" height="1.66429" fill="white"/>
<rect x="55.875" y="361.149" width="1.746" height="1.66429" fill="white"/>
<rect x="111.75" y="361.149" width="1.746" height="1.66429" fill="white"/>
<rect x="167.617" y="361.149" width="1.746" height="1.66429" fill="white"/>
<rect x="223.492" y="361.149" width="1.746" height="1.66429" fill="white"/>
<rect x="279.359" y="361.149" width="1.746" height="1.66429" fill="white"/>
<rect x="335.234" y="361.149" width="1.746" height="1.66429" fill="white"/>
<rect x="391.102" y="361.149" width="1.746" height="1.66429" fill="white"/>
<rect x="446.977" y="361.149" width="1.746" height="1.66429" fill="white"/>
<rect y="309.558" width="1.746" height="1.66429" fill="white"/>
<rect x="55.875" y="309.558" width="1.746" height="1.66429" fill="white"/>
<rect x="111.75" y="309.558" width="1.746" height="1.66429" fill="white"/>
<rect x="167.617" y="309.558" width="1.746" height="1.66429" fill="white"/>
<rect x="223.492" y="309.558" width="1.746" height="1.66429" fill="white"/>
<rect x="279.359" y="309.558" width="1.746" height="1.66429" fill="white"/>
<rect x="335.234" y="309.558" width="1.746" height="1.66429" fill="white"/>
<rect x="391.102" y="309.558" width="1.746" height="1.66429" fill="white"/>
<rect x="446.977" y="309.558" width="1.746" height="1.66429" fill="white"/>
<rect y="257.965" width="1.746" height="1.66429" fill="white"/>
<rect x="55.875" y="257.965" width="1.746" height="1.66429" fill="white"/>
<rect x="111.75" y="257.965" width="1.746" height="1.66429" fill="white"/>
<rect x="167.617" y="257.965" width="1.746" height="1.66429" fill="white"/>
<rect x="223.492" y="257.965" width="1.746" height="1.66429" fill="white"/>
<rect x="279.359" y="257.965" width="1.746" height="1.66429" fill="white"/>
<rect x="335.234" y="257.965" width="1.746" height="1.66429" fill="white"/>
<rect x="391.102" y="257.965" width="1.746" height="1.66429" fill="white"/>
<rect x="446.977" y="257.965" width="1.746" height="1.66429" fill="white"/>
<rect y="206.372" width="1.746" height="1.66429" fill="white"/>
<rect x="55.875" y="206.372" width="1.746" height="1.66429" fill="white"/>
<rect x="111.75" y="206.372" width="1.746" height="1.66429" fill="white"/>
<rect x="167.617" y="206.372" width="1.746" height="1.66429" fill="white"/>
<rect x="223.492" y="206.372" width="1.746" height="1.66429" fill="white"/>
<rect x="279.359" y="206.372" width="1.746" height="1.66429" fill="white"/>
<rect x="335.234" y="206.372" width="1.746" height="1.66429" fill="white"/>
<rect x="391.102" y="206.372" width="1.746" height="1.66429" fill="white"/>
<rect x="446.977" y="206.372" width="1.746" height="1.66429" fill="white"/>
<rect y="154.779" width="1.746" height="1.66429" fill="white"/>
<rect x="55.875" y="154.779" width="1.746" height="1.66429" fill="white"/>
<rect x="111.75" y="154.779" width="1.746" height="1.66429" fill="white"/>
<rect x="167.617" y="154.779" width="1.746" height="1.66429" fill="white"/>
<rect x="223.492" y="154.779" width="1.746" height="1.66429" fill="white"/>
<rect x="279.359" y="154.779" width="1.746" height="1.66429" fill="white"/>
<rect x="335.234" y="154.779" width="1.746" height="1.66429" fill="white"/>
<rect x="391.102" y="154.779" width="1.746" height="1.66429" fill="white"/>
<rect x="446.977" y="154.779" width="1.746" height="1.66429" fill="white"/>
<rect y="103.186" width="1.746" height="1.66429" fill="white"/>
<rect x="55.875" y="103.186" width="1.746" height="1.66429" fill="white"/>
<rect x="111.75" y="103.186" width="1.746" height="1.66429" fill="white"/>
<rect x="167.617" y="103.186" width="1.746" height="1.66429" fill="white"/>
<rect x="223.492" y="103.186" width="1.746" height="1.66429" fill="white"/>
<rect x="279.359" y="103.186" width="1.746" height="1.66429" fill="white"/>
<rect x="335.234" y="103.186" width="1.746" height="1.66429" fill="white"/>
<rect x="391.102" y="103.186" width="1.746" height="1.66429" fill="white"/>
<rect x="446.977" y="103.186" width="1.746" height="1.66429" fill="white"/>
<rect y="51.5928" width="1.746" height="1.66429" fill="white"/>
<rect x="55.875" y="51.5928" width="1.746" height="1.66429" fill="white"/>
<rect x="111.75" y="51.5928" width="1.746" height="1.66429" fill="white"/>
<rect x="167.617" y="51.5928" width="1.746" height="1.66429" fill="white"/>
<rect x="223.492" y="51.5928" width="1.746" height="1.66429" fill="white"/>
<rect x="279.359" y="51.5928" width="1.746" height="1.66429" fill="white"/>
<rect x="335.234" y="51.5928" width="1.746" height="1.66429" fill="white"/>
<rect x="391.102" y="51.5928" width="1.746" height="1.66429" fill="white"/>
<rect x="446.977" y="51.5928" width="1.746" height="1.66429" fill="white"/>
<rect x="167.617" width="1.746" height="1.66429" fill="white"/>
<rect x="223.492" width="1.746" height="1.66429" fill="white"/>
<rect x="279.359" width="1.746" height="1.66429" fill="white"/>
<rect x="335.227" width="1.746" height="1.66429" fill="white"/>
<rect x="391.094" width="1.746" height="1.66429" fill="white"/>
<rect x="446.969" width="1.746" height="1.66429" fill="white"/>
</svg>
