<svg xmlns="http://www.w3.org/2000/svg" width="1736" height="295" viewBox="0 0 1736 295"  fill="none"><path fill="#333" d="M209.135 85.129c13.991 0 23.399-9.167 23.399-21.71 0-11.579-9.408-20.263-23.399-20.263s-23.399 9.167-23.399 20.987 9.408 20.987 23.399 20.987zM190.319 233h37.632V103.22h-37.632V233zm170.736-129.78v16.645c-9.891-12.544-24.847-18.574-42.939-18.574-35.942 0-64.889 24.846-64.889 62.718s28.947 62.719 64.889 62.719c16.886 0 31.118-5.307 41.009-16.162v5.548c0 23.399-11.579 35.46-38.114 35.46-16.645 0-34.736-5.789-45.833-14.714l-14.956 27.017c15.197 11.82 39.079 17.851 63.684 17.851 46.798 0 72.85-22.193 72.85-70.438V103.22h-35.701zm-35.461 92.631c-19.78 0-34.254-12.785-34.254-31.842s14.474-31.841 34.254-31.841 34.013 12.785 34.013 31.841-14.232 31.842-34.013 31.842zM450.596 85.129c13.992 0 23.399-9.167 23.399-21.71 0-11.579-9.407-20.263-23.399-20.263s-23.398 9.167-23.398 20.987 9.407 20.987 23.398 20.987zM431.781 233h37.631V103.22h-37.631V233zm146.13-32.807c-4.101 3.136-9.649 4.825-15.197 4.825-10.132 0-16.162-6.031-16.162-17.127v-52.829h32.324v-28.947h-32.324v-31.6H508.92v31.6h-20.021v28.947h20.021v53.311c0 30.877 17.851 46.557 48.487 46.557 11.579 0 22.916-2.654 30.635-8.202l-10.131-26.535zm83.602-98.902c-20.746 0-41.732 5.548-55.965 15.679l13.509 26.294c9.408-7.478 23.64-12.061 37.39-12.061 20.263 0 29.912 9.408 29.912 25.57h-29.912c-39.561 0-55.723 15.921-55.723 38.837 0 22.434 18.092 39.32 48.486 39.32 19.057 0 32.566-6.272 39.561-18.092V233h35.219v-74.056c0-39.32-22.916-57.653-62.477-57.653zm-2.895 108.31c-13.268 0-21.228-6.272-21.228-15.68 0-8.684 5.548-15.197 23.158-15.197h25.811v13.268c-4.342 11.82-15.197 17.609-27.741 17.609zM758.048 233h37.631V54.01h-37.631V233zm257.622-37.631c-9.89 5.307-19.777 7.237-30.391 7.237-32.324 0-54.758-22.434-54.758-54.035 0-32.083 22.434-54.035 55.241-54.035 17.128 0 31.358 6.031 43.658 19.057l25.09-23.157c-16.4-19.057-41.01-29.188-70.678-29.188-53.794 0-92.872 36.425-92.872 87.324s39.078 87.324 92.148 87.324c24.122 0 49.692-7.478 68.262-21.469v-68.509h-35.7v49.452zm105.29-75.021V103.22h-35.94V233h37.63v-61.271c0-24.847 13.75-36.184 34.5-36.184 2.89 0 5.31.241 8.44.482v-34.736c-20.02 0-35.46 6.513-44.63 19.057zm192.96 48.245c0-41.732-29.43-67.302-67.55-67.302-39.56 0-69.23 27.982-69.23 66.819 0 38.596 29.19 66.82 74.06 66.82 23.4 0 41.49-7.237 53.55-20.987l-20.02-21.71c-8.93 8.443-18.82 12.544-32.57 12.544-19.78 0-33.53-9.891-37.15-26.053h98.18c.24-3.136.73-7.237.73-10.131zm-67.31-38.838c16.89 0 29.19 10.614 31.85 27.018h-63.93c2.65-16.645 14.96-27.018 32.08-27.018zm190.54-26.535v16.645c-9.89-12.544-24.85-18.574-42.94-18.574-35.94 0-64.89 24.846-64.89 62.718s28.95 62.719 64.89 62.719c16.89 0 31.12-5.307 41.01-16.162v5.548c0 23.399-11.58 35.46-38.12 35.46-16.64 0-34.73-5.789-45.83-14.714l-14.95 27.017c15.19 11.82 39.07 17.851 63.68 17.851 46.8 0 72.85-22.193 72.85-70.438V103.22h-35.7zm-35.46 92.631c-19.78 0-34.26-12.785-34.26-31.842s14.48-31.841 34.26-31.841 34.01 12.785 34.01 31.841-14.23 31.842-34.01 31.842zm204.36-92.631v16.645c-9.89-12.544-24.84-18.574-42.94-18.574-35.94 0-64.88 24.846-64.88 62.718s28.94 62.719 64.88 62.719c16.89 0 31.12-5.307 41.01-16.162v5.548c0 23.399-11.58 35.46-38.11 35.46-16.65 0-34.74-5.789-45.83-14.714l-14.96 27.017c15.2 11.82 39.08 17.851 63.68 17.851 46.8 0 72.85-22.193 72.85-70.438V103.22h-35.7zm-35.46 92.631c-19.78 0-34.25-12.785-34.25-31.842s14.47-31.841 34.25-31.841 34.02 12.785 34.02 31.841-14.24 31.842-34.02 31.842z"/><path fill="#db2429" d="M1676.9 197.9h35.69V233h-35.69v-35.1z"/><path fill="#333" d="M0 232.937h76.585c55.151 0 92.962-33.305 92.962-84.468S131.736 64 76.585 64h-40.4v35.195H0v133.742zM74.177 99.195c33.475 0 55.873 16.934 55.873 49.274s-21.916 52.37-55.392 52.37l-38.473.413V99.195h37.991z"/></svg>