<svg width="843" height="843" viewBox="0 0 843 843" fill="none" xmlns="http://www.w3.org/2000/svg">
<g clip-path="url(#clip0_740_227)">
<path d="M843 0H0V843H843V0Z" fill="#333333"/>
<path fillRule="evenodd" clipRule="evenodd" d="M397.721 655.781H187.383L187.333 284.895H284.895L285.542 567.799L392.372 566.653C485.326 566.653 546.18 511.032 546.18 421.233C546.18 331.434 483.988 284.414 391.034 284.414L284.895 284.895V187.333H341.048H397.77C550.909 187.333 653.584 279.524 653.584 421.593C653.584 472.791 640.242 517.503 616.009 553.754H551.593L551.485 615.814C510.09 641.611 457.783 655.781 397.721 655.781Z" fill="white"/>
<path d="M653.584 655.712V566.47H564.343V655.712H653.584Z" fill="#C10206"/>
</g>
<defs>
<clipPath id="clip0_740_227">
<rect width="843" height="843" fill="white"/>
</clipPath>
</defs>
</svg>
