<svg width="65" height="64" viewBox="0 0 65 64" fill="none" xmlns="http://www.w3.org/2000/svg">
<path d="M60 0H65V5H60V0Z" fill="white"/>
<path d="M58 10H64V15H58V10Z" fill="white"/>
<path d="M45 1H53V8H45V1Z" fill="white"/>
<path d="M36 11H54V27H36V11Z" fill="white"/>
<path d="M27.6562 35.6143V44.4987H43.5795C42.7091 47.4054 40.8078 49.9207 38.2111 51.6008C35.5757 53.3256 32.2577 54.1867 28.2571 54.1842C22.8492 54.1842 18.5007 52.6191 15.2117 49.489C11.9227 46.3589 10.2821 42.3893 10.29 37.5805C10.29 32.7256 11.9056 28.7088 15.1366 25.5301C18.3676 22.3515 22.4855 20.7609 27.4902 20.7583C28.8805 20.7561 30.2669 20.9001 31.6252 21.1876V11.2645C30.2795 11.0882 28.9232 10.9999 27.5653 11C19.7539 11 13.2075 13.5731 7.92606 18.7193C2.64465 23.8654 0.00263543 30.1525 0 37.5805C0 44.9624 2.66705 51.2137 8.00117 56.3344C13.3353 61.455 20.0556 64.0102 28.1622 64C35.776 64 41.9851 61.7424 46.7895 57.2274C51.5938 52.7124 53.9974 46.8137 54 39.5314V35.6143H27.6562Z" fill="white"/>
</svg>
