<svg width="103" height="23" viewBox="0 0 103 23" fill="none" xmlns="http://www.w3.org/2000/svg">
<path d="M100.728 0L95.1013 12.0365L92.9855 7.47583H90.6973L94.1766 14.936H96.0259L103 0H100.728Z" fill="#595959"/>
<path d="M76.5919 22.3488H81.1213V14.058C81.1213 12.1617 82.2184 10.8295 83.8484 10.8295C85.4156 10.8295 86.2306 11.9266 86.2306 13.5095V22.3488H90.76V12.6475C90.76 9.35627 88.7852 7.03673 85.588 7.03673C83.5506 7.03673 82.1244 7.91439 81.0586 9.513H80.9646V7.47556H76.5763L76.5919 22.3488ZM67.6899 7.06807C62.9568 7.06807 59.7909 10.469 59.7909 14.9514C59.7909 19.4024 62.9568 22.8347 67.6899 22.8347C72.423 22.8347 75.5889 19.4024 75.5889 14.9514C75.6046 10.469 72.423 7.06807 67.6899 7.06807ZM67.6586 19.4808C65.5114 19.4808 64.3673 17.6784 64.3673 14.9514C64.3673 12.193 65.4958 10.422 67.6586 10.422C69.8057 10.422 70.9968 12.193 70.9968 14.9514C71.0125 17.6784 69.8214 19.4808 67.6586 19.4808ZM46.8767 22.3488H59.6029V18.7755H52.3935V18.6815L59.2894 10.9549V7.45989H46.8767V11.0489H53.851V11.1429L46.8767 18.9322V22.3488ZM41.0622 22.3488H45.6229V7.47556H41.0622V22.3488ZM30.4832 22.3488H35.0282V15.5156C35.0282 12.4124 36.8933 11.0332 39.73 11.4251H39.8241V7.5069C39.589 7.41287 39.3225 7.3972 38.8994 7.3972C37.1284 7.3972 35.9372 8.21217 34.9185 9.95183H34.8245V7.47556H30.4832V22.3488ZM22.1454 19.4964C20.1393 19.4964 18.9168 18.1956 18.6817 16.1895H29.4018C29.4331 12.9923 28.5868 10.4377 26.8158 8.83907C25.562 7.6793 23.9164 7.03673 21.8162 7.03673C17.3339 7.03673 14.2307 10.4377 14.2307 14.8887C14.2307 19.3711 17.1928 22.7877 22.114 22.7877C23.9791 22.7877 25.4523 22.2862 26.6747 21.4555C27.9756 20.5622 28.9159 19.2457 29.1667 17.9448H24.8097C24.3866 18.9165 23.4775 19.4964 22.1454 19.4964ZM21.9103 10.281C23.5089 10.281 24.606 11.4721 24.794 13.2117H18.7131C19.0735 11.4564 20.0296 10.281 21.9103 10.281ZM5.17195 22.3488H9.93642L15.1084 7.47556H10.5477L7.64822 17.0358H7.58553L4.6861 7.47556H0L5.17195 22.3488ZM41.0622 2.17822H45.6229V6.22175H41.0622V2.17822Z" fill="#595959"/>
</svg>
