<svg width="69" height="71" viewBox="0 0 69 71" fill="none" xmlns="http://www.w3.org/2000/svg">
<path d="M12.3899 70.3192L3.43901 62.2791V70.0365H0V54.9928L0.471097 54.9143L9.29631 62.8915V55.197H12.7353V70.2564L12.3899 70.3192Z" fill="#595959"/>
<path d="M24.8118 70.0365L23.6969 67.3512H18.5776L17.4627 70.0365H13.9766L20.9645 55.0713H21.4356L28.4235 70.0365H24.8118ZM21.1529 61.1484L19.6768 64.7131H22.6133L21.1529 61.1484Z" fill="#595959"/>
<path d="M40.4681 70.0365L39.3532 67.3512H34.2339L33.119 70.0365H29.6172L36.6051 55.0713H37.0762L44.0642 70.0365H40.4681ZM36.8093 61.1484L35.3332 64.7131H38.2697L36.8093 61.1484Z" fill="#595959"/>
<path d="M56.4216 68.9058C55.7778 69.3455 55.0241 69.6753 54.1918 69.9108C53.3438 70.1464 52.4958 70.272 51.6479 70.272C50.4387 70.272 49.3238 70.0835 48.3345 69.691C47.3452 69.3141 46.4815 68.7802 45.7749 68.0892C45.0525 67.414 44.5029 66.5974 44.1103 65.6552C43.7177 64.713 43.5293 63.708 43.5293 62.6088C43.5293 61.5096 43.7177 60.4732 44.1103 59.5467C44.5029 58.6045 45.0525 57.8036 45.7749 57.1127C46.4972 56.4374 47.3452 55.9035 48.3345 55.511C49.3238 55.1341 50.423 54.9299 51.6479 54.9299C52.5115 54.9299 53.3281 55.0556 54.1133 55.2911C54.8827 55.5267 55.6208 55.8407 56.296 56.2333L55.2439 59.1541C54.6943 58.84 54.1133 58.6045 53.5165 58.4318C52.9198 58.259 52.3074 58.1648 51.7107 58.1648C51.0197 58.1648 50.3916 58.259 49.842 58.4632C49.2767 58.6673 48.8056 58.9657 48.4287 59.3425C48.0518 59.7351 47.7535 60.1905 47.5336 60.7558C47.3295 61.3054 47.2196 61.9336 47.2196 62.6245C47.2196 63.3155 47.3295 63.9279 47.5336 64.4775C47.7378 65.0271 48.0361 65.4825 48.4287 65.8751C48.8213 66.2677 49.2924 66.5503 49.842 66.7702C50.4073 66.9743 51.0197 67.0842 51.7107 67.0842C52.3231 67.0842 52.9512 66.99 53.5951 66.8016C54.2389 66.6131 54.8513 66.3462 55.4166 65.985L56.4216 68.9058Z" fill="#595959"/>
<path d="M69.0007 60.3788C69.0007 61.1483 68.8751 61.8549 68.6238 62.4988C68.3726 63.1426 67.98 63.6922 67.4775 64.1633C66.975 64.6344 66.3469 64.9956 65.5931 65.2625C64.8393 65.5295 63.9757 65.6551 62.9864 65.6551C62.7508 65.6551 62.531 65.6551 62.3425 65.6394C62.1541 65.6394 61.9499 65.6237 61.7144 65.608V70.0363H58.2754V55.3381C59.7986 55.1811 61.1805 55.1025 62.4053 55.1025C63.4889 55.1025 64.4311 55.2439 65.2476 55.5108C66.0642 55.7778 66.7551 56.1547 67.3047 56.6258C67.8701 57.0969 68.2941 57.6622 68.5767 58.2903C68.8594 58.9341 69.0007 59.6251 69.0007 60.3788ZM65.4832 60.4416C65.4832 59.8292 65.279 59.3267 64.8707 58.9184C64.4625 58.5101 63.8343 58.306 62.9864 58.306C62.7508 58.306 62.5467 58.306 62.3739 58.3217C62.2012 58.3374 61.9814 58.3531 61.6987 58.3845V62.6087C61.9342 62.6244 62.1384 62.6401 62.2797 62.6401C62.421 62.6401 62.5781 62.6558 62.7351 62.6558C63.6459 62.6558 64.3368 62.4674 64.7922 62.0905C65.2633 61.7293 65.4832 61.164 65.4832 60.4416Z" fill="#595959"/>
<path d="M46.293 18.7339C46.5285 18.8124 46.7013 19.0322 46.7484 19.1108V28.0459H46.293V18.7339Z" fill="#595959"/>
<path d="M45.9941 18.7183V28.0617H45.6172V18.891C45.7428 18.7968 45.8684 18.734 45.9941 18.7183Z" fill="#595959"/>
<path d="M26.8203 28.0459H23.6953V19.0322C23.7895 19.0479 23.9309 19.0636 24.0879 19.0793L26.8203 28.0459Z" fill="#595959"/>
<path d="M32.9909 14.8867H36.0216C36.0844 14.8867 36.2414 14.9495 36.2414 15.1066C36.2414 15.2322 36.1472 15.3264 36.0216 15.3264H32.9909C32.8653 15.3578 32.7553 15.2008 32.771 15.1066C32.771 14.9495 32.9281 14.8867 32.9909 14.8867Z" fill="#595959"/>
<path d="M32.7559 14.3527C32.7716 14.1956 32.9286 14.1328 32.9757 14.1328H36.0064C36.0692 14.1328 36.2263 14.1956 36.2263 14.3527C36.2263 14.4783 36.1321 14.5725 36.0064 14.5725H32.9757C32.8658 14.6039 32.7559 14.4626 32.7559 14.3527Z" fill="#595959"/>
<path d="M32.9909 15.6404H36.0216C36.0844 15.6404 36.2414 15.7032 36.2414 15.8602C36.2414 15.9859 36.1472 16.0801 36.0216 16.0801H32.9909C32.8653 16.1115 32.7553 15.9544 32.771 15.8602C32.771 15.7032 32.9281 15.6404 32.9909 15.6404Z" fill="#595959"/>
<path d="M33.7617 17.3678C33.7617 17.1636 33.8402 16.9752 33.9816 16.8339C34.1229 16.6925 34.3113 16.614 34.5155 16.614C34.7196 16.614 34.9081 16.6925 35.0494 16.8339C35.1907 16.9752 35.2692 17.1636 35.2692 17.3678C35.2692 17.7761 34.9395 18.1215 34.5155 18.1215C34.3113 18.1215 34.1229 18.043 33.9816 17.9017C33.8402 17.7603 33.7617 17.5719 33.7617 17.3678Z" fill="#595959"/>
<path d="M44.9257 19.0795C45.0828 19.0638 45.2241 19.0481 45.3183 19.0481V28.0617H42.1934L44.9257 19.0795Z" fill="#595959"/>
<path d="M36.0997 12.4685C37.7799 11.6834 39.8214 13.0966 39.8371 13.1124C42.2868 14.6513 45.129 14.9967 45.8828 14.8868C46.0084 14.9182 46.134 14.9025 46.134 15.0124C46.134 15.0281 46.1498 15.1538 45.8514 15.2323C42.9463 15.7819 39.4602 13.9132 39.4445 13.8975C37.5444 12.814 36.508 13.0024 36.084 13.1752C36.1154 12.971 36.1311 12.7512 36.0997 12.4685Z" fill="#595959"/>
<path d="M34.3424 8.63677C34.3738 8.55825 34.4209 8.47974 34.468 8.47974C34.468 8.47974 34.5623 8.47974 34.6094 8.63677C36.0384 12.013 35.897 13.1122 35.6929 13.5676C35.583 13.8031 35.473 13.8188 35.473 13.8188H33.4787C33.4787 13.8188 33.3217 13.7874 33.2589 13.5676C32.882 12.1229 33.5887 10.4112 34.3424 8.63677Z" fill="#595959"/>
<path d="M23.1302 14.8709C23.884 14.9808 26.7106 14.6511 29.1603 13.1121C29.1917 13.0964 31.1703 11.7145 32.8348 12.4369C32.8034 12.7196 32.8191 12.9551 32.8348 13.1592C32.4265 12.9865 31.4215 12.8138 29.5372 13.8816C29.5057 13.8973 26.0353 15.766 23.1459 15.2164C22.9104 15.1536 22.8633 15.0122 22.8633 14.9965C22.8947 14.9494 22.9732 14.8709 23.1302 14.8709Z" fill="#595959"/>
<path d="M23.0195 18.7183C23.1452 18.734 23.2708 18.7968 23.3964 18.891V28.0617H23.0195V18.7183Z" fill="#595959"/>
<path d="M22.721 18.7339V28.0459H22.2656V19.1108C22.3127 19.0322 22.4855 18.8124 22.721 18.7339Z" fill="#595959"/>
<path d="M22.721 32.8199C22.564 32.8041 22.407 32.7727 22.2656 32.7099V31.3438C22.4227 31.3752 22.564 31.3909 22.721 31.4066V32.8199Z" fill="#595959"/>
<path d="M20.0838 29.8675C19.6441 29.4279 19.3928 28.9411 19.3457 28.4229H26.8361C26.6948 29.8361 25.0146 31.0453 23.0831 31.0453C21.9681 31.0453 20.8218 30.6056 20.0838 29.8675Z" fill="#595959"/>
<path d="M23.0195 31.4222C23.1452 31.4222 23.2708 31.4222 23.3964 31.4065V32.7727C23.2865 32.7884 23.1609 32.8198 23.0195 32.8198V31.4222Z" fill="#595959"/>
<path d="M23.0977 33.1181C23.2547 33.1024 23.553 33.0553 23.553 33.0553C25.2176 32.8982 28.3425 31.642 28.4682 31.5792C31.8758 30.4642 33.399 31.7676 33.8544 32.3329C34.0271 32.5842 33.9957 32.6941 33.9329 32.7255C33.9015 32.7098 33.823 32.7255 33.713 32.5842C33.3676 32.1602 31.9386 30.7783 28.5153 32.0032C28.4996 32.0189 25.1862 33.1809 23.0977 33.1181Z" fill="#595959"/>
<path d="M25.125 33.228C26.8524 32.9139 28.5326 32.3329 28.6425 32.2858C31.9873 31.1237 33.4634 32.7569 33.4948 32.7726C32.9138 32.5056 30.6996 31.7047 27.983 32.9139C27.9516 32.9296 27.2449 33.2122 25.125 33.228Z" fill="#595959"/>
<path d="M28.3281 33.1025C30.9192 32.0661 33.5259 33.181 33.5573 33.2281C33.5259 33.2124 30.1654 32.8198 28.3281 33.1025Z" fill="#595959"/>
<path d="M40.4502 35.8504C40.5287 35.8504 40.6072 35.8818 40.67 35.9446C40.7328 36.0075 40.7642 36.086 40.7642 36.1645V36.824C40.7642 36.9968 40.6229 37.1224 40.4659 37.1224H28.4215C28.343 37.1224 28.2645 37.091 28.2016 37.0282C28.1388 36.9654 28.1074 36.8868 28.1074 36.8083V36.1488C28.1074 36.0703 28.1388 35.9918 28.2016 35.9289C28.2645 35.8661 28.343 35.8347 28.4215 35.8347L40.4502 35.8504Z" fill="#595959"/>
<path d="M37.2954 35.5365H31.7207C32.4431 35.0968 33.0555 34.2959 33.2439 34.0447H35.7721C35.9606 34.2959 36.573 35.0968 37.2954 35.5365Z" fill="#595959"/>
<path d="M35.5508 33.2125C35.5822 33.1811 38.1889 32.0504 40.78 33.0868C38.9427 32.8199 35.5979 33.2125 35.5508 33.2125Z" fill="#595959"/>
<path d="M41.0627 32.9295C38.3303 31.7204 36.1162 32.537 35.5352 32.7882C35.6294 32.7254 36.8385 31.0452 40.3875 32.3014C40.4974 32.3328 42.1619 32.9295 43.905 33.2436C41.785 33.2122 41.0784 32.9295 41.0627 32.9295Z" fill="#595959"/>
<path d="M40.4981 32.0188C37.1376 30.8254 35.6929 32.1445 35.316 32.5841C35.1904 32.804 35.0962 32.7255 35.0648 32.7412C35.0648 32.6784 35.0334 32.5841 35.1119 32.4585C35.4731 31.9717 36.9492 30.4171 40.5923 31.6105C40.718 31.6577 43.7644 32.8982 45.4446 33.0709C45.5703 33.1023 45.7273 33.1338 45.9157 33.1338C43.8272 33.1809 40.5295 32.0188 40.4981 32.0188Z" fill="#595959"/>
<path d="M46.0095 32.8353C45.8839 32.8353 45.774 32.8196 45.6641 32.8039V31.4377C45.774 31.4377 45.8839 31.4377 46.0095 31.4377V32.8353Z" fill="#595959"/>
<path d="M46.7483 32.7256C46.607 32.7884 46.4656 32.8198 46.3086 32.8355V31.4222C46.4499 31.4065 46.607 31.3908 46.7483 31.3594V32.7256Z" fill="#595959"/>
<path d="M45.9152 31.0453C44.7845 31.0453 43.6382 30.5899 42.9002 29.8675C42.4605 29.4279 42.2092 28.9411 42.1621 28.4229H49.6526C49.5269 29.8518 47.831 31.0453 45.9152 31.0453Z" fill="#595959"/>
<path d="M13.1119 27.3394C13.5987 27.2766 13.7086 27.2452 13.8028 27.1353C13.8814 27.0568 13.9128 26.9312 13.8971 26.8055C13.8814 26.6642 13.8185 26.57 13.7243 26.5072C13.5987 26.4287 13.4888 26.413 13.002 26.4758C12.5152 26.5386 12.4053 26.57 12.311 26.6799C12.2325 26.7584 12.2011 26.8684 12.2168 27.0097C12.2325 27.151 12.2953 27.2452 12.3896 27.308C12.5152 27.3866 12.6408 27.4023 13.1119 27.3394Z" fill="#595959"/>
<path d="M13.473 21.5763L13.5672 20.9639L12.625 21.1366L13.473 21.5763Z" fill="#595959"/>
<path d="M53.8917 18.0117C53.9388 18.1373 54.0174 18.2315 54.1116 18.2629C54.2372 18.3257 54.3628 18.31 54.8182 18.1687C55.2736 18.0274 55.3835 17.9646 55.4463 17.8389C55.5092 17.7447 55.5249 17.6191 55.4778 17.4935C55.4306 17.3678 55.3521 17.2736 55.2579 17.2265C55.1323 17.1637 55.0067 17.1794 54.5513 17.3207C54.0959 17.4621 53.9859 17.5249 53.9074 17.6505C53.8603 17.7604 53.8446 17.8861 53.8917 18.0117Z" fill="#595959"/>
<path d="M45.2399 41.9119C45.1457 41.8805 45.0201 41.8962 44.8945 41.9591C44.7845 42.0219 44.706 42.1318 44.6903 42.2417C44.6589 42.383 44.706 42.493 44.9416 42.9169C45.1928 43.3252 45.2713 43.4195 45.4127 43.4509C45.5069 43.4823 45.6325 43.4666 45.7424 43.4037C45.8524 43.3409 45.9309 43.231 45.9466 43.1211C45.978 42.9798 45.9309 42.8698 45.6796 42.4616C45.4598 42.0376 45.3813 41.9591 45.2399 41.9119Z" fill="#595959"/>
<path d="M43.0263 44.3932C43.1048 44.5816 43.2933 44.6444 43.4974 44.5502L43.9214 44.3618L43.6387 43.7336L43.2148 43.9221C43.0263 44.032 42.9478 44.2047 43.0263 44.3932Z" fill="#595959"/>
<path d="M14.3828 33.4479L15.3407 33.3536L15.0738 32.7883L14.3828 33.4479Z" fill="#595959"/>
<path d="M17.9473 38.9126L18.8423 38.5357L18.4184 38.0803L17.9473 38.9126Z" fill="#595959"/>
<path d="M22.155 41.0797C22.0137 41.1111 21.9195 41.1896 21.6525 41.5822C21.3698 41.9748 21.3227 42.0847 21.3541 42.226C21.3698 42.3359 21.417 42.4459 21.5269 42.5244C21.6368 42.6029 21.7624 42.6186 21.8723 42.6029C22.0137 42.5715 22.0922 42.493 22.3749 42.1004C22.6575 41.7078 22.7046 41.5979 22.6889 41.4566C22.6732 41.3466 22.6104 41.2367 22.5005 41.1582C22.3906 41.0797 22.2649 41.064 22.155 41.0797Z" fill="#595959"/>
<path d="M48.8992 40.6401C49.0406 40.7814 49.2447 40.7971 49.4017 40.6401L49.7315 40.326L49.2604 39.8235L48.9306 40.1376C48.7579 40.2946 48.7579 40.4987 48.8992 40.6401Z" fill="#595959"/>
<path d="M26.4902 44.8012L27.1184 44.0631L26.5216 43.8433L26.4902 44.8012Z" fill="#595959"/>
<path d="M55.6675 25.9418C55.1807 25.8947 55.0708 25.9104 54.9452 25.9889C54.851 26.0517 54.7882 26.1616 54.7882 26.2873C54.7725 26.4286 54.8196 26.5385 54.8981 26.617C54.9923 26.7269 55.1022 26.7584 55.589 26.8055C56.0758 26.8526 56.1858 26.8369 56.3114 26.7426C56.3899 26.6798 56.4527 26.5699 56.4684 26.4443C56.4841 26.303 56.437 26.193 56.3585 26.1145C56.2643 26.0203 56.1543 25.9889 55.6675 25.9418Z" fill="#595959"/>
<path d="M21.3402 6.67383C21.2145 6.5168 21.0261 6.50109 20.8534 6.62672L20.4922 6.90938L20.9005 7.44329L21.2616 7.16063C21.4344 7.0193 21.4658 6.83086 21.3402 6.67383Z" fill="#595959"/>
<path d="M54.6771 33.2595L54.8655 32.8356L54.2531 32.5686L54.0647 32.9926C53.9862 33.1967 54.049 33.3695 54.2217 33.448C54.4101 33.5265 54.5829 33.448 54.6771 33.2595Z" fill="#595959"/>
<path d="M33.3841 2.41821L33.1172 3.3447L33.7296 3.3133L33.3841 2.41821Z" fill="#595959"/>
<path d="M19.7529 9.59472C19.8628 9.59472 19.9727 9.56332 20.0827 9.4691C20.1769 9.37488 20.224 9.26496 20.224 9.15503C20.224 9.0137 20.1612 8.90378 19.8157 8.55831C19.4859 8.21284 19.376 8.15003 19.2347 8.13432C19.1248 8.11862 19.0148 8.16573 18.9206 8.25995C18.8264 8.35417 18.7793 8.46409 18.7793 8.57401C18.7793 8.71534 18.8421 8.80956 19.1876 9.17074C19.5331 9.53191 19.6116 9.59472 19.7529 9.59472Z" fill="#595959"/>
<path d="M36.2271 2.98355C36.2585 2.60667 36.2428 2.44964 36.1643 2.32402C36.0858 2.21409 35.9759 2.15128 35.8031 2.15128L35.442 2.11987L35.332 3.75301L35.6932 3.78442C35.8659 3.80012 35.9759 3.75301 36.0701 3.65879C36.18 3.54887 36.1957 3.36043 36.2271 2.98355Z" fill="#595959"/>
<path d="M54.8979 30.2131C54.4425 30.0717 54.3169 30.056 54.1913 30.1189C54.097 30.166 54.0028 30.2602 53.9714 30.3858C53.94 30.5114 53.9557 30.6371 54.0028 30.7313C54.0813 30.8569 54.1756 30.9197 54.6467 31.061C55.1178 31.2024 55.2277 31.2024 55.3533 31.1553C55.4475 31.1082 55.526 31.0139 55.5731 30.8883C55.6203 30.7627 55.5889 30.6371 55.5417 30.5428C55.4632 30.4015 55.369 30.3544 54.8979 30.2131Z" fill="#595959"/>
<path d="M40.1531 3.18774L39.6035 3.98861L40.2002 4.14564L40.1531 3.18774Z" fill="#595959"/>
<path d="M50.9401 36.7299C50.9715 36.8713 51.1128 36.9812 51.4269 37.2167C51.7409 37.4366 51.8666 37.5151 52.0236 37.5151C52.1649 37.5151 52.2591 37.4523 52.3691 37.3109L52.5889 37.0126L51.2541 36.0547L51.0343 36.353C50.9244 36.4787 50.9087 36.6043 50.9401 36.7299Z" fill="#595959"/>
<path d="M34.3106 0C20.8844 0 9.98633 10.8823 9.98633 24.3243C9.98633 37.7663 20.8844 48.6329 34.3106 48.6329C47.7369 48.6329 58.6349 37.7506 58.6349 24.3086C58.6349 10.8666 47.7526 0 34.3106 0ZM57.0018 24.1045C57.0018 24.5756 56.7505 24.9367 56.2166 25.0467V24.5442C56.4208 24.497 56.5778 24.3714 56.5621 24.1202C56.5621 23.9788 56.515 23.8846 56.4208 23.8061C56.3109 23.7119 56.2009 23.6805 55.7141 23.6962C55.2273 23.6962 55.1174 23.7276 55.0075 23.8218C54.929 23.8846 54.8819 24.0102 54.8819 24.1359C54.8819 24.3871 55.0389 24.5127 55.243 24.5599V25.0624C54.7091 24.9838 54.4422 24.6227 54.4422 24.1516C54.4422 23.8689 54.5364 23.6491 54.7091 23.4763C54.9604 23.2251 55.2744 23.2251 55.7141 23.2251C56.1538 23.2251 56.4679 23.2094 56.7191 23.4606C56.8919 23.602 56.9861 23.8218 57.0018 24.1045ZM56.672 20.5555L56.248 20.6498L56.0125 19.5034L55.4158 19.629L55.6199 20.6026L55.1959 20.6969L54.9918 19.7233L53.9868 19.9274L53.8926 19.4406L56.358 18.9224L56.672 20.5555ZM55.4315 16.8025C55.6513 16.9124 55.8084 17.1008 55.9026 17.3678C55.9968 17.6347 55.9654 17.8703 55.8555 18.0901C55.6984 18.4042 55.3844 18.4984 54.9761 18.6397C54.5678 18.7654 54.2694 18.8753 53.9397 18.7025C53.7198 18.5926 53.5628 18.4199 53.4686 18.1372C53.3744 17.8703 53.4058 17.619 53.5157 17.3992C53.6727 17.0851 53.9868 16.9909 54.3951 16.8653C54.8191 16.7396 55.1174 16.6297 55.4315 16.8025ZM54.5678 14.0858L54.1909 14.3056L53.8769 13.7246L52.071 14.7296L51.8354 14.3056L53.657 13.3006L53.343 12.7196L53.7198 12.4998L54.5678 14.0858ZM52.495 10.7881L51.8197 12.4841L53.076 11.589L53.3586 11.9816L51.3015 13.442L51.0503 13.0808L51.7255 11.3691L50.4693 12.2642L50.1866 11.8559L52.228 10.3955L52.495 10.7881ZM51.804 9.87733L51.4743 10.1757L50.7048 9.31202L50.2651 9.7046L50.9246 10.4426L50.5949 10.741L49.9353 10.003L49.48 10.4112L50.2651 11.2749L49.9353 11.5733L48.8361 10.3327L50.7048 8.65248L51.804 9.87733ZM48.789 6.87802L48.3807 8.33842L49.7626 7.74169L50.1238 8.05576L48.4592 9.94015L48.0981 9.61038L49.0717 8.51115L48.0824 8.90373L47.8311 8.68389L48.0981 7.64747L47.1245 8.7467L46.7633 8.41693L48.4278 6.53254L48.789 6.87802ZM47.8625 6.12426L47.6113 6.48543L46.6534 5.8259L46.3236 6.3127L47.1402 6.87802L46.8889 7.23919L46.0724 6.67387L45.7269 7.17638L46.6848 7.83591L46.4335 8.19709L45.0673 7.25489L46.4963 5.18207L47.8625 6.12426ZM44.4392 4.31839C44.6748 4.23987 44.926 4.27128 45.1616 4.39691C45.5698 4.61675 45.774 5.02503 45.6013 5.54324L45.1616 5.30769C45.2087 5.10355 45.1773 4.91511 44.9574 4.78949C44.8318 4.72667 44.7219 4.71097 44.612 4.75808C44.4706 4.80519 44.3921 4.89941 44.1566 5.3234C43.921 5.74738 43.8896 5.87301 43.921 5.99863C43.9367 6.10856 44.0152 6.20278 44.1409 6.26559C44.3607 6.39122 44.5491 6.3127 44.6905 6.15567L45.1302 6.39122C44.8004 6.8152 44.345 6.87802 43.9367 6.64247C43.7012 6.50114 43.5441 6.3127 43.4813 6.07715C43.3714 5.73168 43.5284 5.46472 43.7483 5.07214C43.9524 4.69527 44.0937 4.41261 44.4392 4.31839ZM41.911 2.9365L42.3193 3.09354L42.6648 4.89941L43.2458 3.47041L43.7012 3.65885L42.759 5.98293L42.3507 5.8259L42.0052 4.02003L41.4242 5.44902L40.9688 5.26058L41.911 2.9365ZM40.5291 2.52822L40.749 5.19777L40.2622 5.05644L40.2308 4.58534L39.3671 4.3498L39.1001 4.74238L38.6133 4.60105L40.1679 2.4183L40.5291 2.52822ZM37.6868 1.90009L37.9067 3.59604L38.6761 2.07283L39.1786 2.15134L37.9381 4.49112L37.5769 4.42831L37.1843 1.80587L37.6868 1.90009ZM34.9702 1.64884L35.881 1.71165C36.1479 1.72736 36.3678 1.82157 36.5248 1.99431C36.7917 2.29267 36.7446 2.63814 36.7132 3.01502C36.6818 3.3919 36.6975 3.75307 36.3835 4.02003C36.2107 4.17706 35.9595 4.23987 35.7082 4.20847L34.7974 4.14565L34.9702 1.64884ZM33.1486 1.68025L33.5255 1.66454L34.5462 4.12995L34.0437 4.14565L33.8709 3.70596L32.9759 3.73737L32.8345 4.19276L32.3477 4.23987L33.1486 1.68025ZM29.7567 2.10423L29.8666 2.52822L28.736 2.81088L28.8773 3.3919L29.8352 3.14065L29.9451 3.56463L28.9872 3.80018L29.1286 4.39691L30.2592 4.11425L30.3691 4.53823L28.7674 4.93081L28.1707 2.48111L29.7567 2.10423ZM26.1292 3.17205L26.4747 4.14565L27.2756 3.84729L26.9144 2.88939L27.3698 2.71666L28.2335 5.07214L27.7781 5.24488L27.4169 4.25558L26.6161 4.53823L26.9772 5.52754L26.5218 5.70027L25.6582 3.34479L26.1292 3.17205ZM25.1085 3.58034L25.297 3.97292L24.7003 4.25558L25.611 6.12426L25.1714 6.34411L24.2606 4.47542L23.6638 4.75808L23.4754 4.3655L25.1085 3.58034ZM20.6174 6.24989C21.0257 5.93582 21.4811 6.03004 21.7323 6.35981C21.9522 6.64247 21.9051 6.94083 21.7638 7.16067L22.863 7.67888L22.4076 8.02435L21.4026 7.52185L21.1199 7.74169L21.7323 8.54256L21.3398 8.84092L19.8166 6.84661L20.6174 6.24989ZM18.6074 7.94584C18.8115 7.74169 19.0314 7.66318 19.2826 7.67888C19.6438 7.67888 19.8637 7.91443 20.162 8.22849C20.4604 8.54256 20.6802 8.7624 20.6802 9.12358C20.6802 9.37483 20.586 9.59467 20.3819 9.78311C20.1777 9.98726 19.9422 10.0658 19.6909 10.0658C19.3298 10.0658 19.1256 9.83022 18.8272 9.51616C18.5289 9.20209 18.309 8.98225 18.309 8.62107C18.309 8.36982 18.4033 8.14998 18.6074 7.94584ZM17.6338 8.95084L17.9636 9.2335L17.2098 10.1286L17.6809 10.5212L18.3247 9.76741L18.6545 10.0501L18.0107 10.8038L18.7958 11.4634L18.4818 11.8402L16.566 10.2071L17.6338 8.95084ZM14.2576 13.7403L16.0949 13.6304L14.7444 12.8767L14.98 12.4527L17.1784 13.6775L16.9586 14.0544L15.1213 14.1643L16.4718 14.9181L16.2362 15.3421L14.0378 14.1172L14.2576 13.7403ZM13.3468 15.6247C13.4567 15.3578 13.6295 15.2007 13.865 15.1065C14.1948 14.9652 14.4775 15.0908 14.8857 15.2635C15.294 15.4206 15.5767 15.5462 15.718 15.876C15.8122 16.1115 15.8279 16.3471 15.718 16.5983C15.6081 16.8653 15.4354 17.0223 15.1998 17.1165C14.87 17.2579 14.5717 17.1322 14.1791 16.9595C13.7865 16.7868 13.4881 16.6768 13.3468 16.3471C13.2526 16.1272 13.2526 15.8917 13.3468 15.6247ZM12.8129 17.1165L15.1998 17.886L15.0585 18.3571L12.6716 17.5876L12.8129 17.1165ZM12.4988 18.1058L12.9228 18.2157L12.7658 18.8596L14.7915 19.3464L14.6816 19.8175L12.6559 19.315L12.4988 19.9588L12.0749 19.8489L12.4988 18.1058ZM11.9178 20.8539L14.5403 20.3043L14.4617 20.8068L14.0064 20.8853L13.8807 21.7647L14.289 21.9845L14.2105 22.487L11.855 21.2151L11.9178 20.8539ZM11.7137 22.597L14.2262 22.754L14.1948 23.2408L11.6823 23.0838L11.7137 22.597ZM12.4046 23.6491V24.1516C12.2005 24.1987 12.0435 24.34 12.0592 24.5756C12.0592 24.7169 12.1063 24.8111 12.2005 24.8896C12.3104 24.9838 12.436 25.0152 12.9071 24.9995C13.3939 24.9995 13.5039 24.9681 13.6138 24.8739C13.6923 24.7954 13.7394 24.6855 13.7394 24.5599C13.7394 24.3086 13.5824 24.183 13.3782 24.1359V23.6334C13.9121 23.7119 14.1791 24.0731 14.1791 24.5442C14.1791 24.8268 14.0849 25.0467 13.9121 25.2194C13.6609 25.4706 13.3468 25.4706 12.9071 25.4863C12.4674 25.4863 12.1534 25.5021 11.9021 25.2508C11.7294 25.0781 11.6195 24.8582 11.6195 24.5756C11.6195 24.1202 11.8864 23.7433 12.4046 23.6491ZM11.7922 27.0567C11.7608 26.774 11.8236 26.5542 11.9806 26.35C12.2005 26.0674 12.5145 26.036 12.9542 25.9888C13.3782 25.9417 13.6923 25.8946 13.9749 26.1145C14.1791 26.2715 14.289 26.4756 14.3361 26.7583C14.3675 27.041 14.3047 27.2765 14.1477 27.465C13.9278 27.7476 13.6138 27.779 13.1898 27.8261C12.7501 27.8732 12.4517 27.9203 12.1691 27.7005C11.9492 27.5435 11.8236 27.3393 11.7922 27.0567ZM12.2005 29.4122C12.122 29.0667 12.1534 28.8154 12.3104 28.5485L12.6716 28.784C12.5617 28.9725 12.5774 29.1609 12.6245 29.3179C12.6873 29.5692 12.86 29.6634 13.0171 29.632C13.0799 29.6163 13.1427 29.5849 13.1741 29.5221C13.2055 29.4593 13.2212 29.3807 13.2212 29.2708L13.1898 28.9725C13.1741 28.7369 13.1898 28.5799 13.2683 28.4543C13.3625 28.2972 13.5353 28.203 13.7394 28.1402C14.2105 28.0303 14.5717 28.36 14.6973 28.8782C14.7758 29.2551 14.7601 29.5535 14.5717 29.8518L14.1948 29.6163C14.3204 29.4279 14.3204 29.208 14.2576 28.9725C14.1948 28.6898 14.0535 28.5642 13.8493 28.6113C13.7708 28.627 13.6923 28.6741 13.6609 28.7369C13.6295 28.7997 13.6138 28.8625 13.6295 28.9725L13.6609 29.2708C13.6766 29.4907 13.6452 29.6634 13.5667 29.789C13.4724 29.9304 13.3311 30.0246 13.127 30.0717C12.703 30.1816 12.3261 29.9304 12.2005 29.4122ZM12.8129 31.5792C12.703 31.2494 12.703 30.9825 12.8286 30.7155L13.2212 30.9197C13.127 31.1238 13.1741 31.3122 13.2212 31.4693C13.2997 31.7205 13.4881 31.799 13.6452 31.7362C13.708 31.7205 13.7551 31.6734 13.7865 31.6106C13.8179 31.5478 13.8179 31.4536 13.8022 31.3594L13.7394 31.061C13.6923 30.8411 13.708 30.6684 13.7708 30.5428C13.8493 30.3701 14.0064 30.2601 14.2105 30.1816C14.6659 30.0246 15.0585 30.3229 15.2312 30.8254C15.3568 31.1866 15.3725 31.485 15.2155 31.799L14.8072 31.5949C14.9014 31.3908 14.8857 31.1709 14.8072 30.9511C14.713 30.6684 14.556 30.5585 14.3675 30.6213C14.289 30.6527 14.2262 30.6998 14.1948 30.7626C14.1634 30.8254 14.1634 30.8883 14.1791 30.9982L14.2419 31.2965C14.2733 31.5164 14.2733 31.6891 14.1948 31.8305C14.1163 31.9875 13.9907 32.0974 13.7865 32.1602C13.3939 32.3015 12.9856 32.0817 12.8129 31.5792ZM13.6295 33.5892L15.5296 31.7048L15.7494 32.1759L15.4039 32.49L15.7808 33.3066L16.2519 33.2594L16.4718 33.7305L13.8022 33.9504L13.6295 33.5892ZM16.3618 38.1746L16.0792 37.782L17.7594 36.5571L17.0842 35.6306L17.4454 35.3794L18.4033 36.6985L16.3618 38.1746ZM17.2726 39.2738L18.5289 36.9183L18.8744 37.2952L18.6388 37.7035L19.2355 38.363L19.6752 38.1746L20.0207 38.5514L17.5396 39.5407L17.2726 39.2738ZM19.6281 41.5979L19.9108 39.792L18.8901 40.9383L18.5289 40.6086L20.1934 38.7242L20.5232 39.0225L20.2405 40.8441L21.2612 39.6821L21.6224 40.0118L19.9579 41.8962L19.6281 41.5979ZM21.9836 43.0583C21.7323 43.1054 21.4968 43.0583 21.2612 42.8855C21.0257 42.7128 20.9001 42.5087 20.8687 42.2731C20.8059 41.9119 20.9943 41.6607 21.2455 41.3152C21.4968 40.954 21.6695 40.7028 22.0307 40.64C22.282 40.5929 22.5175 40.64 22.7374 40.797C22.9572 40.954 23.0985 41.1739 23.1299 41.4094C23.1927 41.7706 23.0043 42.0218 22.7531 42.3673C22.5175 42.7285 22.3448 42.9955 21.9836 43.0583ZM22.6117 43.7335L23.8837 41.5665L24.3077 41.8177L23.0357 43.9848L22.6117 43.7335ZM25.3127 44.6757L25.1242 45.0683L23.5068 44.2674L23.6952 43.8748L24.292 44.1732L25.2028 42.3045L25.6425 42.5244L24.7317 44.393L25.3127 44.6757ZM26.0507 45.4294L26.0821 42.7442L26.5532 42.9326L26.5375 43.4037L27.3698 43.7178L27.6682 43.3566L28.1393 43.5451L26.3962 45.5708L26.0507 45.4294ZM29.6468 46.5287L29.2228 46.4188L28.6418 44.6757L28.2649 46.1675L27.7938 46.0419L28.4062 43.6079L28.8302 43.7178L29.4112 45.4609L29.7881 43.9691L30.2592 44.0947L29.6468 46.5287ZM15.9379 24.3243C15.9379 14.18 24.1663 5.93582 34.3263 5.93582C44.4863 5.93582 52.7148 14.1643 52.7148 24.3243C52.7148 34.4843 44.4863 42.7128 34.3263 42.7128C24.1663 42.7128 15.9379 34.4686 15.9379 24.3243ZM38.6133 46.5915L38.5191 46.1675L39.6497 45.9005L39.5084 45.3195L38.5505 45.5394L38.4563 45.1154L39.4299 44.8955L39.2886 44.2988L38.1579 44.5658L38.0637 44.1418L39.6811 43.7649L40.2465 46.2146L38.6133 46.5915ZM41.8796 45.6964L41.2043 43.7335L40.1208 44.0947L39.9795 43.6864L41.5184 43.1525L42.335 45.5394L41.8796 45.6964ZM43.6698 44.9741C43.1987 45.1939 42.759 44.9898 42.5862 44.6129C42.4135 44.2203 42.5391 43.7649 43.0102 43.5608L43.4499 43.3566L43.0573 42.4929L43.497 42.2888L44.5491 44.5658L43.6698 44.9741ZM45.9938 43.7806C45.7426 43.9219 45.507 43.9533 45.2715 43.8905C44.926 43.812 44.769 43.5294 44.5334 43.1682C44.3136 42.7913 44.1409 42.5244 44.2351 42.1789C44.2979 41.9433 44.4235 41.7392 44.6748 41.5979C44.926 41.4565 45.1616 41.4251 45.3971 41.4879C45.7426 41.5822 45.8996 41.8491 46.1195 42.226C46.3393 42.6029 46.512 42.8698 46.4178 43.2153C46.3707 43.4351 46.2451 43.6236 45.9938 43.7806ZM47.2815 42.9326L47.0145 42.5872L47.941 41.8805L47.5799 41.4094L46.7947 42.0061L46.5277 41.6607L47.3286 41.064L46.9517 40.5772L46.0252 41.2838L45.7583 40.9383L47.0774 39.9333L48.6006 41.9433L47.2815 42.9326ZM49.6841 40.9854C49.3072 41.3466 48.8361 41.2995 48.5378 40.9854C48.2394 40.6714 48.2237 40.2003 48.6006 39.8391L48.9617 39.5093L48.3179 38.8184L48.6791 38.4886L50.4064 40.3259L49.6841 40.9854ZM52.6834 37.5935C52.5264 37.8134 52.3222 37.9547 52.1024 37.9861C51.7098 38.0489 51.4429 37.8291 51.1445 37.6092C50.8461 37.3894 50.5164 37.201 50.4536 36.8084C50.4221 36.5728 50.5007 36.3373 50.642 36.1331L51.1759 35.3951L53.2173 36.8712L52.6834 37.5935ZM53.5785 36.2745L53.2016 36.0546L53.7826 35.0496L53.2644 34.7513L52.7776 35.6149L52.4008 35.3951L52.8876 34.5314L52.3536 34.233L51.7726 35.2381L51.3957 35.0182L52.2123 33.5735L54.3951 34.8141L53.5785 36.2745ZM55.0546 33.4636C54.8505 33.9347 54.4108 34.076 54.0182 33.9033C53.6884 33.7619 53.5785 33.4793 53.5942 33.2123L52.3693 33.2909L52.5892 32.7726L53.7041 32.7255L53.8455 32.3958L52.919 32.0032L53.1074 31.5478L55.4158 32.5528L55.0546 33.4636ZM55.9968 30.9982C55.9183 31.2808 55.7612 31.4536 55.5414 31.5635C55.2273 31.7362 54.929 31.642 54.505 31.5007C54.0967 31.3751 53.7826 31.2808 53.6256 30.9668C53.5157 30.7469 53.4843 30.5114 53.5628 30.2444C53.6413 29.9775 53.7983 29.789 54.0339 29.6791C54.348 29.5064 54.6463 29.6163 55.0703 29.7419C55.4786 29.8675 55.7927 29.9618 55.9497 30.2758C56.0439 30.4957 56.0753 30.7312 55.9968 30.9982ZM56.5778 28.5956L54.5364 28.1873L54.3165 29.3022L53.8926 29.208L54.2223 27.6063L56.6877 28.1088L56.5778 28.5956ZM56.5621 27.1509C56.2795 27.3864 55.9654 27.3393 55.5414 27.3079C55.1017 27.2608 54.8033 27.2451 54.5678 26.9624C54.4108 26.774 54.3323 26.5385 54.348 26.2558C54.3794 25.9731 54.4893 25.7533 54.6934 25.612C54.9761 25.3764 55.2901 25.4235 55.7141 25.4549C56.1381 25.4863 56.4679 25.5178 56.6877 25.8004C56.8448 25.9889 56.9233 26.2244 56.8919 26.5071C56.8605 26.774 56.7506 26.9782 56.5621 27.1509Z" fill="#595959"/>
<path d="M14.3685 16.5197C14.8082 16.7081 14.9338 16.7238 15.0594 16.6767C15.1693 16.6453 15.2635 16.5511 15.3107 16.4412C15.3578 16.3155 15.3578 16.1899 15.3107 16.0957C15.2478 15.9701 15.1536 15.8915 14.7139 15.7188C14.2742 15.5304 14.1486 15.5147 14.0073 15.5618C13.9131 15.5932 13.8188 15.6717 13.756 15.7973C13.7089 15.923 13.7089 16.0486 13.756 16.1428C13.8188 16.2684 13.9131 16.3312 14.3685 16.5197Z" fill="#595959"/>
<path d="M37.1852 27.7161C37.0124 27.7161 36.8711 27.8574 36.8711 28.0772C36.8711 28.2971 36.9967 28.4384 37.1852 28.4384C37.3579 28.4384 37.4992 28.3128 37.4992 28.0772C37.4992 27.8574 37.3736 27.7161 37.1852 27.7161Z" fill="#595959"/>
<path d="M33.4938 27.7161C33.321 27.7161 33.1797 27.8574 33.1797 28.0772C33.1797 28.2971 33.3053 28.4384 33.4938 28.4384C33.6665 28.4384 33.8078 28.3128 33.8078 28.0772C33.8078 27.8574 33.6822 27.7161 33.4938 27.7161Z" fill="#595959"/>
<path d="M35.3316 27.7161C35.1588 27.7161 35.0332 27.8417 35.0332 28.0615V29.0979C35.0332 29.3021 35.1588 29.4277 35.3316 29.4277C35.5043 29.4277 35.6299 29.3021 35.6299 29.0979V28.0615C35.6299 27.8574 35.5043 27.7161 35.3316 27.7161Z" fill="#595959"/>
<path d="M35.3008 25.408V26.1617H35.4735C35.552 26.1617 35.5991 26.1303 35.6305 26.0832C35.6777 26.0361 35.6777 25.9419 35.6777 25.7691C35.6777 25.5964 35.6777 25.5179 35.6305 25.4708C35.5991 25.4237 35.5363 25.408 35.4735 25.408H35.3008Z" fill="#595959"/>
<path d="M31.6876 21.2622L31.2793 22.4871H32.0959L31.6876 21.2622Z" fill="#595959"/>
<path d="M34.9063 21.2622L34.498 22.4871H35.3146L34.9063 21.2622Z" fill="#595959"/>
<path d="M32.2529 25.3921C32.1901 25.3921 32.143 25.4078 32.1116 25.4549C32.0645 25.502 32.0645 25.5491 32.0645 25.7847C32.0645 26.0202 32.0802 26.0673 32.1116 26.1144C32.143 26.1458 32.1901 26.1773 32.2529 26.1773C32.3157 26.1773 32.3628 26.1458 32.3942 26.1144C32.4413 26.0673 32.457 26.0202 32.457 25.7847C32.457 25.5491 32.4413 25.502 32.3942 25.4549C32.3628 25.4235 32.3157 25.3921 32.2529 25.3921Z" fill="#595959"/>
<path d="M42.6335 30.1345C42.0682 29.5691 41.7698 28.9096 41.7698 28.2344V28.0459H41.864L44.5807 19.0951C43.8583 19.1108 42.8219 19.0637 42.0054 18.6397C41.974 18.624 39.1317 17.0066 35.5199 17.6504C35.4728 17.8231 35.3786 17.9959 35.2373 18.1372C35.0331 18.3413 34.7662 18.4513 34.4835 18.4513C34.2009 18.4513 33.9339 18.3413 33.7298 18.1372C33.5884 17.9959 33.4942 17.8388 33.4471 17.6504C29.8354 17.0223 26.9931 18.624 26.9617 18.6554C26.1608 19.0794 25.1244 19.1265 24.402 19.1108L27.1187 28.0616H27.2129V28.2501C27.2129 28.9253 26.9146 29.5848 26.3492 30.1502C25.674 30.8254 24.7004 31.2808 23.6797 31.4064V32.7569C25.3442 32.5371 28.3121 31.3279 28.3593 31.3122C32.7719 29.8675 34.2637 32.3957 34.2637 32.4114C34.2637 32.4114 34.3736 32.5685 34.5149 32.8354C34.6562 32.5685 34.7505 32.4114 34.7505 32.4114C34.7505 32.4114 36.1323 29.9303 40.6706 31.3122C40.702 31.3279 43.6542 32.5056 45.3187 32.7412V31.4064C44.3137 31.2808 43.3244 30.8254 42.6335 30.1345ZM34.6405 20.2728H35.143L36.3365 23.649H35.6613L35.4728 23.0523H34.3108L34.1066 23.649H33.4471L34.6405 20.2728ZM35.8811 25.769C35.8811 25.9417 35.8968 26.1144 35.7712 26.2401C35.6927 26.3186 35.5827 26.35 35.4728 26.35H35.0645V25.2036H35.4728C35.5827 25.2036 35.6927 25.235 35.7712 25.3136C35.8968 25.4392 35.8811 25.6119 35.8811 25.769ZM33.2901 26.1615C33.4157 26.1615 33.4942 26.083 33.4942 25.9417V25.1879H33.7141V25.9417C33.7141 26.1929 33.5256 26.35 33.3058 26.35C33.0702 26.35 32.8975 26.1929 32.8975 25.9417V25.1879H33.1173V25.9417C33.1016 26.083 33.1801 26.1615 33.2901 26.1615ZM29.8354 23.649H29.2543L27.951 21.5762V23.649H27.3071V20.2728H27.8882L29.1915 22.33V20.2728H29.8354V23.649ZM30.2279 23.649L31.4214 20.2728H31.9239L33.1173 23.649H32.4421L32.2537 23.0523H31.0916L30.8875 23.649H30.2279ZM30.9817 25.2036H31.7197V25.4078H31.2015V25.6904H31.6412V25.8946H31.2015V26.3657H30.9817V25.2036V25.2036ZM32.0024 29.8204H31.5627V27.8261L31.0759 28.2658V27.779L31.5627 27.3393H32.0024V29.8204ZM32.5677 26.2401C32.4892 26.3186 32.395 26.3657 32.2694 26.3657C32.1437 26.3657 32.0495 26.3186 31.971 26.2401C31.8611 26.1301 31.8611 25.9731 31.8611 25.7847C31.8611 25.5805 31.8611 25.4392 31.971 25.3293C32.0495 25.2508 32.1437 25.2036 32.2694 25.2036C32.395 25.2036 32.4892 25.2508 32.5677 25.3293C32.6776 25.4549 32.6776 25.5962 32.6776 25.7847C32.6776 25.9731 32.6776 26.1301 32.5677 26.2401ZM34.0438 28.7526L33.5256 29.8204H33.0545L33.557 28.7997C33.4942 28.8154 33.4314 28.8311 33.3843 28.8311C33.0545 28.8311 32.7405 28.5484 32.7405 28.093C32.7405 27.6062 33.0702 27.3236 33.4942 27.3236C33.9182 27.3236 34.248 27.6062 34.248 28.093C34.248 28.3129 34.1537 28.517 34.0438 28.7526ZM34.1694 25.6433V26.35H33.9496V25.2036H34.138L34.5777 25.9103V25.2036H34.7976V26.35H34.6091L34.1694 25.6433ZM36.0695 29.098C36.0695 29.5691 35.7241 29.8361 35.3315 29.8361C34.9389 29.8361 34.5934 29.5691 34.5934 29.098V28.0459C34.5934 27.5748 34.9389 27.3079 35.3315 27.3079C35.7241 27.3079 36.0695 27.5748 36.0695 28.0459V29.098ZM36.1166 25.2036H36.8547V25.4078H36.3365V25.6747H36.7762V25.8789H36.3365V26.1615H36.8547V26.3657H36.1166V25.2036ZM37.7341 28.7526L37.2159 29.8204H36.7448L37.2473 28.7997C37.1845 28.8154 37.1217 28.8311 37.0745 28.8311C36.7448 28.8311 36.4307 28.5484 36.4307 28.093C36.4307 27.6062 36.7605 27.3236 37.1845 27.3236C37.6085 27.3236 37.9382 27.6062 37.9382 28.093C37.9382 28.3129 37.844 28.517 37.7341 28.7526ZM37.0745 26.35V25.2036H37.4828C37.5927 25.2036 37.7027 25.235 37.7812 25.3136C37.9068 25.4392 37.8911 25.5962 37.8911 25.769C37.8911 25.9417 37.9068 26.1144 37.7812 26.2401C37.7027 26.3186 37.6085 26.35 37.4828 26.35H37.0745ZM37.4043 22.911C37.4985 23.0209 37.6399 23.0837 37.8126 23.0837C38.1267 23.0837 38.2994 22.8796 38.3622 22.6126H39.006C38.8961 23.3193 38.4093 23.6804 37.7969 23.6804C37.4357 23.6804 37.1374 23.5391 36.9175 23.3036C36.5877 22.9581 36.5877 22.5498 36.5877 21.9531C36.5877 21.3721 36.572 20.9481 36.9175 20.6026C37.1531 20.367 37.4357 20.2414 37.7969 20.2414C38.4093 20.2414 38.8804 20.6026 39.006 21.3092H38.3622C38.2994 21.0423 38.1267 20.8381 37.8126 20.8381C37.6399 20.8381 37.4985 20.901 37.4043 21.0109C37.2787 21.1522 37.2473 21.3092 37.2473 21.9531C37.2316 22.6126 37.2787 22.7696 37.4043 22.911ZM40.6549 22.3771H40.0267V23.649H39.3829V20.2728H40.6549C41.3301 20.2728 41.7384 20.7596 41.7384 21.3249C41.7384 21.906 41.3301 22.3771 40.6549 22.3771Z" fill="#595959"/>
<path d="M37.6718 25.7848C37.6718 25.6121 37.6718 25.5336 37.6247 25.4865C37.5776 25.4394 37.5305 25.408 37.452 25.408H37.2949V26.1617H37.452C37.5305 26.1617 37.5776 26.1303 37.6247 26.0989C37.6561 26.0361 37.6718 25.9576 37.6718 25.7848Z" fill="#595959"/>
<path d="M40.6241 20.8696H40.0273V21.7961H40.6241C40.9224 21.7961 41.0952 21.6077 41.0952 21.3407C41.0952 21.0581 40.9224 20.8696 40.6241 20.8696Z" fill="#595959"/>
<path d="M22.5646 15.4834L19.4082 28.1559H20.2248L22.5646 15.4834Z" fill="#595959"/>
<path d="M46.3242 15.4834L49.4806 28.1559H48.6483L46.3242 15.4834Z" fill="#595959"/>
<path d="M45.6791 15.4834L45.0195 18.7183L45.3336 18.6869L45.6791 15.4834Z" fill="#595959"/>
<path d="M23.3027 15.4834L23.978 18.7183L23.6639 18.6869L23.3027 15.4834Z" fill="#595959"/>
</svg>
