<svg width="69" height="71" viewBox="0 0 69 71" fill="none" xmlns="http://www.w3.org/2000/svg">
<path d="M12.3899 70.3189L3.43901 62.2789V70.0363H0V54.9926L0.471097 54.9141L9.29631 62.8913V55.1967H12.7353V70.2561L12.3899 70.3189Z" fill="white"/>
<path d="M24.8118 70.0365L23.6969 67.3512H18.5776L17.4627 70.0365H13.9766L20.9645 55.0713H21.4356L28.4235 70.0365H24.8118ZM21.1529 61.1484L19.6768 64.7131H22.6133L21.1529 61.1484Z" fill="white"/>
<path d="M40.4681 70.0365L39.3532 67.3512H34.2339L33.119 70.0365H29.6172L36.6051 55.0713H37.0762L44.0642 70.0365H40.4681ZM36.8093 61.1484L35.3332 64.7131H38.2697L36.8093 61.1484Z" fill="white"/>
<path d="M56.4236 68.9056C55.7798 69.3453 55.026 69.675 54.1937 69.9106C53.3458 70.1461 52.4978 70.2717 51.6498 70.2717C50.4407 70.2717 49.3257 70.0833 48.3364 69.6907C47.3471 69.3138 46.4835 68.7799 45.7768 68.089C45.0545 67.4138 44.5048 66.5972 44.1123 65.655C43.7197 64.7128 43.5312 63.7078 43.5312 62.6086C43.5312 61.5093 43.7197 60.4729 44.1123 59.5464C44.5048 58.6042 45.0545 57.8034 45.7768 57.1124C46.4992 56.4372 47.3471 55.9033 48.3364 55.5107C49.3257 55.1338 50.425 54.9297 51.6498 54.9297C52.5135 54.9297 53.3301 55.0553 54.1152 55.2909C54.8847 55.5264 55.6227 55.8405 56.298 56.2331L55.2459 59.1539C54.6962 58.8398 54.1152 58.6042 53.5185 58.4315C52.9218 58.2588 52.3094 58.1646 51.7126 58.1646C51.0217 58.1646 50.3936 58.2588 49.8439 58.4629C49.2786 58.6671 48.8075 58.9654 48.4307 59.3423C48.0538 59.7349 47.7554 60.1903 47.5356 60.7556C47.3314 61.3052 47.2215 61.9333 47.2215 62.6243C47.2215 63.3152 47.3314 63.9276 47.5356 64.4773C47.7397 65.0269 48.0381 65.4823 48.4307 65.8748C48.8232 66.2674 49.2943 66.5501 49.8439 66.7699C50.4093 66.9741 51.0217 67.084 51.7126 67.084C52.3251 67.084 52.9532 66.9898 53.597 66.8013C54.2408 66.6129 54.8533 66.3459 55.4186 65.9848L56.4236 68.9056Z" fill="white"/>
<path d="M68.9987 60.3788C68.9987 61.1483 68.8731 61.8549 68.6219 62.4988C68.3706 63.1426 67.978 63.6922 67.4755 64.1633C66.973 64.6344 66.3449 64.9956 65.5911 65.2625C64.8374 65.5295 63.9737 65.6551 62.9844 65.6551C62.7489 65.6551 62.529 65.6551 62.3406 65.6394C62.1521 65.6394 61.948 65.6237 61.7124 65.608V70.0363H58.2734V55.3381C59.7967 55.1811 61.1785 55.1025 62.4034 55.1025C63.4869 55.1025 64.4291 55.2439 65.2457 55.5108C66.0622 55.7778 66.7532 56.1547 67.3028 56.6258C67.8681 57.0969 68.2921 57.6622 68.5748 58.2903C68.8574 58.9341 68.9987 59.6251 68.9987 60.3788ZM65.4812 60.4416C65.4812 59.8292 65.2771 59.3267 64.8688 58.9184C64.4605 58.5101 63.8324 58.306 62.9844 58.306C62.7489 58.306 62.5447 58.306 62.372 58.3217C62.1992 58.3374 61.9794 58.3531 61.6967 58.3845V62.6087C61.9323 62.6244 62.1364 62.6401 62.2778 62.6401C62.4191 62.6401 62.5761 62.6558 62.7332 62.6558C63.6439 62.6558 64.3349 62.4674 64.7903 62.0905C65.2614 61.7293 65.4812 61.164 65.4812 60.4416Z" fill="white"/>
<path d="M46.2891 18.7344C46.5246 18.8129 46.6974 19.0327 46.7445 19.1113V28.0464H46.2891V18.7344Z" fill="white"/>
<path d="M45.9941 18.7178V28.0612H45.6172V18.8905C45.7428 18.7963 45.8684 18.7335 45.9941 18.7178Z" fill="white"/>
<path d="M26.8203 28.0459H23.6953V19.0322C23.7895 19.0479 23.9309 19.0636 24.0879 19.0793L26.8203 28.0459Z" fill="white"/>
<path d="M32.987 14.8867H36.0177C36.0805 14.8867 36.2375 14.9495 36.2375 15.1066C36.2375 15.2322 36.1433 15.3264 36.0177 15.3264H32.987C32.8613 15.3578 32.7514 15.2008 32.7671 15.1066C32.7671 14.9495 32.9242 14.8867 32.987 14.8867Z" fill="white"/>
<path d="M32.7578 14.3527C32.7735 14.1956 32.9305 14.1328 32.9777 14.1328H36.0084C36.0712 14.1328 36.2282 14.1956 36.2282 14.3527C36.2282 14.4783 36.134 14.5725 36.0084 14.5725H32.9777C32.8677 14.6039 32.7578 14.4626 32.7578 14.3527Z" fill="white"/>
<path d="M32.987 15.6406H36.0177C36.0805 15.6406 36.2375 15.7034 36.2375 15.8605C36.2375 15.9861 36.1433 16.0803 36.0177 16.0803H32.987C32.8613 16.1117 32.7514 15.9547 32.7671 15.8605C32.7671 15.7034 32.9242 15.6406 32.987 15.6406Z" fill="white"/>
<path d="M33.7578 17.368C33.7578 17.1639 33.8363 16.9754 33.9777 16.8341C34.119 16.6928 34.3074 16.6143 34.5116 16.6143C34.7157 16.6143 34.9041 16.6928 35.0455 16.8341C35.1868 16.9754 35.2653 17.1639 35.2653 17.368C35.2653 17.7763 34.9356 18.1218 34.5116 18.1218C34.3074 18.1218 34.119 18.0433 33.9777 17.9019C33.8363 17.7606 33.7578 17.5722 33.7578 17.368Z" fill="white"/>
<path d="M44.9277 19.0793C45.0847 19.0636 45.226 19.0479 45.3203 19.0479V28.0615H42.1953L44.9277 19.0793Z" fill="white"/>
<path d="M36.1016 12.4688C37.7819 11.6836 39.8233 13.0969 39.839 13.1126C42.2887 14.6515 45.131 14.997 45.8848 14.8871C46.0104 14.9185 46.136 14.9028 46.136 15.0127C46.136 15.0284 46.1517 15.154 45.8533 15.2325C42.9482 15.7821 39.4621 13.9135 39.4464 13.8978C37.5463 12.8142 36.5099 13.0027 36.0859 13.1754C36.1173 12.9713 36.133 12.7514 36.1016 12.4688Z" fill="white"/>
<path d="M34.3365 8.63652C34.368 8.55801 34.4151 8.47949 34.4622 8.47949C34.4622 8.47949 34.5564 8.47949 34.6035 8.63652C36.0325 12.0127 35.8912 13.1119 35.687 13.5673C35.5771 13.8029 35.4672 13.8186 35.4672 13.8186H33.4729C33.4729 13.8186 33.3158 13.7872 33.253 13.5673C32.8761 12.1226 33.5828 10.411 34.3365 8.63652Z" fill="white"/>
<path d="M23.1263 14.8714C23.8801 14.9813 26.7067 14.6515 29.1564 13.1126C29.1878 13.0969 31.1664 11.715 32.8309 12.4374C32.7995 12.72 32.8152 12.9556 32.8309 13.1597C32.4226 12.987 31.4176 12.8143 29.5332 13.8821C29.5018 13.8978 26.0314 15.7665 23.142 15.2169C22.9065 15.154 22.8594 15.0127 22.8594 14.997C22.8908 14.9499 22.9693 14.8714 23.1263 14.8714Z" fill="white"/>
<path d="M23.0156 18.7178C23.1413 18.7335 23.2669 18.7963 23.3925 18.8905V28.0612H23.0156V18.7178Z" fill="white"/>
<path d="M22.721 18.7344V28.0464H22.2656V19.1113C22.3127 19.0327 22.4855 18.8129 22.721 18.7344Z" fill="white"/>
<path d="M22.721 32.8199C22.564 32.8041 22.407 32.7727 22.2656 32.7099V31.3438C22.4227 31.3752 22.564 31.3909 22.721 31.4066V32.8199Z" fill="white"/>
<path d="M20.0818 29.8675C19.6421 29.4279 19.3909 28.9411 19.3438 28.4229H26.8342C26.6929 29.8361 25.0126 31.0453 23.0811 31.0453C21.9662 31.0453 20.8199 30.6056 20.0818 29.8675Z" fill="white"/>
<path d="M23.0156 31.422C23.1413 31.422 23.2669 31.422 23.3925 31.4062V32.7724C23.2826 32.7881 23.157 32.8195 23.0156 32.8195V31.422Z" fill="white"/>
<path d="M23.0938 33.1186C23.2508 33.1029 23.5491 33.0558 23.5491 33.0558C25.2137 32.8987 28.3386 31.6425 28.4643 31.5797C31.8719 30.4647 33.3951 31.7681 33.8505 32.3334C34.0232 32.5847 33.9918 32.6946 33.929 32.726C33.8976 32.7103 33.8191 32.726 33.7091 32.5847C33.3637 32.1607 31.9347 30.7788 28.5114 32.0036C28.4957 32.0193 25.1823 33.1814 23.0938 33.1186Z" fill="white"/>
<path d="M25.125 33.2284C26.8524 32.9144 28.5326 32.3334 28.6425 32.2862C31.9873 31.1242 33.4634 32.7573 33.4948 32.773C32.9138 32.5061 30.6996 31.7052 27.983 32.9144C27.9516 32.9301 27.2449 33.2127 25.125 33.2284Z" fill="white"/>
<path d="M28.3281 33.1027C30.9192 32.0663 33.5259 33.1812 33.5573 33.2283C33.5259 33.2126 30.1654 32.8201 28.3281 33.1027Z" fill="white"/>
<path d="M40.4521 35.8507C40.5306 35.8507 40.6091 35.8821 40.672 35.9449C40.7348 36.0077 40.7662 36.0862 40.7662 36.1647V36.8243C40.7662 36.997 40.6249 37.1226 40.4678 37.1226H28.4234C28.3449 37.1226 28.2664 37.0912 28.2036 37.0284C28.1408 36.9656 28.1094 36.8871 28.1094 36.8086V36.149C28.1094 36.0705 28.1408 35.992 28.2036 35.9292C28.2664 35.8664 28.3449 35.835 28.4234 35.835L40.4521 35.8507Z" fill="white"/>
<path d="M37.2934 35.5367H31.7188C32.4411 35.097 33.0535 34.2962 33.242 34.0449H35.7702C35.9586 34.2962 36.571 35.097 37.2934 35.5367Z" fill="white"/>
<path d="M35.5469 33.2125C35.5783 33.1811 38.185 32.0504 40.7761 33.0868C38.9388 32.8199 35.594 33.2125 35.5469 33.2125Z" fill="white"/>
<path d="M41.0588 32.93C38.3264 31.7209 36.1123 32.5375 35.5312 32.7887C35.6255 32.7259 36.8346 31.0456 40.3836 32.3019C40.4935 32.3333 42.158 32.93 43.9011 33.2441C41.7811 33.2127 41.0745 32.93 41.0588 32.93Z" fill="white"/>
<path d="M40.4942 32.0191C37.1337 30.8256 35.689 32.1447 35.3121 32.5844C35.1865 32.8042 35.0923 32.7257 35.0609 32.7414C35.0609 32.6786 35.0295 32.5844 35.108 32.4588C35.4692 31.972 36.9453 30.4173 40.5884 31.6108C40.7141 31.6579 43.7605 32.8985 45.4407 33.0712C45.5664 33.1026 45.7234 33.134 45.9118 33.134C43.8233 33.1811 40.5256 32.0191 40.4942 32.0191Z" fill="white"/>
<path d="M46.0095 32.8351C45.8839 32.8351 45.774 32.8194 45.6641 32.8037V31.4375C45.774 31.4375 45.8839 31.4375 46.0095 31.4375V32.8351Z" fill="white"/>
<path d="M46.7444 32.7256C46.6031 32.7884 46.4617 32.8198 46.3047 32.8355V31.4222C46.446 31.4065 46.6031 31.3908 46.7444 31.3594V32.7256Z" fill="white"/>
<path d="M45.9171 31.0453C44.7865 31.0453 43.6402 30.5899 42.9021 29.8675C42.4624 29.4279 42.2112 28.9411 42.1641 28.4229H49.6545C49.5289 29.8518 47.8329 31.0453 45.9171 31.0453Z" fill="white"/>
<path d="M13.1099 27.339C13.5967 27.2761 13.7067 27.2447 13.8009 27.1348C13.8794 27.0563 13.9108 26.9307 13.8951 26.805C13.8794 26.6637 13.8166 26.5695 13.7224 26.5067C13.5967 26.4282 13.4868 26.4125 13 26.4753C12.5132 26.5381 12.4033 26.5695 12.3091 26.6794C12.2306 26.7579 12.1992 26.8679 12.2149 27.0092C12.2306 27.1505 12.2934 27.2447 12.3876 27.3076C12.5132 27.3861 12.6389 27.4018 13.1099 27.339Z" fill="white"/>
<path d="M13.473 21.5763L13.5672 20.9639L12.625 21.1366L13.473 21.5763Z" fill="white"/>
<path d="M53.8878 18.0117C53.9349 18.1373 54.0134 18.2315 54.1077 18.2629C54.2333 18.3257 54.3589 18.31 54.8143 18.1687C55.2697 18.0274 55.3796 17.9646 55.4424 17.8389C55.5053 17.7447 55.521 17.6191 55.4738 17.4935C55.4267 17.3678 55.3482 17.2736 55.254 17.2265C55.1284 17.1637 55.0027 17.1794 54.5474 17.3207C54.092 17.4621 53.982 17.5249 53.9035 17.6505C53.8564 17.7604 53.8407 17.8861 53.8878 18.0117Z" fill="white"/>
<path d="M45.238 41.9122C45.1438 41.8808 45.0181 41.8965 44.8925 41.9593C44.7826 42.0221 44.7041 42.132 44.6884 42.242C44.657 42.3833 44.7041 42.4932 44.9396 42.9172C45.1909 43.3255 45.2694 43.4197 45.4107 43.4511C45.5049 43.4825 45.6306 43.4668 45.7405 43.404C45.8504 43.3412 45.9289 43.2313 45.9446 43.1213C45.976 42.98 45.9289 42.8701 45.6777 42.4618C45.4578 42.0378 45.3793 41.9593 45.238 41.9122Z" fill="white"/>
<path d="M43.0224 44.3929C43.1009 44.5814 43.2894 44.6442 43.4935 44.55L43.9175 44.3615L43.6348 43.7334L43.2109 43.9218C43.0224 44.0318 42.9439 44.2045 43.0224 44.3929Z" fill="white"/>
<path d="M14.3828 33.4476L15.3407 33.3534L15.0738 32.7881L14.3828 33.4476Z" fill="white"/>
<path d="M17.9453 38.9123L18.8404 38.5355L18.4164 38.0801L17.9453 38.9123Z" fill="white"/>
<path d="M22.1531 41.0797C22.0117 41.1111 21.9175 41.1896 21.6505 41.5822C21.3679 41.9748 21.3208 42.0847 21.3522 42.226C21.3679 42.3359 21.415 42.4459 21.5249 42.5244C21.6348 42.6029 21.7605 42.6186 21.8704 42.6029C22.0117 42.5715 22.0902 42.493 22.3729 42.1004C22.6556 41.7078 22.7027 41.5979 22.687 41.4566C22.6713 41.3466 22.6084 41.2367 22.4985 41.1582C22.3886 41.0797 22.263 41.064 22.1531 41.0797Z" fill="white"/>
<path d="M48.8992 40.6398C49.0406 40.7811 49.2447 40.7968 49.4017 40.6398L49.7315 40.3257L49.2604 39.8232L48.9306 40.1373C48.7579 40.2943 48.7579 40.4985 48.8992 40.6398Z" fill="white"/>
<path d="M26.4922 44.8016L27.1203 44.0636L26.5236 43.8438L26.4922 44.8016Z" fill="white"/>
<path d="M55.6636 25.9415C55.1768 25.8944 55.0669 25.9101 54.9413 25.9886C54.8471 26.0515 54.7843 26.1614 54.7843 26.287C54.7686 26.4283 54.8157 26.5383 54.8942 26.6168C54.9884 26.7267 55.0983 26.7581 55.5851 26.8052C56.0719 26.8523 56.1818 26.8366 56.3075 26.7424C56.386 26.6796 56.4488 26.5697 56.4645 26.444C56.4802 26.3027 56.4331 26.1928 56.3546 26.1143C56.2604 26.0201 56.1504 25.9886 55.6636 25.9415Z" fill="white"/>
<path d="M21.3402 6.67383C21.2145 6.5168 21.0261 6.50109 20.8534 6.62672L20.4922 6.90938L20.9005 7.44329L21.2616 7.16063C21.4344 7.0193 21.4658 6.83086 21.3402 6.67383Z" fill="white"/>
<path d="M54.6771 33.2593L54.8655 32.8353L54.2531 32.5684L54.0647 32.9923C53.9862 33.1965 54.049 33.3692 54.2217 33.4477C54.4101 33.5263 54.5829 33.4477 54.6771 33.2593Z" fill="white"/>
<path d="M33.3841 2.41797L33.1172 3.34446L33.7296 3.31305L33.3841 2.41797Z" fill="white"/>
<path d="M19.7549 9.59424C19.8648 9.59424 19.9747 9.56283 20.0846 9.46861C20.1788 9.37439 20.2259 9.26447 20.2259 9.15455C20.2259 9.01322 20.1631 8.90329 19.8177 8.55782C19.4879 8.21235 19.378 8.14954 19.2366 8.13384C19.1267 8.11813 19.0168 8.16524 18.9226 8.25946C18.8284 8.35368 18.7812 8.4636 18.7812 8.57353C18.7812 8.71485 18.8441 8.80907 19.1895 9.17025C19.535 9.53142 19.6135 9.59424 19.7549 9.59424Z" fill="white"/>
<path d="M36.2232 2.98379C36.2546 2.60692 36.2389 2.44989 36.1604 2.32426C36.0819 2.21434 35.972 2.15152 35.7992 2.15152L35.438 2.12012L35.3281 3.75325L35.6893 3.78466C35.862 3.80036 35.972 3.75325 36.0662 3.65903C36.1761 3.54911 36.1918 3.36067 36.2232 2.98379Z" fill="white"/>
<path d="M54.896 30.2133C54.4406 30.072 54.3149 30.0563 54.1893 30.1191C54.0951 30.1662 54.0009 30.2604 53.9695 30.3861C53.9381 30.5117 53.9538 30.6373 54.0009 30.7315C54.0794 30.8571 54.1736 30.92 54.6447 31.0613C55.1158 31.2026 55.2257 31.2026 55.3513 31.1555C55.4456 31.1084 55.5241 31.0142 55.5712 30.8886C55.6183 30.7629 55.5869 30.6373 55.5398 30.5431C55.4613 30.4018 55.3671 30.3546 54.896 30.2133Z" fill="white"/>
<path d="M40.1512 3.1875L39.6016 3.98836L40.1983 4.1454L40.1512 3.1875Z" fill="white"/>
<path d="M50.9362 36.7299C50.9676 36.8713 51.1089 36.9812 51.423 37.2167C51.737 37.4366 51.8627 37.5151 52.0197 37.5151C52.161 37.5151 52.2552 37.4523 52.3652 37.3109L52.585 37.0126L51.2502 36.0547L51.0304 36.353C50.9205 36.4787 50.9048 36.6043 50.9362 36.7299Z" fill="white"/>
<path d="M34.3087 0C20.8824 0 9.98438 10.8823 9.98438 24.3243C9.98438 37.7663 20.8824 48.6329 34.3087 48.6329C47.7349 48.6329 58.633 37.7506 58.633 24.3086C58.633 10.8666 47.7506 0 34.3087 0ZM56.9998 24.1045C56.9998 24.5756 56.7486 24.9367 56.2147 25.0467V24.5442C56.4188 24.497 56.5759 24.3714 56.5602 24.1202C56.5602 23.9788 56.513 23.8846 56.4188 23.8061C56.3089 23.7119 56.199 23.6805 55.7122 23.6962C55.2254 23.6962 55.1155 23.7276 55.0055 23.8218C54.927 23.8846 54.8799 24.0102 54.8799 24.1359C54.8799 24.3871 55.0369 24.5127 55.2411 24.5599V25.0624C54.7072 24.9838 54.4402 24.6227 54.4402 24.1516C54.4402 23.8689 54.5344 23.6491 54.7072 23.4763C54.9584 23.2251 55.2725 23.2251 55.7122 23.2251C56.1519 23.2251 56.4659 23.2094 56.7172 23.4606C56.8899 23.602 56.9841 23.8218 56.9998 24.1045ZM56.6701 20.5555L56.2461 20.6498L56.0105 19.5034L55.4138 19.629L55.618 20.6026L55.194 20.6969L54.9898 19.7233L53.9848 19.9274L53.8906 19.4406L56.356 18.9224L56.6701 20.5555ZM55.4295 16.8025C55.6494 16.9124 55.8064 17.1008 55.9006 17.3678C55.9948 17.6347 55.9634 17.8703 55.8535 18.0901C55.6965 18.4042 55.3824 18.4984 54.9741 18.6397C54.5658 18.7654 54.2675 18.8753 53.9377 18.7025C53.7179 18.5926 53.5608 18.4199 53.4666 18.1372C53.3724 17.8703 53.4038 17.619 53.5137 17.3992C53.6708 17.0851 53.9848 16.9909 54.3931 16.8653C54.8171 16.7396 55.1155 16.6297 55.4295 16.8025ZM54.5658 14.0858L54.189 14.3056L53.8749 13.7246L52.069 14.7296L51.8335 14.3056L53.6551 13.3006L53.341 12.7196L53.7179 12.4998L54.5658 14.0858ZM52.493 10.7881L51.8178 12.4841L53.074 11.589L53.3567 11.9816L51.2996 13.442L51.0483 13.0808L51.7236 11.3691L50.4673 12.2642L50.1846 11.8559L52.2261 10.3955L52.493 10.7881ZM51.8021 9.87733L51.4723 10.1757L50.7029 9.31202L50.2632 9.7046L50.9227 10.4426L50.5929 10.741L49.9334 10.003L49.478 10.4112L50.2632 11.2749L49.9334 11.5733L48.8342 10.3327L50.7029 8.65248L51.8021 9.87733ZM48.7871 6.87802L48.3788 8.33842L49.7607 7.74169L50.1218 8.05576L48.4573 9.94015L48.0961 9.61038L49.0697 8.51115L48.0804 8.90373L47.8292 8.68389L48.0961 7.64747L47.1225 8.7467L46.7613 8.41693L48.4259 6.53254L48.7871 6.87802ZM47.8606 6.12426L47.6093 6.48544L46.6514 5.8259L46.3217 6.3127L47.1382 6.87802L46.887 7.23919L46.0704 6.67387L45.7249 7.17638L46.6828 7.83591L46.4316 8.19709L45.0654 7.25489L46.4944 5.18207L47.8606 6.12426ZM44.4373 4.31839C44.6728 4.23987 44.9241 4.27128 45.1596 4.3969C45.5679 4.61675 45.772 5.02503 45.5993 5.54324L45.1596 5.30769C45.2067 5.10355 45.1753 4.91511 44.9555 4.78949C44.8298 4.72667 44.7199 4.71097 44.61 4.75808C44.4687 4.80519 44.3902 4.89941 44.1546 5.3234C43.9191 5.74738 43.8877 5.87301 43.9191 5.99863C43.9348 6.10856 44.0133 6.20278 44.1389 6.26559C44.3587 6.39122 44.5472 6.3127 44.6885 6.15567L45.1282 6.39122C44.7984 6.8152 44.343 6.87802 43.9348 6.64247C43.6992 6.50114 43.5422 6.3127 43.4794 6.07715C43.3694 5.73168 43.5265 5.46473 43.7463 5.07214C43.9505 4.69527 44.0918 4.41261 44.4373 4.31839ZM41.909 2.9365L42.3173 3.09354L42.6628 4.89941L43.2438 3.47041L43.6992 3.65885L42.757 5.98293L42.3487 5.8259L42.0033 4.02003L41.4222 5.44902L40.9668 5.26058L41.909 2.9365ZM40.5272 2.52822L40.747 5.19777L40.2602 5.05644L40.2288 4.58534L39.3651 4.3498L39.0982 4.74238L38.6114 4.60105L40.166 2.4183L40.5272 2.52822ZM37.6849 1.90009L37.9047 3.59604L38.6742 2.07283L39.1767 2.15134L37.9361 4.49112L37.575 4.42831L37.1824 1.80587L37.6849 1.90009ZM34.9682 1.64884L35.879 1.71165C36.146 1.72736 36.3658 1.82157 36.5228 1.99431C36.7898 2.29267 36.7427 2.63814 36.7113 3.01502C36.6799 3.3919 36.6956 3.75307 36.3815 4.02003C36.2088 4.17706 35.9575 4.23987 35.7063 4.20847L34.7955 4.14565L34.9682 1.64884ZM33.1466 1.68025L33.5235 1.66454L34.5442 4.12995L34.0417 4.14565L33.869 3.70596L32.9739 3.73737L32.8326 4.19276L32.3458 4.23987L33.1466 1.68025ZM29.7547 2.10423L29.8647 2.52822L28.734 2.81088L28.8754 3.3919L29.8333 3.14065L29.9432 3.56463L28.9853 3.80018L29.1266 4.3969L30.2572 4.11425L30.3672 4.53823L28.7654 4.93081L28.1687 2.48111L29.7547 2.10423ZM26.1273 3.17205L26.4728 4.14565L27.2736 3.84729L26.9125 2.88939L27.3679 2.71666L28.2315 5.07214L27.7761 5.24488L27.415 4.25558L26.6141 4.53823L26.9753 5.52754L26.5199 5.70027L25.6562 3.34479L26.1273 3.17205ZM25.1066 3.58034L25.295 3.97292L24.6983 4.25558L25.6091 6.12426L25.1694 6.34411L24.2586 4.47542L23.6619 4.75808L23.4735 4.3655L25.1066 3.58034ZM20.6155 6.24989C21.0237 5.93582 21.4791 6.03004 21.7304 6.35981C21.9502 6.64247 21.9031 6.94083 21.7618 7.16067L22.861 7.67888L22.4056 8.02435L21.4006 7.52185L21.118 7.74169L21.7304 8.54256L21.3378 8.84092L19.8146 6.84661L20.6155 6.24989ZM18.6054 7.94584C18.8096 7.74169 19.0294 7.66318 19.2807 7.67888C19.6419 7.67888 19.8617 7.91443 20.1601 8.22849C20.4584 8.54256 20.6783 8.7624 20.6783 9.12358C20.6783 9.37483 20.5841 9.59468 20.3799 9.78311C20.1758 9.98726 19.9402 10.0658 19.689 10.0658C19.3278 10.0658 19.1237 9.83022 18.8253 9.51616C18.5269 9.20209 18.3071 8.98225 18.3071 8.62107C18.3071 8.36982 18.4013 8.14998 18.6054 7.94584ZM17.6318 8.95084L17.9616 9.2335L17.2079 10.1286L17.679 10.5212L18.3228 9.76741L18.6526 10.0501L18.0087 10.8038L18.7939 11.4634L18.4798 11.8402L16.564 10.2071L17.6318 8.95084ZM14.2557 13.7403L16.0929 13.6304L14.7425 12.8767L14.978 12.4527L17.1765 13.6775L16.9566 14.0544L15.1193 14.1643L16.4698 14.9181L16.2343 15.3421L14.0358 14.1172L14.2557 13.7403ZM13.3449 15.6247C13.4548 15.3578 13.6275 15.2007 13.8631 15.1065C14.1928 14.9652 14.4755 15.0908 14.8838 15.2635C15.2921 15.4206 15.5747 15.5462 15.7161 15.876C15.8103 16.1115 15.826 16.3471 15.7161 16.5983C15.6061 16.8653 15.4334 17.0223 15.1978 17.1165C14.8681 17.2579 14.5697 17.1322 14.1771 16.9595C13.7846 16.7868 13.4862 16.6768 13.3449 16.3471C13.2506 16.1272 13.2506 15.8917 13.3449 15.6247ZM12.811 17.1165L15.1978 17.886L15.0565 18.3571L12.6696 17.5876L12.811 17.1165ZM12.4969 18.1058L12.9209 18.2157L12.7638 18.8596L14.7896 19.3464L14.6796 19.8175L12.6539 19.315L12.4969 19.9588L12.0729 19.8489L12.4969 18.1058ZM11.9159 20.8539L14.5383 20.3043L14.4598 20.8068L14.0044 20.8853L13.8788 21.7647L14.2871 21.9845L14.2085 22.487L11.8531 21.2151L11.9159 20.8539ZM11.7117 22.597L14.2242 22.754L14.1928 23.2408L11.6803 23.0838L11.7117 22.597ZM12.4027 23.6491V24.1516C12.1985 24.1987 12.0415 24.34 12.0572 24.5756C12.0572 24.7169 12.1043 24.8111 12.1985 24.8896C12.3085 24.9838 12.4341 25.0152 12.9052 24.9995C13.392 24.9995 13.5019 24.9681 13.6118 24.8739C13.6903 24.7954 13.7374 24.6855 13.7374 24.5599C13.7374 24.3086 13.5804 24.183 13.3763 24.1359V23.6334C13.9102 23.7119 14.1771 24.0731 14.1771 24.5442C14.1771 24.8268 14.0829 25.0467 13.9102 25.2194C13.6589 25.4706 13.3449 25.4706 12.9052 25.4863C12.4655 25.4863 12.1514 25.5021 11.9002 25.2508C11.7274 25.0781 11.6175 24.8582 11.6175 24.5756C11.6175 24.1202 11.8845 23.7433 12.4027 23.6491ZM11.7902 27.0567C11.7588 26.774 11.8217 26.5542 11.9787 26.35C12.1985 26.0674 12.5126 26.036 12.9523 25.9888C13.3763 25.9417 13.6903 25.8946 13.973 26.1145C14.1771 26.2715 14.2871 26.4756 14.3342 26.7583C14.3656 27.041 14.3028 27.2765 14.1457 27.465C13.9259 27.7476 13.6118 27.779 13.1878 27.8261C12.7481 27.8732 12.4498 27.9203 12.1671 27.7005C11.9473 27.5435 11.8217 27.3393 11.7902 27.0567ZM12.1985 29.4122C12.12 29.0667 12.1514 28.8154 12.3085 28.5485L12.6696 28.784C12.5597 28.9725 12.5754 29.1609 12.6225 29.3179C12.6853 29.5692 12.8581 29.6634 13.0151 29.632C13.0779 29.6163 13.1407 29.5849 13.1721 29.5221C13.2035 29.4593 13.2192 29.3807 13.2192 29.2708L13.1878 28.9725C13.1721 28.7369 13.1878 28.5799 13.2664 28.4543C13.3606 28.2972 13.5333 28.203 13.7374 28.1402C14.2085 28.0303 14.5697 28.36 14.6953 28.8782C14.7739 29.2551 14.7582 29.5535 14.5697 29.8518L14.1928 29.6163C14.3185 29.4279 14.3185 29.208 14.2557 28.9725C14.1928 28.6898 14.0515 28.5642 13.8474 28.6113C13.7689 28.627 13.6903 28.6741 13.6589 28.7369C13.6275 28.7997 13.6118 28.8625 13.6275 28.9725L13.6589 29.2708C13.6746 29.4907 13.6432 29.6634 13.5647 29.789C13.4705 29.9304 13.3292 30.0246 13.125 30.0717C12.701 30.1816 12.3242 29.9304 12.1985 29.4122ZM12.811 31.5792C12.701 31.2494 12.701 30.9825 12.8267 30.7155L13.2192 30.9197C13.125 31.1238 13.1721 31.3122 13.2192 31.4693C13.2978 31.7205 13.4862 31.799 13.6432 31.7362C13.706 31.7205 13.7532 31.6734 13.7846 31.6106C13.816 31.5478 13.816 31.4536 13.8003 31.3594L13.7374 31.061C13.6903 30.8411 13.706 30.6684 13.7689 30.5428C13.8474 30.3701 14.0044 30.2601 14.2085 30.1816C14.6639 30.0246 15.0565 30.3229 15.2293 30.8254C15.3549 31.1866 15.3706 31.485 15.2136 31.799L14.8053 31.5949C14.8995 31.3908 14.8838 31.1709 14.8053 30.9511C14.711 30.6684 14.554 30.5585 14.3656 30.6213C14.2871 30.6527 14.2242 30.6998 14.1928 30.7626C14.1614 30.8254 14.1614 30.8883 14.1771 30.9982L14.24 31.2965C14.2714 31.5164 14.2714 31.6891 14.1928 31.8305C14.1143 31.9875 13.9887 32.0974 13.7846 32.1602C13.392 32.3015 12.9837 32.0817 12.811 31.5792ZM13.6275 33.5892L15.5276 31.7048L15.7475 32.1759L15.402 32.49L15.7789 33.3066L16.25 33.2594L16.4698 33.7305L13.8003 33.9504L13.6275 33.5892ZM16.3599 38.1746L16.0772 37.782L17.7575 36.5571L17.0822 35.6306L17.4434 35.3794L18.4013 36.6985L16.3599 38.1746ZM17.2707 39.2738L18.5269 36.9183L18.8724 37.2952L18.6369 37.7035L19.2336 38.363L19.6733 38.1746L20.0187 38.5514L17.5376 39.5407L17.2707 39.2738ZM19.6262 41.5979L19.9088 39.792L18.8881 40.9383L18.5269 40.6086L20.1915 38.7242L20.5212 39.0225L20.2386 40.8441L21.2593 39.6821L21.6205 40.0118L19.9559 41.8962L19.6262 41.5979ZM21.9816 43.0583C21.7304 43.1054 21.4948 43.0583 21.2593 42.8855C21.0237 42.7128 20.8981 42.5087 20.8667 42.2731C20.8039 41.9119 20.9923 41.6607 21.2436 41.3152C21.4948 40.954 21.6676 40.7028 22.0288 40.64C22.28 40.5929 22.5156 40.64 22.7354 40.797C22.9552 40.954 23.0966 41.1739 23.128 41.4094C23.1908 41.7706 23.0024 42.0218 22.7511 42.3673C22.5156 42.7285 22.3428 42.9955 21.9816 43.0583ZM22.6098 43.7335L23.8817 41.5665L24.3057 41.8177L23.0338 43.9848L22.6098 43.7335ZM25.3107 44.6757L25.1223 45.0683L23.5049 44.2674L23.6933 43.8748L24.29 44.1732L25.2008 42.3045L25.6405 42.5244L24.7297 44.393L25.3107 44.6757ZM26.0488 45.4295L26.0802 42.7442L26.5513 42.9326L26.5356 43.4037L27.3679 43.7178L27.6662 43.3566L28.1373 43.5451L26.3943 45.5708L26.0488 45.4295ZM29.6448 46.5287L29.2208 46.4188L28.6398 44.6757L28.2629 46.1675L27.7918 46.0419L28.4043 43.6079L28.8283 43.7178L29.4093 45.4609L29.7861 43.9691L30.2572 44.0947L29.6448 46.5287ZM15.9359 24.3243C15.9359 14.18 24.1644 5.93582 34.3244 5.93582C44.4844 5.93582 52.7129 14.1643 52.7129 24.3243C52.7129 34.4843 44.4844 42.7128 34.3244 42.7128C24.1644 42.7128 15.9359 34.4686 15.9359 24.3243ZM38.6114 46.5915L38.5171 46.1675L39.6478 45.9005L39.5064 45.3195L38.5486 45.5394L38.4543 45.1154L39.4279 44.8955L39.2866 44.2988L38.156 44.5658L38.0618 44.1418L39.6792 43.7649L40.2445 46.2146L38.6114 46.5915ZM41.8776 45.6964L41.2024 43.7335L40.1189 44.0947L39.9775 43.6864L41.5165 43.1525L42.333 45.5394L41.8776 45.6964ZM43.6678 44.9741C43.1967 45.1939 42.757 44.9898 42.5843 44.6129C42.4115 44.2203 42.5372 43.7649 43.0083 43.5608L43.448 43.3566L43.0554 42.4929L43.4951 42.2888L44.5472 44.5658L43.6678 44.9741ZM45.9919 43.7806C45.7406 43.9219 45.5051 43.9533 45.2695 43.8905C44.9241 43.812 44.767 43.5294 44.5315 43.1682C44.3116 42.7913 44.1389 42.5244 44.2331 42.1789C44.2959 41.9433 44.4216 41.7392 44.6728 41.5979C44.9241 41.4565 45.1596 41.4251 45.3952 41.4879C45.7406 41.5822 45.8977 41.8491 46.1175 42.226C46.3374 42.6029 46.5101 42.8698 46.4159 43.2153C46.3688 43.4351 46.2431 43.6236 45.9919 43.7806ZM47.2795 42.9326L47.0126 42.5872L47.9391 41.8805L47.5779 41.4094L46.7927 42.0061L46.5258 41.6607L47.3267 41.064L46.9498 40.5772L46.0233 41.2838L45.7563 40.9383L47.0754 39.9333L48.5986 41.9433L47.2795 42.9326ZM49.6821 40.9854C49.3053 41.3466 48.8342 41.2995 48.5358 40.9854C48.2374 40.6714 48.2217 40.2003 48.5986 39.8391L48.9598 39.5093L48.316 38.8184L48.6771 38.4886L50.4045 40.3259L49.6821 40.9854ZM52.6815 37.5935C52.5244 37.8134 52.3203 37.9547 52.1004 37.9861C51.7079 38.0489 51.4409 37.8291 51.1425 37.6092C50.8442 37.3894 50.5144 37.201 50.4516 36.8084C50.4202 36.5728 50.4987 36.3373 50.64 36.1331L51.1739 35.3951L53.2154 36.8712L52.6815 37.5935ZM53.5765 36.2745L53.1997 36.0546L53.7807 35.0496L53.2625 34.7513L52.7757 35.6149L52.3988 35.3951L52.8856 34.5314L52.3517 34.233L51.7707 35.2381L51.3938 35.0182L52.2104 33.5735L54.3931 34.8141L53.5765 36.2745ZM55.0526 33.4636C54.8485 33.9347 54.4088 34.076 54.0162 33.9033C53.6865 33.7619 53.5765 33.4793 53.5922 33.2123L52.3674 33.2909L52.5872 32.7726L53.7022 32.7255L53.8435 32.3958L52.917 32.0032L53.1054 31.5478L55.4138 32.5528L55.0526 33.4636ZM55.9948 30.9982C55.9163 31.2808 55.7593 31.4536 55.5394 31.5635C55.2254 31.7362 54.927 31.642 54.503 31.5007C54.0947 31.3751 53.7807 31.2808 53.6237 30.9668C53.5137 30.7469 53.4823 30.5114 53.5608 30.2444C53.6394 29.9775 53.7964 29.789 54.0319 29.6791C54.346 29.5064 54.6444 29.6163 55.0684 29.7419C55.4766 29.8675 55.7907 29.9618 55.9477 30.2758C56.042 30.4957 56.0734 30.7312 55.9948 30.9982ZM56.5759 28.5956L54.5344 28.1873L54.3146 29.3022L53.8906 29.208L54.2204 27.6063L56.6858 28.1088L56.5759 28.5956ZM56.5602 27.1509C56.2775 27.3864 55.9634 27.3393 55.5394 27.3079C55.0998 27.2608 54.8014 27.2451 54.5658 26.9625C54.4088 26.774 54.3303 26.5385 54.346 26.2558C54.3774 25.9731 54.4873 25.7533 54.6915 25.612C54.9741 25.3764 55.2882 25.4235 55.7122 25.4549C56.1362 25.4863 56.4659 25.5178 56.6858 25.8004C56.8428 25.9888 56.9213 26.2244 56.8899 26.5071C56.8585 26.774 56.7486 26.9782 56.5602 27.1509Z" fill="white"/>
<path d="M14.3665 16.5194C14.8062 16.7079 14.9318 16.7236 15.0575 16.6765C15.1674 16.6451 15.2616 16.5508 15.3087 16.4409C15.3558 16.3153 15.3558 16.1897 15.3087 16.0954C15.2459 15.9698 15.1517 15.8913 14.712 15.7186C14.2723 15.5301 14.1467 15.5144 14.0053 15.5615C13.9111 15.5929 13.8169 15.6715 13.7541 15.7971C13.707 15.9227 13.707 16.0483 13.7541 16.1426C13.8169 16.2682 13.9111 16.331 14.3665 16.5194Z" fill="white"/>
<path d="M37.1813 27.7158C37.0085 27.7158 36.8672 27.8571 36.8672 28.077C36.8672 28.2968 36.9928 28.4382 37.1813 28.4382C37.354 28.4382 37.4953 28.3125 37.4953 28.077C37.4953 27.8571 37.3697 27.7158 37.1813 27.7158Z" fill="white"/>
<path d="M33.4938 27.7158C33.321 27.7158 33.1797 27.8571 33.1797 28.077C33.1797 28.2968 33.3053 28.4382 33.4938 28.4382C33.6665 28.4382 33.8078 28.3125 33.8078 28.077C33.8078 27.8571 33.6822 27.7158 33.4938 27.7158Z" fill="white"/>
<path d="M35.3296 27.7158C35.1569 27.7158 35.0312 27.8414 35.0312 28.0613V29.0977C35.0312 29.3018 35.1569 29.4275 35.3296 29.4275C35.5023 29.4275 35.628 29.3018 35.628 29.0977V28.0613C35.628 27.8571 35.5023 27.7158 35.3296 27.7158Z" fill="white"/>
<path d="M35.2969 25.4082V26.162H35.4696C35.5481 26.162 35.5952 26.1306 35.6266 26.0834C35.6738 26.0363 35.6738 25.9421 35.6738 25.7694C35.6738 25.5966 35.6738 25.5181 35.6266 25.471C35.5952 25.4239 35.5324 25.4082 35.4696 25.4082H35.2969Z" fill="white"/>
<path d="M31.6895 21.2617L31.2812 22.4866H32.0978L31.6895 21.2617Z" fill="white"/>
<path d="M34.9083 21.2617L34.5 22.4866H35.3166L34.9083 21.2617Z" fill="white"/>
<path d="M32.2509 25.3926C32.1881 25.3926 32.141 25.4083 32.1096 25.4554C32.0625 25.5025 32.0625 25.5496 32.0625 25.7852C32.0625 26.0207 32.0782 26.0678 32.1096 26.1149C32.141 26.1463 32.1881 26.1777 32.2509 26.1777C32.3138 26.1777 32.3609 26.1463 32.3923 26.1149C32.4394 26.0678 32.4551 26.0207 32.4551 25.7852C32.4551 25.5496 32.4394 25.5025 32.3923 25.4554C32.3609 25.424 32.3138 25.3926 32.2509 25.3926Z" fill="white"/>
<path d="M42.6335 30.1345C42.0682 29.5691 41.7698 28.9096 41.7698 28.2344V28.0459H41.864L44.5807 19.0951C43.8583 19.1108 42.8219 19.0637 42.0054 18.6397C41.974 18.624 39.1317 17.0066 35.5199 17.6504C35.4728 17.8231 35.3786 17.9959 35.2373 18.1372C35.0331 18.3413 34.7662 18.4513 34.4835 18.4513C34.2009 18.4513 33.9339 18.3413 33.7298 18.1372C33.5884 17.9959 33.4942 17.8388 33.4471 17.6504C29.8354 17.0223 26.9931 18.624 26.9617 18.6554C26.1608 19.0794 25.1244 19.1265 24.402 19.1108L27.1187 28.0616H27.2129V28.2501C27.2129 28.9253 26.9146 29.5848 26.3492 30.1502C25.674 30.8254 24.7004 31.2808 23.6797 31.4064V32.7569C25.3442 32.5371 28.3121 31.3279 28.3593 31.3122C32.7719 29.8675 34.2637 32.3957 34.2637 32.4114C34.2637 32.4114 34.3736 32.5685 34.5149 32.8354C34.6562 32.5685 34.7505 32.4114 34.7505 32.4114C34.7505 32.4114 36.1323 29.9303 40.6706 31.3122C40.702 31.3279 43.6542 32.5056 45.3187 32.7412V31.4064C44.3137 31.2808 43.3244 30.8254 42.6335 30.1345ZM34.6405 20.2728H35.143L36.3365 23.649H35.6613L35.4728 23.0523H34.3108L34.1066 23.649H33.4471L34.6405 20.2728ZM35.8811 25.769C35.8811 25.9417 35.8968 26.1144 35.7712 26.2401C35.6927 26.3186 35.5827 26.35 35.4728 26.35H35.0645V25.2036H35.4728C35.5827 25.2036 35.6927 25.235 35.7712 25.3136C35.8968 25.4392 35.8811 25.6119 35.8811 25.769ZM33.2901 26.1615C33.4157 26.1615 33.4942 26.083 33.4942 25.9417V25.1879H33.7141V25.9417C33.7141 26.1929 33.5256 26.35 33.3058 26.35C33.0702 26.35 32.8975 26.1929 32.8975 25.9417V25.1879H33.1173V25.9417C33.1016 26.083 33.1801 26.1615 33.2901 26.1615ZM29.8354 23.649H29.2543L27.951 21.5762V23.649H27.3071V20.2728H27.8882L29.1915 22.33V20.2728H29.8354V23.649ZM30.2279 23.649L31.4214 20.2728H31.9239L33.1173 23.649H32.4421L32.2537 23.0523H31.0916L30.8875 23.649H30.2279ZM30.9817 25.2036H31.7197V25.4078H31.2015V25.6904H31.6412V25.8946H31.2015V26.3657H30.9817V25.2036ZM32.0024 29.8204H31.5627V27.8261L31.0759 28.2658V27.779L31.5627 27.3393H32.0024V29.8204ZM32.5677 26.2401C32.4892 26.3186 32.395 26.3657 32.2694 26.3657C32.1437 26.3657 32.0495 26.3186 31.971 26.2401C31.8611 26.1301 31.8611 25.9731 31.8611 25.7847C31.8611 25.5805 31.8611 25.4392 31.971 25.3293C32.0495 25.2508 32.1437 25.2036 32.2694 25.2036C32.395 25.2036 32.4892 25.2508 32.5677 25.3293C32.6776 25.4549 32.6776 25.5962 32.6776 25.7847C32.6776 25.9731 32.6776 26.1301 32.5677 26.2401ZM34.0438 28.7526L33.5256 29.8204H33.0545L33.557 28.7997C33.4942 28.8154 33.4314 28.8311 33.3843 28.8311C33.0545 28.8311 32.7405 28.5484 32.7405 28.093C32.7405 27.6062 33.0702 27.3236 33.4942 27.3236C33.9182 27.3236 34.248 27.6062 34.248 28.093C34.248 28.3129 34.1537 28.517 34.0438 28.7526ZM34.1694 25.6433V26.35H33.9496V25.2036H34.138L34.5777 25.9103V25.2036H34.7976V26.35H34.6091L34.1694 25.6433ZM36.0695 29.098C36.0695 29.5691 35.7241 29.8361 35.3315 29.8361C34.9389 29.8361 34.5934 29.5691 34.5934 29.098V28.0459C34.5934 27.5748 34.9389 27.3079 35.3315 27.3079C35.7241 27.3079 36.0695 27.5748 36.0695 28.0459V29.098ZM36.1166 25.2036H36.8547V25.4078H36.3365V25.6747H36.7762V25.8789H36.3365V26.1615H36.8547V26.3657H36.1166V25.2036ZM37.7341 28.7526L37.2159 29.8204H36.7448L37.2473 28.7997C37.1845 28.8154 37.1217 28.8311 37.0745 28.8311C36.7448 28.8311 36.4307 28.5484 36.4307 28.093C36.4307 27.6062 36.7605 27.3236 37.1845 27.3236C37.6085 27.3236 37.9382 27.6062 37.9382 28.093C37.9382 28.3129 37.844 28.517 37.7341 28.7526ZM37.0745 26.35V25.2036H37.4828C37.5927 25.2036 37.7027 25.235 37.7812 25.3136C37.9068 25.4392 37.8911 25.5962 37.8911 25.769C37.8911 25.9417 37.9068 26.1144 37.7812 26.2401C37.7027 26.3186 37.6085 26.35 37.4828 26.35H37.0745ZM37.4043 22.911C37.4985 23.0209 37.6399 23.0837 37.8126 23.0837C38.1267 23.0837 38.2994 22.8796 38.3622 22.6126H39.006C38.8961 23.3193 38.4093 23.6804 37.7969 23.6804C37.4357 23.6804 37.1374 23.5391 36.9175 23.3036C36.5877 22.9581 36.5877 22.5498 36.5877 21.9531C36.5877 21.3721 36.572 20.9481 36.9175 20.6026C37.1531 20.367 37.4357 20.2414 37.7969 20.2414C38.4093 20.2414 38.8804 20.6026 39.006 21.3092H38.3622C38.2994 21.0423 38.1267 20.8381 37.8126 20.8381C37.6399 20.8381 37.4985 20.901 37.4043 21.0109C37.2787 21.1522 37.2473 21.3092 37.2473 21.9531C37.2316 22.6126 37.2787 22.7696 37.4043 22.911ZM40.6549 22.3771H40.0268V23.649H39.3829V20.2728H40.6549C41.3301 20.2728 41.7384 20.7596 41.7384 21.3249C41.7384 21.906 41.3301 22.3771 40.6549 22.3771Z" fill="white"/>
<path d="M37.6659 25.7851C37.6659 25.6123 37.6659 25.5338 37.6188 25.4867C37.5717 25.4396 37.5246 25.4082 37.4461 25.4082H37.2891V26.162H37.4461C37.5246 26.162 37.5717 26.1306 37.6188 26.0991C37.6502 26.0363 37.6659 25.9578 37.6659 25.7851Z" fill="white"/>
<path d="M40.6202 20.8691H40.0234V21.7956H40.6202C40.9185 21.7956 41.0913 21.6072 41.0913 21.3402C41.0913 21.0576 40.9185 20.8691 40.6202 20.8691Z" fill="white"/>
<path d="M22.5626 15.4834L19.4062 28.1559H20.2228L22.5626 15.4834Z" fill="white"/>
<path d="M46.3203 15.4834L49.4767 28.1559H48.6444L46.3203 15.4834Z" fill="white"/>
<path d="M45.6752 15.4834L45.0156 18.7183L45.3297 18.6869L45.6752 15.4834Z" fill="white"/>
<path d="M23.2969 15.4834L23.9721 18.7183L23.658 18.6869L23.2969 15.4834Z" fill="white"/>
</svg>
