<svg width="95" height="44" viewBox="0 0 95 44" fill="none" xmlns="http://www.w3.org/2000/svg">
<path fillRule="evenodd" clipRule="evenodd" d="M61.5993 2.47303V0H51.7496V13.5783H61.5993V11.3386H54.4904V7.6524H60.716V5.22603H54.4904V2.47303H61.5993ZM58.8584 14.9782V20.2042H53.4684V14.9782H50.6825V28.5105H53.4684V22.4439H58.8584V28.5105H61.5993V14.9782H58.8584ZM61.5993 32.3354V29.9103H51.7496V43.674H61.5993V41.2023H54.4904V37.5621H60.716V35.323H54.4904V32.3354H61.5993ZM50.1708 0H47.43V5.22603H42.0413V0H39.3005V13.5783H42.0413V7.51242H47.43V13.5783H50.1708V0ZM27.501 0V2.47303H31.6819V13.5783H34.4227V2.47303H38.6037V0H27.501ZM18.8605 14.6049C14.5402 14.6049 12.264 17.0779 12.264 21.744C12.264 26.6434 14.5402 29.0698 18.8605 29.0698C23.1808 29.0698 25.4106 26.6434 25.4106 21.744C25.4106 17.0779 23.1808 14.6049 18.8605 14.6049ZM15.2371 21.744C15.2371 18.6177 16.4449 17.0779 18.8605 17.0779C21.462 17.0779 22.6698 18.6177 22.6698 21.744C22.6698 25.0576 21.462 26.6434 18.8605 26.6434C16.4449 26.6434 15.2371 25.0576 15.2371 21.744ZM8.31535 14.9782V24.5437L2.92663 14.9782H0V28.5105H2.60145V18.991L8.12953 28.5105H11.0562V14.9782H8.31535ZM21.0903 35.509V32.3354H28.012V29.9103H18.3495V43.674H21.0903V37.9354H27.1759V35.509H21.0903ZM49.6605 17.4045V14.9782H38.6037V17.4045H42.7381V28.5105H45.5254V17.4045H49.6605ZM32.5181 23.3311C33.4008 23.3311 34.0976 23.4705 34.4227 23.8438L34.9337 28.5105H38.0462V28.1839C37.721 27.9966 37.5352 27.1573 37.5352 25.5702C37.5352 23.6578 36.8384 22.6306 35.8164 22.1173C37.21 21.5574 37.9068 20.5308 37.9068 18.8044C37.9068 16.378 36.5132 14.9782 33.5866 14.9782H26.8042V28.5105H29.5915V23.3311H32.5181ZM29.5915 21.0441V17.4045H33.0291C34.4228 17.4045 35.1196 17.9178 35.1196 19.131C35.1196 20.3442 34.4227 21.0441 32.8898 21.0441H29.5915ZM34.4227 29.9103H31.1245L26.2932 43.674H29.2199L30.2883 40.6884H35.3054L36.1416 43.674H39.1147L34.4227 29.9103ZM32.7039 33.0353L34.4227 38.4493H30.9851L32.7039 33.0353ZM47.9416 34.4352H50.6825C50.5424 33.2226 50.1708 32.1961 49.334 31.3089C48.1268 30.2823 46.7332 29.5824 44.8285 29.5824C42.9239 29.5824 41.5303 30.2823 40.3225 31.4962C39.3005 32.7087 38.6037 34.4352 38.6037 36.7222C38.6037 41.5749 40.6476 44 44.6427 44C48.1268 44 50.0308 42.2735 50.6825 38.9613H47.9416C47.57 40.5471 46.3615 41.3876 44.8285 41.3876C42.5523 41.3876 41.5303 39.8485 41.5303 36.8615C41.5303 33.5959 42.5523 32.0088 44.8285 32.0088C46.3615 32.0088 47.2448 32.896 47.9416 34.4352ZM13.5182 43.488C13.9828 43.488 14.3544 43.3007 14.6338 43.0681C14.8661 42.7881 15.0512 42.4148 15.0512 41.9022C15.0512 41.3416 14.8654 40.9683 14.6338 40.735C14.3551 40.5024 13.9834 40.3617 13.5182 40.3617H13.4718C12.9143 40.3617 12.5427 40.5024 12.3104 40.735C12.0788 40.9677 11.9388 41.3416 11.9388 41.9022V41.9476C11.9388 42.4148 12.0782 42.7881 12.3104 43.0681C12.5427 43.3007 12.915 43.488 13.4718 43.488H13.5182ZM13.4718 43.8613C12.8214 43.8613 12.3569 43.6287 12.0317 43.3007C11.7065 42.9741 11.5672 42.5081 11.5672 41.9476V41.9022C11.5672 41.2477 11.7065 40.7817 12.0317 40.4557C12.3569 40.1291 12.8214 39.9885 13.4718 39.9885H13.5182C14.0757 39.9885 14.5402 40.1291 14.8654 40.4557C15.1906 40.7823 15.4229 41.2483 15.4229 41.9022C15.4229 42.5088 15.1906 42.9741 14.8654 43.3007C14.6892 43.4794 14.4793 43.621 14.248 43.7172C14.0167 43.8135 13.7686 43.8624 13.5182 43.8613H13.4718ZM13.6576 41.7149H13.7041C13.8899 41.7149 13.9828 41.6209 13.9828 41.3883V41.3416C13.9828 41.3416 13.9363 41.3416 13.9363 41.295C13.8899 41.2483 13.797 41.2483 13.6576 41.2483H13.1466V41.7156H13.6576V41.7149ZM13.9828 42.0415L14.3544 42.5088C14.4009 42.6015 14.3544 42.6948 14.308 42.7415C14.2151 42.8354 14.0757 42.7881 14.0292 42.7415L13.5647 42.0882H13.1466V42.6008C13.1466 42.6948 13.0537 42.7881 12.9608 42.7881C12.8679 42.7881 12.775 42.6941 12.775 42.6008V41.0617C12.775 40.9677 12.8679 40.8757 12.9608 40.8757H13.7041C13.8899 40.8757 14.0757 40.921 14.1686 41.015C14.2151 41.0617 14.2615 41.0617 14.2615 41.109C14.3544 41.2029 14.3544 41.295 14.3544 41.3889C14.3544 41.7616 14.2615 41.9476 13.9828 42.0415ZM63.5032 0C72.1444 0 79.6229 3.17294 85.662 9.23887C91.8869 15.4914 95 22.9572 95 31.6822V43.674H82.3644V31.3089C82.3644 26.4574 80.6456 22.2573 77.1615 18.8044C76.3247 17.9178 75.4427 17.2179 74.4207 16.518C71.6334 14.6049 68.3351 13.765 64.8975 13.765H63.5039V0H63.5032ZM81.1553 43.674H71.3069V34.1085C71.3069 32.5227 70.7966 31.3089 69.7281 30.2823C68.7061 29.2104 67.3125 28.6965 65.9189 28.6965H63.5032V14.9782H64.8969C68.5197 14.9782 71.6321 16.0047 74.42 18.1045C75.1169 18.4311 75.8137 19.131 76.324 19.6443C79.6229 22.9578 81.1553 26.784 81.1553 31.3095V43.674ZM70.0998 43.674H63.5026V29.9103H65.9189C66.9873 29.9103 68.0093 30.2823 68.8913 31.1229C69.5881 31.8228 70.0998 32.896 70.0998 34.1085V43.674Z" fill="white"/>
</svg>
