<svg width="48" height="48" viewBox="0 0 48 48" fill="none" xmlns="http://www.w3.org/2000/svg">
<path d="M17.4593 15.8544C17.7358 15.7585 18.0057 15.6136 18.289 15.5712C22.4019 14.9444 26.3632 15.3392 30.0255 17.4648C34.3972 20.003 36.4313 24.8029 35.2537 29.701C34.1139 34.4473 29.7668 38.0874 24.9111 38.3528C24.532 38.3729 24.1483 38.3551 23.642 38.2145C27.8152 34.6503 29.0954 30.2162 27.7126 25.1219C26.3119 19.9718 22.6874 17.1191 17.457 15.8544H17.4593Z" fill="#595959"/>
<path d="M13.2327 38.2012C13.4134 37.7551 13.5784 37.3179 13.7613 36.8897C16.3018 30.9433 16.2657 24.4324 13.7118 18.4793C13.4888 17.8102 13.4892 17.8551 13.3598 17.2529C14.0464 17.2526 14.6892 17.273 15.2669 17.5005C22.2392 20.2573 24.9113 28.9828 20.6578 35.005C18.8489 37.5677 15.9048 38.8636 13.2305 38.1989L13.2327 38.2012Z" fill="#595959"/>
<path d="M14.3645 14.764C12.9348 14.7261 11.7838 13.535 11.8151 12.1232C11.8485 10.6712 13.1132 9.49573 14.5719 9.56041C15.9213 9.62063 17.0187 10.8139 16.9875 12.1923C16.9562 13.6131 15.7473 14.7997 14.3645 14.764Z" fill="#595959"/>
<rect x="0.575" y="0.575" width="46.85" height="46.85" rx="9.39167" stroke="#595959" strokeWidth="1.15"/>
</svg>
