<svg width="55" height="53" viewBox="0 0 55 53" fill="none" xmlns="http://www.w3.org/2000/svg">
<path d="M54.7679 0L50.7588 4.41334H46.0391L50.0651 0H54.7679Z" fill="#595959"/>
<path d="M55.0003 32.1677L50.9912 36.5811H46.2715L50.2933 32.1677H55.0003Z" fill="#595959"/>
<path d="M0 19.9003V0.250977H9.67786C11.61 0.250977 13.0797 0.729053 14.0869 1.68521C15.0942 2.64136 15.5978 3.95217 15.5978 5.61763C15.6095 6.42448 15.3717 7.21525 14.9168 7.88176C14.5044 8.5122 13.911 9.00324 13.2145 9.29045C13.62 9.44 14.007 9.63563 14.3678 9.87351C14.7433 10.1295 15.0668 10.4545 15.3211 10.8311C15.6011 11.2483 15.815 11.7062 15.9553 12.1887C16.1168 12.7921 16.1899 13.4157 16.1723 14.04C16.2079 14.8426 16.064 15.643 15.7511 16.3829C15.4382 17.1228 14.9642 17.7836 14.3636 18.3172C13.1634 19.3726 11.3192 19.9003 8.83094 19.9003H0ZM3.96648 3.65142V7.90729H9.14587C10.8028 7.90729 11.6313 7.19798 11.6313 5.77936C11.6593 5.47734 11.6162 5.17294 11.5053 4.89061C11.3945 4.60828 11.219 4.35586 10.9929 4.15361C10.5673 3.8174 9.87363 3.64716 8.90755 3.64716L3.96648 3.65142ZM9.17567 16.5552C9.58024 16.5797 9.98557 16.5214 10.3668 16.3838C10.7481 16.2462 11.0973 16.0323 11.393 15.7551C11.6564 15.4926 11.8633 15.179 12.0009 14.8335C12.1385 14.4881 12.2039 14.1181 12.1931 13.7464C12.2238 13.391 12.1687 13.0335 12.0325 12.7039C11.8962 12.3743 11.6827 12.0823 11.41 11.8525C10.7689 11.4237 10.0052 11.216 9.23525 11.2609H3.96648V16.5552H9.17567Z" fill="#595959"/>
<path d="M16.9609 19.9009V0.0131836H20.7912V19.9009H16.9609Z" fill="#595959"/>
<path d="M31.4286 19.9007C31.2995 19.4772 31.2196 19.0402 31.1902 18.5984C30.693 19.1436 30.075 19.5648 29.3858 19.8284C28.5549 20.1461 27.6705 20.3007 26.7812 20.2838C25.1043 20.2838 23.8758 19.9149 23.0956 19.1772C22.7086 18.8058 22.4046 18.3567 22.2036 17.8593C22.0026 17.362 21.9092 16.8278 21.9295 16.2918C21.8896 15.4291 22.062 14.5698 22.4317 13.7893C22.755 13.1819 23.2395 12.6754 23.8318 12.3253C24.4904 11.9429 25.2104 11.678 25.9598 11.5422C26.7769 11.372 27.6692 11.2188 28.6367 11.0826C29.3174 11.0286 29.981 10.8421 30.5902 10.5336C30.7579 10.4046 30.8898 10.2347 30.9732 10.0403C31.0567 9.84582 31.0889 9.63323 31.0668 9.42278C31.0695 9.19494 31.0089 8.97084 30.8916 8.77546C30.7744 8.58008 30.6052 8.4211 30.4029 8.31625C29.8527 8.0236 29.2336 7.88536 28.6112 7.9162C27.726 7.9162 27.0876 8.11197 26.7046 8.50777C26.3018 8.93929 26.0469 9.48784 25.9768 10.0739H22.4019C22.413 9.36903 22.538 8.67057 22.7721 8.00557C22.9942 7.3791 23.3703 6.81857 23.8659 6.37557C24.4377 5.8849 25.1104 5.52602 25.8364 5.32437C26.7989 5.05697 27.7954 4.93222 28.7942 4.95411C29.78 4.93354 30.7632 5.06415 31.7095 5.3414C32.4271 5.55984 33.0823 5.94649 33.6203 6.4692C34.1174 6.96785 34.483 7.58201 34.6843 8.25667C34.9107 9.04938 35.0196 9.87098 35.0078 10.6953V19.9007H31.4286ZM31.1605 12.7679C30.919 12.9918 30.627 13.1539 30.3093 13.2403C29.7729 13.3972 29.2289 13.5264 28.6793 13.6276C27.8661 13.737 27.0879 14.0279 26.4024 14.4788C26.1924 14.6541 26.0267 14.8766 25.9187 15.128C25.8108 15.3794 25.7636 15.6527 25.781 15.9258C25.7782 16.9982 26.4052 17.5345 27.6621 17.5345C28.132 17.5379 28.5984 17.4527 29.0368 17.2834C29.4411 17.1276 29.8123 16.8966 30.1305 16.6024C30.4383 16.3155 30.6895 15.9734 30.8711 15.5938C31.058 15.2124 31.1541 14.7929 31.1519 14.3681L31.1605 12.7679Z" fill="#595959"/>
<path d="M45.4862 19.9009L42.29 13.3596L40.4302 15.2833V19.9009H36.5488V0.0131836H40.4302V10.8742L45.2223 5.34154H49.9293L45.0393 10.6954L49.7931 19.9009H45.4862Z" fill="#595959"/>
<path d="M16.1558 35.9844C16.0284 35.5607 15.9498 35.1237 15.9218 34.6821C15.4204 35.2284 14.798 35.6497 14.1045 35.912C13.275 36.2293 12.3921 36.3839 11.5042 36.3674C9.80181 36.3674 8.5974 35.9972 7.81857 35.2609C7.43103 34.8897 7.1264 34.4407 6.92469 33.9434C6.72298 33.4461 6.62876 32.9117 6.64821 32.3754C6.60833 31.5127 6.78077 30.6535 7.1504 29.873C7.47958 29.2628 7.97167 28.756 8.57186 28.4089C9.23077 28.0273 9.95067 27.7624 10.6998 27.6259C11.5198 27.4556 12.4135 27.3024 13.381 27.1662C14.0617 27.1123 14.7253 26.9258 15.3344 26.6172C15.5008 26.4872 15.6314 26.3171 15.714 26.1228C15.7966 25.9285 15.8286 25.7164 15.8068 25.5064C15.8096 25.2781 15.7485 25.0534 15.6305 24.8579C15.5124 24.6624 15.3421 24.5038 15.1387 24.3999C14.5901 24.1072 13.9723 23.9689 13.3512 23.9999C12.4617 23.9999 11.8276 24.1956 11.4403 24.5914C11.0389 25.0233 10.7855 25.5719 10.7168 26.1576H7.13338C7.14665 25.4529 7.27162 24.7548 7.50364 24.0892C7.72727 23.4625 8.10484 22.902 8.60165 22.4592C9.17243 21.9694 9.84356 21.6106 10.5679 21.408C11.5305 21.141 12.527 21.0163 13.5257 21.0378C14.5116 21.0169 15.4948 21.1475 16.441 21.425C17.1622 21.6412 17.8206 22.0281 18.3604 22.5529C18.8573 23.0578 19.2188 23.6799 19.4116 24.3616C19.6395 25.1541 19.7499 25.9757 19.7393 26.8002V35.9844H16.1558ZM15.892 28.8515C15.6495 29.074 15.3578 29.2358 15.0408 29.324C14.5059 29.4809 13.9633 29.6102 13.4151 29.7112C12.6009 29.8221 11.8216 30.1128 11.1339 30.5624C10.9247 30.7385 10.7595 30.961 10.6516 31.2122C10.5437 31.4635 10.4961 31.7365 10.5125 32.0094C10.5125 33.0932 11.1339 33.6366 12.3766 33.6394C12.8479 33.6428 13.3157 33.5576 13.7555 33.3883C14.1589 33.2305 14.5296 32.9996 14.8493 32.7074C15.1571 32.4205 15.4083 32.0783 15.5898 31.6987C15.7767 31.3173 15.8728 30.8978 15.8707 30.473L15.892 28.8515Z" fill="#595959"/>
<path d="M31.3666 35.9844L31.3368 34.2097C30.4516 35.6482 29.1011 36.3674 27.2852 36.3674C26.4052 36.3809 25.5331 36.1992 24.7317 35.8354C23.9623 35.4809 23.284 34.9554 22.7485 34.2991C22.1633 33.5684 21.7215 32.7338 21.4462 31.8392C21.1171 30.7771 20.9576 29.6697 20.9738 28.5579C20.9656 27.535 21.1032 26.5161 21.3823 25.532C21.6192 24.6718 22.0147 23.8635 22.5484 23.1487C23.0471 22.4926 23.691 21.9609 24.4295 21.5953C25.2182 21.2185 26.0837 21.0306 26.9575 21.0463C27.8121 21.0311 28.6567 21.2323 29.4127 21.6311C30.1687 22.0299 30.8116 22.6134 31.2815 23.3274V16.0967H35.0692V35.9844H31.3666ZM28.1705 33.2308C28.6212 33.2347 29.0664 33.1322 29.4701 32.9319C29.8739 32.7315 30.2247 32.4388 30.4942 32.0775C31.1469 31.211 31.4765 30.1437 31.4262 29.0601C31.4262 25.9022 30.3509 24.3233 28.2002 24.3233C25.9929 24.3233 24.8892 25.8228 24.8892 28.8217C24.8375 29.9544 25.159 31.0728 25.8042 32.0051C26.0676 32.388 26.4213 32.7001 26.834 32.9139C27.2467 33.1277 27.7057 33.2365 28.1705 33.2308V33.2308Z" fill="#595959"/>
<path d="M40.1275 29.7114C40.1336 30.6731 40.4736 31.6028 41.0893 32.3415C41.376 32.6632 41.7304 32.9174 42.127 33.0859C42.5236 33.2544 42.9526 33.333 43.3832 33.3161C43.9692 33.3301 44.5477 33.1829 45.0558 32.8905C45.2828 32.7632 45.4822 32.5918 45.6423 32.3865C45.8023 32.1811 45.9198 31.9459 45.9878 31.6946H49.95C49.5732 33.0814 48.7395 34.3005 47.5838 35.1547C46.4062 35.9795 44.995 36.4047 43.5577 36.3676C38.706 36.3676 36.2802 33.7247 36.2802 28.4389C36.2661 27.4039 36.4257 26.3738 36.7526 25.3917C37.043 24.5243 37.5112 23.7271 38.1272 23.051C38.7399 22.3931 39.4936 21.8824 40.3317 21.5571C41.2831 21.1976 42.294 21.0214 43.3109 21.0379C45.558 21.0379 47.2603 21.7586 48.4179 23.1999C49.5755 24.6412 50.1529 26.8117 50.15 29.7114H40.1275ZM46.1921 27.2856C46.1858 26.8027 46.0906 26.3252 45.9112 25.8769C45.7632 25.499 45.5369 25.1567 45.2473 24.8725C44.9837 24.6115 44.6674 24.4098 44.3195 24.2809C43.9689 24.1538 43.5987 24.089 43.2257 24.0894C42.8525 24.0869 42.4827 24.1612 42.1393 24.3076C41.796 24.4541 41.4864 24.6695 41.2297 24.9406C40.631 25.5807 40.2874 26.4179 40.2637 27.2941L46.1921 27.2856Z" fill="#595959"/>
<path d="M26.1346 52.0684V43.2503C26.1703 42.4803 25.9503 41.7202 25.509 41.0883C25.3251 40.8204 25.0776 40.6024 24.7886 40.4538C24.4997 40.3053 24.1783 40.2308 23.8535 40.2371C23.5101 40.2338 23.1709 40.3129 22.8644 40.4676C22.5578 40.6224 22.2928 40.8483 22.0915 41.1266C21.6129 41.7659 21.3681 42.5501 21.3978 43.3481V52.0684H17.5675V43.3183C17.5775 42.8318 17.5376 42.3455 17.4484 41.8671C17.3913 41.5419 17.2538 41.2361 17.0483 40.9776C16.8573 40.7578 16.6056 40.5994 16.3248 40.5222C15.9772 40.4253 15.6174 40.3794 15.2566 40.386C13.699 40.386 12.9201 41.3337 12.9201 43.229V52.0684H9.08984V37.5091H12.6733V39.637C13.0404 38.805 13.6617 38.1107 14.448 37.6538C15.221 37.2817 16.0716 37.0994 16.9292 37.1218C17.3704 37.1183 17.8108 37.1582 18.2442 37.241C18.6109 37.3134 18.9622 37.4487 19.2827 37.641C19.6044 37.8422 19.8979 38.0855 20.1551 38.3645C20.4602 38.6975 20.7378 39.0548 20.985 39.4327C21.3115 38.6971 21.8589 38.0813 22.5512 37.6708C23.2791 37.2861 24.0945 37.097 24.9174 37.1218C25.6061 37.1135 26.2898 37.2393 26.9305 37.4921C27.5213 37.7236 28.0565 38.0774 28.5009 38.5305C29.3989 39.4526 29.8987 40.6906 29.8926 41.9777V52.0684H26.1346Z" fill="#595959"/>
<path d="M31.5195 52.0684V37.509H35.3498V52.0684H31.5195Z" fill="#595959"/>
<path d="M45.9315 52.0684L42.7353 45.5271L40.8712 47.4507V52.0684H36.9941V32.1807H40.8712V43.0417L45.6676 37.509H50.3746L45.4889 42.8629L50.2554 52.0684H45.9315Z" fill="#595959"/>
</svg>
