<svg width="120" height="79" viewBox="0 0 120 79" fill="none" xmlns="http://www.w3.org/2000/svg">
<path d="M34.6204 36.1119C35.8842 34.6155 37.347 33.1857 37.4472 31.0574C37.5803 27.6324 37.5803 24.1745 37.5803 20.7524C37.5373 20.4034 37.6038 20.0496 37.7704 19.7399C37.937 19.4303 38.1956 19.1799 38.5106 19.0235C39.5747 18.4252 40.5387 17.6602 41.5699 17.0283C41.8649 16.901 42.1969 16.8893 42.5002 16.9954C43.3647 17.3947 44.1962 17.8935 45.1938 18.4588C45.2718 18.0185 45.3273 17.5745 45.3598 17.1285C45.3927 15.2328 45.4264 13.3042 45.4264 11.4092C45.3942 11.1776 45.4385 10.9419 45.5526 10.7378C45.6666 10.5337 45.8442 10.3725 46.0583 10.2785C52.3773 6.88455 58.6955 3.48056 65.013 0.0665531C65.1222 0.0342553 65.234 0.0119786 65.3472 0C65.4005 0.206184 65.423 0.419133 65.4138 0.631897C65.3809 1.92861 65.3143 3.22532 65.3143 4.52275C65.3359 4.79587 65.2659 5.0684 65.1153 5.29727C64.9647 5.52614 64.7421 5.6983 64.4828 5.78654C59.8605 8.21394 55.3049 10.675 50.6834 13.0687C50.2142 13.2506 49.8157 13.5782 49.5464 14.0032C49.2771 14.4282 49.1511 14.9284 49.187 15.4303C49.187 20.5828 49.0875 25.7353 49.021 30.8928C49.0347 31.4823 49.0791 32.0706 49.1541 32.6554C49.2888 32.6447 49.4224 32.6225 49.5534 32.5888C50.6841 31.4252 51.7146 30.1944 51.7146 28.4325C51.7146 24.9746 51.8141 21.516 51.7811 18.0559C51.7365 17.694 51.8094 17.3273 51.989 17.01C52.1686 16.6926 52.4455 16.4414 52.7787 16.2934C54.2422 15.5283 55.672 14.631 57.0682 13.7328C57.2805 13.5663 57.5411 13.4731 57.8109 13.4672C58.0807 13.4612 58.3451 13.5429 58.5645 13.6999C59.429 14.2316 60.3601 14.6646 61.2245 15.2628C61.5608 15.5114 61.7874 15.8809 61.8564 16.2934C61.8893 17.9557 61.8235 19.6189 61.7899 21.2813C61.7924 21.5336 61.7214 21.7811 61.5856 21.9937C61.4497 22.2064 61.2549 22.3748 61.0249 22.4785C59.4956 23.343 57.9992 24.3076 56.4363 25.1721C56.1652 25.3024 55.9404 25.5124 55.7918 25.7739C55.6432 26.0354 55.5779 26.336 55.6047 26.6356C55.6047 28.8969 55.6047 29.03 57.7995 29.7614C59.2959 30.2624 60.8252 30.5264 62.4218 30.925C62.1391 31.162 61.8725 31.4175 61.6238 31.69C60.8259 32.4879 59.9944 33.2859 59.2294 34.1174C59.1692 34.2065 59.0911 34.2821 59 34.3394C58.909 34.3966 58.807 34.4343 58.7006 34.4499C58.5942 34.4655 58.4858 34.4588 58.3821 34.4301C58.2785 34.4015 58.1819 34.3515 58.0987 34.2834C56.6023 33.419 55.1059 32.6211 53.6096 31.7566C53.4995 31.6648 53.3712 31.5975 53.2331 31.5592C53.095 31.5209 52.9504 31.5125 52.8088 31.5345C52.6672 31.5565 52.5319 31.6084 52.412 31.6868C52.292 31.7652 52.1902 31.8683 52.1132 31.9892C51.3153 32.9195 50.4508 33.7847 49.6858 34.7157C49.6222 34.8366 49.5321 34.9417 49.4223 35.023C49.3125 35.1044 49.1857 35.1599 49.0515 35.1855C48.9173 35.2111 48.779 35.2061 48.6469 35.1708C48.5149 35.1356 48.3925 35.071 48.2889 34.9819C47.5239 34.516 46.693 34.184 45.9273 33.7517C45.8245 33.6722 45.7063 33.615 45.5802 33.5835C45.4541 33.552 45.3228 33.5471 45.1947 33.5689C45.0665 33.5908 44.9443 33.639 44.8358 33.7105C44.7273 33.782 44.6347 33.8752 44.5641 33.9843C43.7991 34.8159 42.9346 35.5802 42.2025 36.4454C41.7731 36.9771 41.4046 36.9463 40.8721 36.6114C40.0406 36.1104 39.1761 35.7133 38.3116 35.2145C38.2201 35.1327 38.1105 35.0737 37.9918 35.0424C37.8731 35.011 37.7487 35.0082 37.6287 35.0342C37.5088 35.0602 37.3966 35.1141 37.3015 35.1917C37.2064 35.2693 37.131 35.3684 37.0815 35.4807C36.4167 36.411 35.6846 37.2762 35.0534 38.2072C34.624 38.872 34.2555 39.0388 33.5241 38.6065C32.5825 38.0632 31.6049 37.585 30.5979 37.1753C30.3519 37.0978 30.1423 36.9339 30.0078 36.7138C29.8733 36.4937 29.8232 36.2323 29.8666 35.978C29.9331 32.586 29.966 29.2276 30.0662 25.8362C30.1044 25.5352 30.044 25.2299 29.894 24.9661C29.7441 24.7022 29.5128 24.4941 29.2347 24.3728C28.6364 24.0736 28.071 23.7409 27.4721 23.4081C26.8731 23.0753 26.6076 23.275 26.6076 23.9398C26.5081 26.5332 26.375 29.1274 26.3414 31.7544C26.2748 34.481 26.3414 37.2411 26.3085 39.9677V41.0647C26.0678 41.013 25.8336 40.935 25.61 40.8321C24.7777 40.4328 23.9798 40.0034 23.1819 39.6034C21.9847 38.9715 22.0512 39.0051 22.1178 37.6712C22.3174 33.6143 22.4505 29.5245 22.5471 25.4677C22.5206 25.2786 22.4533 25.0975 22.3501 24.9369C22.2468 24.7763 22.1099 24.64 21.9489 24.5374C21.2195 24.1427 20.4639 23.7984 19.6875 23.5069C20.5433 22.9474 21.3658 22.3386 22.1507 21.6834C22.9486 20.9184 23.68 20.7531 24.6117 21.4509C24.7607 21.5791 24.934 21.6759 25.1213 21.7354C25.3086 21.795 25.5059 21.816 25.7016 21.7974C25.8972 21.7787 26.0871 21.7207 26.2597 21.6269C26.4324 21.533 26.5843 21.4052 26.7064 21.2512C26.7393 21.2183 26.7393 21.2183 26.7729 21.2183C28.0696 19.5559 29.4665 19.8214 30.9951 20.9191C31.7449 21.4353 32.5476 21.87 33.3896 22.2159C33.6961 22.3309 33.9515 22.5514 34.11 22.8379C34.2685 23.1244 34.3195 23.458 34.254 23.7788C34.1875 27.3369 34.1546 30.8635 34.1209 34.4194C34.1209 34.9848 34.2204 35.5501 34.254 36.1154C34.3753 36.0962 34.4988 36.095 34.6204 36.1119ZM41.8032 34.1167C41.9027 34.1496 42.0358 34.1833 42.1359 34.2162C43.4663 32.8858 44.8625 31.4896 45.1287 29.5274C45.3169 27.3827 45.3723 25.2283 45.2947 23.0768C45.2856 22.9205 45.2425 22.7681 45.1683 22.6303C45.0942 22.4924 44.9908 22.3725 44.8653 22.2788C44.1003 21.813 43.3024 21.4473 42.5038 21.0487C41.9055 20.7495 41.7058 21.0158 41.6722 21.614C41.6393 24.6397 41.5727 27.6324 41.5727 30.6588C41.6035 31.8224 41.7366 32.986 41.8032 34.1167ZM55.8359 23.4424C57.7681 23.1762 58.4629 22.2788 58.5295 19.8844C58.596 17.7561 57.8647 16.7256 55.8359 16.3263V23.4424Z" fill="white"/>
<path d="M64.7084 39.9362C64.1766 40.2024 63.7437 40.3656 63.378 40.601C62.2473 41.2659 61.1503 41.9314 59.9859 42.5633C59.6597 42.7072 59.2903 42.719 58.9555 42.5962C57.8248 42.0645 56.7606 41.4655 55.4976 40.8007C60.0196 38.573 64.4092 36.3781 68.8983 34.1504C68.7989 37.4423 68.6987 40.601 68.5656 43.9602C69.0314 43.7605 69.3635 43.661 69.6626 43.4943C70.5271 42.929 71.3587 42.3307 72.2231 41.7983C72.4228 41.6652 72.855 41.5657 73.0211 41.6988C74.5504 42.6635 76.0138 43.661 77.6096 44.7245C76.0467 45.755 74.584 46.7196 72.8543 47.8503C73.9185 48.4157 74.6835 48.8808 75.4814 49.2472C75.7228 49.3416 75.9259 49.5138 76.0584 49.7367C76.1909 49.9595 76.2452 50.2202 76.2127 50.4774C76.1798 53.3041 76.2128 56.1308 76.1798 58.9568C76.1434 59.2291 76.2127 59.505 76.3735 59.7277C76.5343 59.9504 76.7744 60.103 77.0443 60.154C77.9746 60.4203 78.8734 60.786 79.9376 61.1516C78.6409 62.1492 77.4773 63.1132 76.2464 64.0141C76.1486 64.0517 76.0432 64.0653 75.9391 64.0537C75.835 64.0421 75.7352 64.0057 75.6481 63.9476C74.5511 63.4159 73.4204 62.9171 72.3892 62.3181C72.2417 62.2023 72.1207 62.0564 72.0343 61.89C71.9479 61.7236 71.8981 61.5407 71.8882 61.3534C71.8553 58.6598 71.8882 55.9662 71.9211 53.3062C71.9568 52.9883 71.8928 52.667 71.7379 52.387C71.583 52.107 71.345 51.8821 71.0567 51.7433C70.2587 51.3139 69.4937 50.8452 68.7287 50.413C68.6293 50.4459 68.5291 50.5124 68.4296 50.5461V65.8418C67.266 65.3101 66.3679 64.9115 65.5034 64.4449C65.3751 64.3539 65.23 64.2894 65.0765 64.2552C64.923 64.2209 64.7642 64.2176 64.6094 64.2455C64.4546 64.2733 64.3069 64.3318 64.175 64.4174C64.0431 64.503 63.9295 64.6141 63.841 64.7441C63.2428 65.4754 62.5443 66.1073 61.9088 66.8058C61.8555 66.8927 61.7845 66.9674 61.7005 67.0253C61.6164 67.0831 61.5213 67.1226 61.421 67.1414C61.3208 67.1603 61.2177 67.1579 61.1185 67.1344C61.0192 67.111 60.926 67.0671 60.8447 67.0054C60.0131 66.5761 59.1487 66.2075 58.3178 65.7753C58.1075 65.6394 57.8537 65.5878 57.6071 65.631C57.3605 65.6741 57.1392 65.8087 56.9875 66.0079C56.1559 66.906 55.2585 67.7368 54.427 68.6013C54.3788 68.6763 54.315 68.7401 54.24 68.7883C54.165 68.8365 54.0805 68.868 53.9923 68.8806C53.904 68.8932 53.8141 68.8867 53.7285 68.8615C53.643 68.8362 53.5639 68.7929 53.4967 68.7344C52.8318 68.3351 52.1334 68.003 51.4686 67.6037C51.3448 67.4936 51.1987 67.4115 51.0403 67.363C50.8819 67.3146 50.7149 67.3009 50.5507 67.323C50.3865 67.3451 50.229 67.4024 50.0891 67.491C49.9491 67.5796 49.8299 67.6974 49.7396 67.8363C49.0412 68.6342 48.1767 69.3656 47.4783 70.1642C47.4089 70.2796 47.3154 70.3787 47.2041 70.4544C47.0927 70.5302 46.9663 70.5808 46.8335 70.603C46.7007 70.6251 46.5646 70.6181 46.4348 70.5825C46.3049 70.5469 46.1843 70.4835 46.0814 70.3968C45.3164 69.9674 44.4855 69.6318 43.6869 69.2332C43.4857 69.1039 43.2455 69.0496 43.0083 69.08C42.7711 69.1104 42.5522 69.2234 42.3902 69.3992C41.4921 70.1971 40.561 70.9285 39.6636 71.7271C39.5349 71.8687 39.358 71.9573 39.1676 71.9757C38.9771 71.994 38.7866 71.9409 38.6331 71.8266C37.735 71.2949 36.804 70.7961 35.873 70.3302C35.6545 70.2461 35.4688 70.0942 35.3431 69.8967C35.2174 69.6993 35.1583 69.4667 35.1745 69.2332C35.2074 67.238 35.2411 65.2429 35.2074 63.2477C35.2074 62.5829 35.6068 62.4161 36.039 62.1506C38.0012 61.0865 39.9628 59.9895 41.925 58.8917C42.1623 58.8103 42.369 58.6585 42.5176 58.4564C42.6662 58.2543 42.7496 58.0117 42.7566 57.761C42.7566 57.1291 42.3272 56.8965 41.8921 56.6639C40.3628 55.9655 38.7999 55.267 37.2699 54.5693C36.9745 54.4524 36.6859 54.3191 36.4054 54.17C37.7357 53.3384 38.9323 52.5405 40.1631 51.8084C40.2974 51.754 40.4424 51.7317 40.5868 51.7433C40.7312 51.7548 40.8708 51.7999 40.9947 51.875C42.8553 52.972 44.7159 54.0698 46.5143 55.2334C46.6617 55.3756 46.7789 55.546 46.8589 55.7345C46.939 55.923 46.9802 56.1257 46.9802 56.3305C46.9473 59.9215 46.8471 63.5461 46.7805 67.1364C46.7836 67.5355 46.8625 67.9304 47.0131 68.3C48.2103 67.1028 49.8398 66.3048 49.7067 64.2102C49.6402 63.0466 49.7733 61.8823 49.7396 60.7187C49.7082 60.4185 49.7756 60.1163 49.9316 59.8579C50.0877 59.5996 50.3238 59.3993 50.6041 59.2874C52.2 58.4895 53.7629 57.658 55.3272 56.8264C55.8893 56.5257 56.4333 56.1927 56.9567 55.8288C57.7217 55.2971 57.6881 54.565 56.8902 54.1328C55.4933 53.4343 54.0992 52.8024 52.668 52.1705C52.1363 51.938 51.5373 51.7412 50.7723 51.4392C52.2035 50.5411 53.4323 49.7431 54.729 48.9789C54.895 48.8794 55.2299 49.0118 55.4274 49.112C57.2229 50.1761 59.0184 51.2731 60.8476 52.3709C61.0637 52.4894 61.2395 52.6699 61.3521 52.8891C61.4647 53.1084 61.5091 53.3564 61.4795 53.6011C61.4129 56.8264 61.38 60.0188 61.3463 63.2441C61.3463 63.6735 61.4129 64.1086 61.4795 64.7734C62.8427 63.5762 64.2704 62.6122 64.342 60.9162C64.5745 54.2659 64.6747 47.6156 64.8429 40.9646C64.8185 40.6194 64.7736 40.276 64.7084 39.9362ZM57.4262 57.4604C56.7943 57.7932 56.2626 58.1253 55.6972 58.3908C54.5 58.9561 53.8015 59.754 53.9017 61.1817C54.0012 62.9106 53.9346 64.6732 53.9346 66.4358C54.0677 66.4687 54.1672 66.5353 54.3003 66.5689L56.2325 64.7398C56.6237 64.4075 56.939 63.995 57.1571 63.5303C57.3751 63.0656 57.4908 62.5595 57.4963 62.0462C57.4963 60.7824 57.5628 59.5193 57.5958 58.2219C57.5217 57.9723 57.4651 57.7179 57.4262 57.4604ZM39.4697 69.3649C39.5692 69.3978 39.6357 69.4643 39.7359 69.498C40.5012 68.9319 41.2235 68.31 41.8971 67.6373C42.3189 67.216 42.5881 66.666 42.6621 66.0744C42.7952 64.4449 42.7952 62.8155 42.8281 61.186C42.7977 60.8936 42.7422 60.6044 42.6621 60.3215C41.598 61.02 40.6004 61.6182 39.6694 62.2838C39.5033 62.3832 39.4697 62.7131 39.4697 62.9822C39.4031 64.8428 39.3702 66.74 39.3366 68.602C39.3702 68.8661 39.4368 69.1316 39.4697 69.3649ZM68.5956 48.9481C70.092 48.0178 71.3866 47.2191 72.6854 46.4212V46.1221C71.3887 45.4902 70.092 44.8583 68.5956 44.1269V48.9481Z" fill="white"/>
<path d="M19.0872 45.0564C17.3911 43.9923 15.8618 43.0942 14.364 42.0973C14.1644 41.9642 14.1644 41.4991 14.198 41.1992C14.2975 38.5392 14.4642 35.8785 14.5637 33.2186C14.5637 32.8529 14.5308 32.5201 14.4971 31.9218C13.8323 32.2875 13.2999 32.5537 12.8347 32.8522C10.1082 34.5482 10.5068 33.6837 10.4403 37.0421C10.3408 40.4342 10.3408 43.7926 10.3071 47.184C10.3071 47.4502 10.2742 47.7157 10.2406 48.1816C9.77472 47.8824 9.40904 47.6806 9.04335 47.4502C8.14524 46.8848 7.28077 46.3195 6.34974 45.8207C6.11375 45.7073 5.92296 45.5176 5.80827 45.2823C5.69358 45.0469 5.66172 44.7797 5.71784 44.524C6.01841 40.4335 6.31825 36.3444 6.5172 32.2539C6.6503 29.2948 6.6503 26.335 6.71686 23.3759C6.70543 22.9643 6.67223 22.5537 6.61738 22.1457C5.91893 22.711 5.42014 23.1104 4.95499 23.5426C3.59172 24.7062 4.02468 24.5402 2.56051 23.8088C1.72895 23.4088 0.930313 22.9765 0 22.5114C0.243121 22.2972 0.498558 22.0975 0.765003 21.9131C4.78825 19.2195 8.91168 16.5259 13.0351 13.8659C13.1968 13.7641 13.379 13.6994 13.5687 13.6764C13.7584 13.6534 13.9508 13.6727 14.1322 13.7328C15.7616 14.4313 17.3246 15.2621 18.954 15.9942C19.1571 16.0638 19.3304 16.2006 19.4453 16.382C19.5601 16.5633 19.6098 16.7784 19.5859 16.9918C19.4199 26.0029 19.2868 34.9811 19.1201 43.993C19.0903 44.3466 19.0793 44.7016 19.0872 45.0564ZM10.6077 32.3899C12.039 31.4918 13.3013 30.7275 14.4986 29.9295C14.6646 29.8301 14.6982 29.5002 14.6982 29.2647C14.7977 26.7708 14.8979 24.2768 14.9308 21.8165C14.9974 19.3891 14.9637 19.3891 12.8025 18.3586C12.2708 18.0924 11.805 18.0924 11.4722 18.5583C11.2083 18.8933 11.0465 19.2973 11.0063 19.7219C10.8403 23.1469 10.7072 26.5718 10.607 29.9968C10.5741 30.691 10.6077 31.3894 10.6077 32.387V32.3899Z" fill="white"/>
<path d="M22.411 50.7117C21.4463 51.4101 20.6155 51.9418 19.8841 52.5408C19.794 52.6439 19.684 52.7276 19.5607 52.7871C19.4374 52.8465 19.3033 52.8803 19.1666 52.8865C19.0298 52.8928 18.8932 52.8712 18.765 52.8232C18.6368 52.7753 18.5197 52.7018 18.4206 52.6073C17.4231 51.9425 16.326 51.3772 15.1953 50.7117C15.4202 50.5448 15.6533 50.3893 15.8938 50.2458C20.4494 47.5193 25.0161 44.8147 29.5937 42.132C29.7318 42.0609 29.8838 42.021 30.0391 42.0154C30.1943 42.0097 30.3489 42.0383 30.4918 42.0991C31.7222 42.6311 32.9192 43.1964 34.0828 43.7951C34.2081 43.8768 34.3145 43.9842 34.3949 44.1104C34.4753 44.2365 34.5277 44.3784 34.5487 44.5265C34.5158 49.8472 34.4156 55.1671 34.3161 60.4542C34.2887 60.6606 34.2183 60.8589 34.1095 61.0364C34.0006 61.214 33.8557 61.3667 33.6842 61.4847C31.689 62.7814 29.661 64.0115 27.6014 65.2424C27.3031 65.3739 27.0532 65.5951 26.8864 65.8752C26.7197 66.1553 26.6444 66.4804 26.6711 66.8053C26.704 70.1974 26.704 73.5558 26.704 76.9472V78.0113C25.5404 77.2799 24.5428 76.5479 23.445 75.9832C22.1812 75.3513 21.8492 74.552 21.9157 73.09C22.2485 66.0403 22.3451 58.9921 22.514 51.9411C22.5111 51.642 22.4446 51.3092 22.411 50.7117ZM26.7004 63.5471C26.7999 63.6137 26.8664 63.6466 26.9666 63.7131C27.8538 63.1642 28.7087 62.5647 29.5271 61.9176C29.7084 61.7524 29.8548 61.5526 29.9575 61.3298C30.0603 61.1071 30.1174 60.8661 30.1254 60.6209C30.2249 56.3644 30.2585 52.105 30.3251 47.852C30.3251 47.6194 30.2921 47.2538 30.159 47.1872C29.6273 46.8544 28.9289 46.3227 28.463 46.4558C28.0401 46.5326 27.6567 46.7531 27.3776 47.08C27.0985 47.4069 26.941 47.8202 26.9316 48.2499C26.865 52.973 26.7655 57.6962 26.6654 62.4486C26.6272 62.8142 26.639 63.1833 26.7004 63.5457V63.5471Z" fill="white"/>
<path d="M68.7672 31.2238C67.2709 30.559 65.9763 30.0265 64.6775 29.3946C64.4778 29.2952 64.3783 28.8293 64.3783 28.5631C64.4449 25.7722 64.578 22.9769 64.6775 20.1838C64.7104 18.9866 64.6445 17.7894 64.7104 16.6257C64.7723 16.2275 64.6932 15.8202 64.4867 15.4741C64.2803 15.128 63.9595 14.8648 63.5797 14.7301C63.1138 14.4975 62.6816 14.2291 62.1484 13.9321C63.3786 13.1671 64.51 12.4358 65.7065 11.7373C65.8447 11.697 65.9896 11.6851 66.1325 11.7022C66.2753 11.7193 66.4133 11.7651 66.5381 11.8368C67.1034 12.1359 67.6351 12.4687 68.1676 12.8014C68.3456 12.932 68.5648 12.9939 68.7848 12.9756C69.0048 12.9573 69.2108 12.8602 69.3648 12.702C70.0632 12.1366 70.796 11.2707 71.5596 11.2056C72.291 11.1391 73.0889 11.9706 73.8875 12.3363C74.586 12.6691 75.3188 12.9346 75.9822 13.2008C76.0817 13.1013 76.1482 13.0347 76.1482 13.0011C76.0151 11.7709 76.7801 11.2385 77.7111 10.6732C78.8418 9.97473 79.8723 9.14389 80.9701 8.4118C81.2732 8.27557 81.6025 8.20742 81.9347 8.21214C82.0342 8.21214 82.1344 8.31162 82.2339 8.34525C83.9965 9.14317 85.7583 9.97473 87.654 10.8392C86.557 11.6371 85.5594 12.4021 84.5618 13.1335C83.5313 13.8985 83.5313 13.8985 82.5001 13.1335C81.8351 12.6299 81.1352 12.1743 80.4055 11.7702C80.2021 13.7585 80.1354 15.7583 80.2058 17.7557C82.5674 16.5256 84.7278 15.4278 86.9563 14.2978C86.9892 14.6306 87.0228 14.8632 87.0228 15.0957C87.0228 17.8223 86.9899 20.5159 86.9899 23.2424C87.0067 23.5031 86.954 23.7637 86.8372 23.9974C86.7204 24.2311 86.5437 24.4296 86.3251 24.5728C84.4645 25.936 82.6039 27.3637 80.7389 28.7627C80.5393 28.8959 80.107 29.029 79.941 28.9288C78.2121 27.8317 76.516 26.6674 74.717 25.4709C75.8806 24.4067 76.9783 23.4092 78.0754 22.4116C79.6383 23.7083 81.1676 24.9721 82.6976 26.2044C82.7785 26.1373 82.868 26.0815 82.9638 26.0384C83.3932 23.3784 83.2629 20.6848 83.2629 17.7915C80.7024 18.7891 78.5742 20.2855 76.1468 21.5127V14.4281C76.0802 14.3951 76.0137 14.3286 75.9471 14.295C75.4154 14.7243 74.8501 15.1594 74.3176 15.6253C73.6857 16.157 73.0875 17.0222 72.3854 17.0888C71.7536 17.1553 71.0551 16.3574 70.3903 15.9252C70.0923 15.7174 69.7816 15.5286 69.46 15.3598C68.7952 14.9941 68.5619 15.1272 68.5297 15.8915C68.4967 17.6541 68.4302 19.4496 68.4631 21.2122C68.496 24.2379 68.5962 27.2306 68.6957 30.257C68.7621 30.5747 68.7861 30.8998 68.7672 31.2238Z" fill="white"/>
<path d="M111.233 1.92871C112.63 2.72663 113.993 3.49164 115.357 4.223C116.021 4.55577 115.786 5.08748 115.786 5.58627C115.719 9.30752 115.686 13.0681 115.586 16.7922C115.543 17.1077 115.618 17.428 115.796 17.692C115.973 17.956 116.242 18.1452 116.551 18.2235C117.349 18.4561 118.114 18.7244 119.011 18.9885C118.907 19.1363 118.784 19.2705 118.646 19.3878C117.549 20.1857 116.484 21.0173 115.354 21.7823C115.216 21.8538 115.064 21.8939 114.908 21.8996C114.753 21.9053 114.598 21.8764 114.456 21.8152C113.658 21.4495 112.893 20.9837 112.094 20.618C111.863 20.5342 111.67 20.3712 111.548 20.1581C111.426 19.945 111.384 19.6956 111.429 19.4544C111.496 15.7331 111.562 11.9725 111.595 8.2484C111.595 7.41684 109.966 5.78808 109.135 5.85391C108.969 5.85391 108.736 6.28329 108.706 6.55236C108.606 8.21476 108.506 9.87787 108.506 11.5403C108.473 14.9982 108.473 18.4568 108.473 21.9168C108.473 22.1494 108.439 22.3827 108.406 22.7813C107.01 22.0829 105.68 21.4846 104.416 20.7532C104.184 20.6201 104.15 19.9553 104.15 19.556C104.216 17.86 104.382 16.1976 104.449 14.5015C104.548 12.3733 104.582 10.245 104.682 8.11672C104.739 7.80523 104.684 7.48344 104.525 7.20917C104.367 6.93489 104.116 6.72612 103.817 6.62035C103.185 6.38777 102.553 6.05501 101.789 5.69004C102.657 5.12095 103.49 4.49959 104.283 3.82941C105.081 3.09804 105.812 2.96494 106.677 3.62975C107.576 4.3282 108.406 4.1951 109.271 3.46373C109.867 2.92629 110.565 2.46042 111.233 1.92871Z" fill="white"/>
<path d="M89.7825 15.6621C89.7825 13.8995 89.8162 11.8049 89.7825 9.71025C89.763 9.44196 89.8258 9.17409 89.9625 8.94241C90.0992 8.71072 90.3033 8.52622 90.5475 8.41354C92.3767 7.38304 94.1722 6.28527 96.0006 5.25477C96.1445 5.18374 96.3018 5.14408 96.4622 5.1384C96.6226 5.13273 96.7824 5.16117 96.9309 5.22185C98.2942 5.85375 99.5909 6.58511 100.954 7.21701C101.158 7.28848 101.334 7.42451 101.454 7.6045C101.574 7.78449 101.632 7.99866 101.619 8.21459C101.552 12.2715 101.486 16.3613 101.419 20.4181C101.411 20.5888 101.369 20.7562 101.295 20.9104C101.221 21.0645 101.118 21.2025 100.99 21.3163C98.9282 22.8126 96.8665 24.309 94.7719 25.7388C94.6244 25.818 94.4607 25.8622 94.2934 25.8679C94.1261 25.8736 93.9597 25.8407 93.8072 25.7717C92.577 25.1069 91.3798 24.3405 90.1496 23.6435C89.9418 23.5441 89.7714 23.3806 89.6637 23.177C89.556 22.9734 89.5166 22.7405 89.5514 22.5128C89.6158 20.3172 89.6823 18.189 89.7825 15.6621ZM93.8723 15.6621H93.7392V22.545C93.7392 23.4095 94.0054 23.5426 94.6695 23.1103C95.3247 22.6932 95.9468 22.2262 96.5301 21.7134C96.9445 21.3356 97.2246 20.8332 97.3281 20.2822C97.4941 16.9237 97.5607 13.5982 97.6272 10.2398C97.5982 10.0474 97.5263 9.86386 97.417 9.70285C97.3076 9.54184 97.1635 9.40742 96.9953 9.3095C96.2799 8.89098 95.5354 8.52435 94.7676 8.21245C94.0362 7.87968 93.9031 7.94623 93.9031 8.77779C93.8723 11.0735 93.8723 13.3678 93.8723 15.6621Z" fill="white"/>
<path d="M14.6943 72.5234C14.7666 71.4491 14.7556 70.3707 14.6613 69.2981C14.4836 68.5454 14.5929 67.7534 14.9679 67.077C15.343 66.4006 15.9568 65.8884 16.6894 65.6405C17.6429 65.1252 18.5546 64.5358 19.416 63.8779V65.8402C19.383 66.9709 19.3494 68.1016 19.2499 69.2322C19.2301 69.4984 19.1114 69.7476 18.9172 69.9307C17.6204 70.7952 16.3237 71.6267 15.0263 72.4576C14.9605 72.5234 14.8596 72.4905 14.6943 72.5234Z" fill="white"/>
</svg>
