<svg width="79" height="79" viewBox="0 0 79 79" fill="none" xmlns="http://www.w3.org/2000/svg">
<path d="M28.738 26.0942C29.1932 25.9364 29.6374 25.6978 30.1036 25.628C36.8728 24.5965 43.3924 25.2463 49.42 28.7447C56.615 32.9222 59.9629 40.822 58.0247 48.8833C56.1488 56.6951 48.9942 62.686 41.0026 63.1228C40.3785 63.1559 39.7471 63.1265 38.9138 62.8952C45.7821 57.0291 47.8892 49.7313 45.6133 41.3469C43.3079 32.8708 37.3427 28.1757 28.7344 26.0942H28.738Z" fill="white"/>
<path d="M21.7771 62.8728C22.0745 62.1386 22.3461 61.4191 22.6471 60.7143C26.8283 50.9276 26.7689 40.2117 22.5657 30.414C22.1986 29.3127 22.1993 29.3867 21.9864 28.3955C23.1163 28.395 24.1742 28.4285 25.125 28.803C36.6003 33.3402 40.9981 47.7009 33.9976 57.6124C31.0205 61.8303 26.1749 63.9631 21.7734 62.8691L21.7771 62.8728Z" fill="white"/>
<path d="M23.6422 24.2989C21.2891 24.2365 19.3949 22.2762 19.4463 19.9526C19.5014 17.5628 21.5828 15.6282 23.9836 15.7347C26.2045 15.8338 28.0106 17.7977 27.9592 20.0663C27.9078 22.4047 25.9182 24.3577 23.6422 24.2989Z" fill="white"/>
<rect x="0.9875" y="0.9875" width="77.025" height="77.025" rx="16.1292" stroke="white" strokeWidth="1.975"/>
</svg>
