<svg width="83" height="79" viewBox="0 0 83 79" fill="none" xmlns="http://www.w3.org/2000/svg">
<path d="M82.6572 0L76.6071 6.66026H69.4844L75.5602 0H82.6572Z" fill="white"/>
<path d="M83.0009 48.5449L76.9508 55.2052H69.8281L75.8975 48.5449H83.0009Z" fill="white"/>
<path d="M0 30.0322V0.378906H14.605C17.5209 0.378906 19.7389 1.10038 21.2589 2.54333C22.7789 3.98628 23.5389 5.96445 23.5389 8.47783C23.5566 9.69546 23.1977 10.8888 22.5113 11.8947C21.8888 12.8461 20.9933 13.5871 19.9422 14.0206C20.5542 14.2462 21.1382 14.5415 21.6828 14.9005C22.2494 15.2868 22.7376 15.7772 23.1214 16.3455C23.544 16.9752 23.8668 17.6662 24.0784 18.3944C24.3222 19.3049 24.4325 20.246 24.406 21.1882C24.4597 22.3994 24.2426 23.6073 23.7703 24.7239C23.2981 25.8406 22.5828 26.8378 21.6763 27.6429C19.8652 29.2357 17.082 30.0322 13.3269 30.0322H0ZM5.98588 5.51058V11.9332H13.8022C16.3028 11.9332 17.553 10.8628 17.553 8.72189C17.5953 8.2661 17.5302 7.80674 17.3629 7.38067C17.1956 6.95459 16.9308 6.57366 16.5896 6.26845C15.9474 5.76106 14.9005 5.50416 13.4425 5.50416L5.98588 5.51058ZM13.8472 24.984C14.4577 25.0209 15.0694 24.9329 15.6448 24.7253C16.2201 24.5177 16.7471 24.1948 17.1934 23.7765C17.5909 23.3804 17.9031 22.9071 18.1108 22.3857C18.3184 21.8644 18.4172 21.306 18.4008 20.745C18.4472 20.2088 18.3641 19.6693 18.1584 19.1719C17.9528 18.6745 17.6306 18.2338 17.219 17.887C16.2515 17.2399 15.0991 16.9264 13.9371 16.9942H5.98588V24.984H13.8472Z" fill="white"/>
<path d="M25.5938 30.0324V0.0195312H31.3741V30.0324H25.5938Z" fill="white"/>
<path d="M47.4297 30.0326C47.235 29.3934 47.1143 28.734 47.0701 28.0673C46.3196 28.89 45.387 29.5257 44.3469 29.9234C43.093 30.4028 41.7584 30.6362 40.4162 30.6106C37.8857 30.6106 36.0317 30.054 34.8542 28.9408C34.2702 28.3802 33.8115 27.7024 33.5082 26.9519C33.2049 26.2014 33.0639 25.3951 33.0944 24.5862C33.0343 23.2843 33.2945 21.9876 33.8523 20.8097C34.3403 19.8931 35.0714 19.1287 35.9653 18.6003C36.9592 18.0233 38.0458 17.6234 39.1767 17.4186C40.4098 17.1617 41.7564 16.9305 43.2165 16.7249C44.2438 16.6435 45.2452 16.3621 46.1645 15.8964C46.4176 15.7017 46.6166 15.4454 46.7425 15.152C46.8685 14.8585 46.9171 14.5377 46.8838 14.2201C46.8879 13.8763 46.7963 13.5381 46.6194 13.2432C46.4425 12.9484 46.1872 12.7085 45.8819 12.5502C45.0516 12.1086 44.1172 11.9 43.178 11.9465C41.842 11.9465 40.8787 12.2419 40.3006 12.8392C39.6928 13.4905 39.3081 14.3183 39.2023 15.2028H33.8073C33.8242 14.139 34.0129 13.0849 34.3661 12.0814C34.7013 11.136 35.2689 10.29 36.0167 9.62151C36.8796 8.88103 37.8948 8.33944 38.9904 8.03513C40.443 7.63159 41.9469 7.44332 43.4541 7.47636C44.9419 7.44531 46.4256 7.64242 47.8536 8.06082C48.9367 8.39047 49.9253 8.97398 50.7374 9.76281C51.4875 10.5153 52.0392 11.4422 52.343 12.4603C52.6846 13.6566 52.8491 14.8965 52.8312 16.1405V30.0326H47.4297ZM47.0251 19.2683C46.6608 19.6062 46.22 19.8508 45.7406 19.9812C44.9311 20.2179 44.1101 20.413 43.2807 20.5657C42.0535 20.7309 40.8792 21.1699 39.8446 21.8502C39.5277 22.1149 39.2776 22.4505 39.1147 22.8299C38.9518 23.2093 38.8806 23.6218 38.9069 24.0339C38.9026 25.6524 39.8489 26.4616 41.7457 26.4616C42.4549 26.4667 43.1587 26.3382 43.8202 26.0827C44.4305 25.8476 44.9906 25.4989 45.4708 25.0551C45.9353 24.6221 46.3144 24.1058 46.5884 23.5329C46.8704 22.9573 47.0155 22.3242 47.0123 21.6832L47.0251 19.2683Z" fill="white"/>
<path d="M68.6438 30.0324L63.8204 20.1609L61.0137 23.0639V30.0324H55.1562V0.0195312H61.0137V16.4101L68.2456 8.06065H75.349L67.9694 16.1403L75.1435 30.0324H68.6438Z" fill="white"/>
<path d="M24.3801 54.3049C24.1877 53.6655 24.0692 53.0061 24.0268 52.3396C23.2703 53.1641 22.331 53.7998 21.2844 54.1957C20.0325 54.6745 18.7002 54.9078 17.3601 54.883C14.7911 54.883 12.9735 54.3242 11.7982 53.2131C11.2133 52.6529 10.7536 51.9753 10.4492 51.2248C10.1448 50.4743 10.0026 49.6679 10.0319 48.8586C9.97175 47.5567 10.232 46.2599 10.7898 45.082C11.2866 44.1612 12.0292 43.3964 12.935 42.8727C13.9293 42.2967 15.0157 41.8969 16.1463 41.6909C17.3837 41.434 18.7324 41.2028 20.1925 40.9973C21.2198 40.9158 22.2212 40.6344 23.1405 40.1687C23.3915 39.9725 23.5886 39.7158 23.7133 39.4226C23.838 39.1294 23.8862 38.8094 23.8534 38.4924C23.8576 38.1478 23.7654 37.8088 23.5873 37.5138C23.4091 37.2187 23.152 36.9793 22.8451 36.8226C22.0171 36.3808 21.0848 36.1722 20.1476 36.2188C18.8052 36.2188 17.8483 36.5143 17.2638 37.1116C16.658 37.7634 16.2755 38.5913 16.172 39.4751H10.7641C10.7841 38.4116 10.9727 37.3581 11.3229 36.3537C11.6604 35.4079 12.2302 34.562 12.9799 33.8938C13.8413 33.1547 14.8541 32.6132 15.9472 32.3075C17.3999 31.9045 18.9037 31.7163 20.4109 31.7487C21.8987 31.7172 23.3824 31.9144 24.8104 32.3331C25.8987 32.6593 26.8924 33.2431 27.707 34.0351C28.4569 34.7972 29.0025 35.736 29.2934 36.7648C29.6373 37.9607 29.8039 39.2006 29.7879 40.4449V54.3049H24.3801ZM23.9819 43.5406C23.6159 43.8763 23.1758 44.1206 22.6973 44.2535C21.8901 44.4904 21.0712 44.6855 20.2439 44.838C19.0152 45.0052 17.8393 45.444 16.8014 46.1225C16.4856 46.3882 16.2364 46.724 16.0736 47.1032C15.9108 47.4823 15.8389 47.8943 15.8637 48.3062C15.8637 49.9418 16.8014 50.7618 18.6768 50.7661C19.388 50.7712 20.0939 50.6427 20.7577 50.3871C21.3664 50.1489 21.9259 49.8006 22.4083 49.3595C22.8728 48.9265 23.2519 48.4102 23.5259 47.8374C23.8079 47.2617 23.953 46.6287 23.9498 45.9876L23.9819 43.5406Z" fill="white"/>
<path d="M47.3342 54.3049L47.2892 51.6267C45.9533 53.7975 43.9152 54.8829 41.1749 54.8829C39.8468 54.9032 38.5308 54.6291 37.3213 54.0801C36.1602 53.5451 35.1366 52.7521 34.3284 51.7615C33.4453 50.659 32.7785 49.3994 32.363 48.0493C31.8664 46.4464 31.6258 44.7753 31.6501 43.0974C31.6379 41.5537 31.8455 40.0161 32.2667 38.5309C32.6242 37.2329 33.221 36.0131 34.0265 34.9343C34.7791 33.9442 35.7507 33.1418 36.8653 32.59C38.0554 32.0215 39.3616 31.7378 40.6803 31.7615C41.97 31.7386 43.2446 32.0422 44.3855 32.6441C45.5264 33.2459 46.4965 34.1266 47.2057 35.204V24.292H52.9218V54.3049H47.3342ZM42.5108 50.1495C43.1909 50.1553 43.8629 50.0007 44.4722 49.6983C45.0814 49.3959 45.6108 48.9542 46.0175 48.4089C47.0026 47.1013 47.5 45.4907 47.4241 43.8553C47.4241 39.0897 45.8013 36.7069 42.5557 36.7069C39.2245 36.7069 37.5589 38.9698 37.5589 43.4956C37.481 45.205 37.9661 46.8927 38.9398 48.2998C39.3374 48.8776 39.8711 49.3486 40.494 49.6712C41.1168 49.9938 41.8094 50.1581 42.5108 50.1495Z" fill="white"/>
<path d="M60.5573 44.838C60.5666 46.2893 61.0797 47.6923 62.0089 48.8072C62.4416 49.2926 62.9764 49.6762 63.5749 49.9305C64.1734 50.1848 64.8208 50.3035 65.4707 50.2779C66.355 50.299 67.2281 50.0769 67.9947 49.6357C68.3374 49.4435 68.6383 49.1849 68.8798 48.875C69.1213 48.5651 69.2986 48.2102 69.4013 47.8309H75.3808C74.8121 49.9238 73.5539 51.7635 71.8098 53.0525C70.0327 54.2973 67.903 54.9389 65.734 54.883C58.4122 54.883 54.7513 50.8945 54.7513 42.9176C54.73 41.3557 54.971 39.8012 55.4642 38.319C55.9025 37.0101 56.609 35.8069 57.5387 34.7866C58.4634 33.7938 59.6008 33.0231 60.8656 32.5322C62.3014 31.9896 63.8268 31.7237 65.3615 31.7487C68.7526 31.7487 71.3217 32.8362 73.0686 35.0114C74.8156 37.1865 75.6869 40.462 75.6826 44.838H60.5573ZM69.7096 41.1771C69.7001 40.4484 69.5565 39.7277 69.2857 39.0512C69.0624 38.4809 68.7209 37.9644 68.2838 37.5355C67.8859 37.1416 67.4086 36.8372 66.8836 36.6427C66.3545 36.4509 65.7958 36.3531 65.233 36.3537C64.6697 36.35 64.1116 36.4621 63.5935 36.683C63.0753 36.904 62.6081 37.2291 62.2208 37.6382C61.3173 38.6043 60.7987 39.8677 60.7629 41.1899L69.7096 41.1771Z" fill="white"/>
<path d="M39.4414 78.5771V65.2694C39.4951 64.1075 39.1632 62.9604 38.4972 62.0067C38.2197 61.6025 37.8462 61.2735 37.4101 61.0493C36.974 60.8251 36.4891 60.7127 35.9988 60.7222C35.4806 60.7172 34.9688 60.8365 34.5061 61.0701C34.0435 61.3036 33.6436 61.6446 33.3399 62.0645C32.6176 63.0294 32.248 64.2127 32.293 65.4171V78.5771H26.5126V65.3722C26.5277 64.6379 26.4674 63.904 26.3328 63.1821C26.2467 62.6913 26.0391 62.2298 25.7291 61.8397C25.4408 61.508 25.0609 61.2689 24.6372 61.1525C24.1126 61.0063 23.5696 60.937 23.0251 60.947C20.6745 60.947 19.4991 62.3771 19.4991 65.2373V78.5771H13.7188V56.6053H19.1266V59.8166C19.6806 58.561 20.6182 57.5132 21.8048 56.8237C22.9714 56.2622 24.255 55.987 25.5492 56.0208C26.215 56.0156 26.8798 56.0758 27.5338 56.2007C28.0871 56.31 28.6173 56.5142 29.1009 56.8044C29.5865 57.108 30.0293 57.4752 30.4176 57.8962C30.878 58.3988 31.2969 58.9379 31.67 59.5083C32.1627 58.3982 32.9888 57.4689 34.0335 56.8494C35.1321 56.2689 36.3625 55.9834 37.6045 56.0208C38.6438 56.0084 39.6756 56.1982 40.6424 56.5796C41.5341 56.929 42.3417 57.463 43.0123 58.1467C44.3676 59.5383 45.1219 61.4066 45.1125 63.3491V78.5771H39.4414Z" fill="white"/>
<path d="M47.5703 78.5773V56.6055H53.3507V78.5773H47.5703Z" fill="white"/>
<path d="M69.3156 78.5774L64.4922 68.7058L61.6791 71.6088V78.5774H55.8281V48.5645H61.6791V64.955L68.9174 56.6056H76.0208L68.6477 64.6852L75.841 78.5774H69.3156Z" fill="white"/>
</svg>
