<svg width="139" height="31" viewBox="0 0 139 31" fill="none" xmlns="http://www.w3.org/2000/svg">
<path d="M135.935 0L128.342 16.2434L125.486 10.0887H122.398L127.094 20.1562H129.59L139.001 0H135.935Z" fill="white"/>
<path d="M103.362 30.1599H109.474V18.9714C109.474 16.4122 110.955 14.6144 113.154 14.6144C115.269 14.6144 116.369 16.0949 116.369 18.2311V30.1599H122.481V17.0679C122.481 12.6263 119.816 9.49605 115.502 9.49605C112.752 9.49605 110.828 10.6805 109.389 12.8378H109.262V10.0883H103.34L103.362 30.1599ZM91.3482 9.53835C84.9608 9.53835 80.6884 14.128 80.6884 20.177C80.6884 26.1836 84.9608 30.8156 91.3482 30.8156C97.7356 30.8156 102.008 26.1836 102.008 20.177C102.029 14.128 97.7356 9.53835 91.3482 9.53835ZM91.3059 26.2894C88.4083 26.2894 86.8643 23.8571 86.8643 20.177C86.8643 16.4545 88.3871 14.0645 91.3059 14.0645C94.2035 14.0645 95.8109 16.4545 95.8109 20.177C95.832 23.8571 94.2246 26.2894 91.3059 26.2894ZM63.2606 30.1599H80.4346V25.3376H70.7055V25.2107L80.0116 14.7836V10.0671H63.2606V14.9105H72.6725V15.0374L63.2606 25.5491V30.1599ZM55.4138 30.1599H61.5686V10.0883H55.4138V30.1599ZM41.1374 30.1599H47.2709V20.9384C47.2709 16.7506 49.7878 14.8894 53.616 15.4181H53.7429V10.1306C53.4257 10.0037 53.0661 9.98251 52.4951 9.98251C50.1051 9.98251 48.4977 11.0823 47.1229 13.43H46.996V10.0883H41.1374V30.1599ZM29.8854 26.3105C27.1781 26.3105 25.5284 24.5551 25.2112 21.8478H39.678C39.7203 17.5332 38.5782 14.0857 36.1882 11.9283C34.4962 10.3632 32.2754 9.49605 29.4412 9.49605C23.3922 9.49605 19.2045 14.0857 19.2045 20.0924C19.2045 26.1413 23.2019 30.7521 29.8431 30.7521C32.36 30.7521 34.3481 30.0753 35.9978 28.9543C37.7533 27.7488 39.0223 25.9721 39.3607 24.2167H33.4809C32.9099 25.528 31.6832 26.3105 29.8854 26.3105ZM29.5681 13.8742C31.7255 13.8742 33.206 15.4816 33.4598 17.8293H25.2535C25.7399 15.4604 27.0301 13.8742 29.5681 13.8742ZM6.9796 30.1599H13.4093L20.3889 10.0883H14.2342L10.3214 22.9899H10.2367L6.32394 10.0883H0L6.9796 30.1599ZM55.4138 2.93945H61.5686V8.39623H55.4138V2.93945Z" fill="white"/>
</svg>
