<svg width="49" height="82" viewBox="0 0 49 82" fill="none" xmlns="http://www.w3.org/2000/svg">
<path d="M14.1008 24.3294H24.066C26.4577 24.3294 29.6466 24.3294 31.2908 25.3222C32.2934 25.8986 33.1226 26.7321 33.6922 27.736C34.2618 28.7399 34.5509 29.8775 34.5295 31.0305C34.5764 32.3525 34.208 33.6561 33.4755 34.7595C32.7431 35.8629 31.6832 36.711 30.4438 37.1855C33.832 37.8805 35.6755 40.412 35.6755 43.7873C35.6755 47.1627 32.7856 51.6797 27.3546 51.6797H14.1008V24.3294ZM17.7381 36.0935H25.0626C29.1981 36.0935 30.8922 34.6044 30.8922 31.7254C30.8922 27.953 28.2016 27.407 25.0626 27.407H17.7381V36.0935ZM17.7381 48.6022H26.9061C30.0452 48.6022 32.0382 46.7159 32.0382 43.7377C32.0382 40.7594 29.1483 39.171 26.0591 39.171H17.7381V48.6022Z" fill="#231F20"/>
<path d="M45.0428 38.0294C45.0428 42.1428 43.8183 46.1639 41.5243 49.5842C39.2303 53.0044 35.9698 55.6701 32.155 57.2443C28.3402 58.8185 24.1425 59.2303 20.0927 58.4278C16.0429 57.6253 12.323 55.6445 9.40328 52.7358C6.48356 49.8272 4.49521 46.1213 3.68966 42.0869C2.88411 38.0524 3.29755 33.8706 4.87769 30.0703C6.45783 26.2699 9.1337 23.0217 12.5669 20.7364C16.0002 18.451 20.0365 17.2313 24.1656 17.2313C29.6986 17.2444 35.0011 19.4398 38.9135 23.3374C42.8258 27.2349 45.0296 32.5174 45.0428 38.0294ZM24.1656 14.0545C19.4037 14.0446 14.7459 15.4424 10.7817 18.0708C6.81756 20.6992 3.7252 24.4402 1.89606 28.8201C0.0669224 33.2001 -0.41678 38.0222 0.506178 42.6761C1.42913 47.3301 3.71726 51.6066 7.08096 54.9645C10.4447 58.3225 14.7327 60.6108 19.4024 61.5399C24.0721 62.469 28.9135 61.9971 33.3139 60.184C37.7143 58.3709 41.4759 55.298 44.1225 51.3542C46.7691 47.4105 48.1818 42.7733 48.1818 38.0294C48.1818 31.6794 45.6531 25.5888 41.1507 21.0941C36.6482 16.5993 30.5397 14.0676 24.1656 14.0545Z" fill="#231F20"/>
<path d="M48.132 67.0176H0.149536V70.1597H48.132V67.0176Z" fill="#231F20"/>
<path d="M46.6373 63.543H46.9362C46.9861 63.4934 47.0359 63.4934 47.0359 63.4437C47.0682 63.4008 47.0857 63.3485 47.0857 63.2948C47.0857 63.2411 47.0682 63.1889 47.0359 63.1459H46.3881V63.6423L46.6373 63.543ZM46.7867 62.7984C46.8601 62.7924 46.9339 62.8026 47.0028 62.8284C47.0717 62.8541 47.1341 62.8947 47.1854 62.9474C47.2373 62.9883 47.2782 63.0416 47.3043 63.1022C47.3304 63.1629 47.3409 63.2291 47.3348 63.2948C47.333 63.4174 47.2986 63.5373 47.2352 63.6423L46.8864 63.7416L47.3847 64.4861H47.0857L46.6373 63.7912H46.3881V64.4861H46.0892V62.7984H46.7867ZM45.5909 64.1387C45.6442 64.2874 45.7292 64.4229 45.8401 64.5358C45.9345 64.6454 46.0541 64.7305 46.1888 64.784L46.6871 64.8832L47.1355 64.784L47.5341 64.5358C47.6282 64.4106 47.7116 64.2778 47.7833 64.1387C47.8269 63.977 47.8437 63.8094 47.8331 63.6423C47.8439 63.4916 47.827 63.3402 47.7833 63.1956C47.7234 63.0501 47.6391 62.9158 47.5341 62.7984L47.1355 62.5503C47.0002 62.4711 46.8433 62.4364 46.6871 62.451C46.5146 62.429 46.3396 62.4639 46.1888 62.5503C46.0541 62.6037 45.9345 62.6889 45.8401 62.7984C45.7188 62.9029 45.632 63.0412 45.5909 63.1956C45.529 63.3366 45.4952 63.4884 45.4913 63.6423C45.4958 63.8122 45.5295 63.9801 45.5909 64.1387ZM45.3418 63.0963L45.6407 62.6495C45.7753 62.5054 45.948 62.4021 46.139 62.3517C46.3085 62.2674 46.4986 62.2329 46.6871 62.2524C46.8753 62.238 47.0641 62.2722 47.2352 62.3517L47.6836 62.6495C47.8356 62.7562 47.9422 62.9155 47.9826 63.0963C48.0845 63.26 48.1365 63.4497 48.1321 63.6423C48.1292 63.8497 48.078 64.0536 47.9826 64.2379C47.9183 64.4076 47.8161 64.5604 47.6836 64.6847L47.2352 64.9825L46.6871 65.0818L46.139 64.9825L45.6407 64.6847L45.3418 64.2379C45.2598 64.0506 45.2256 63.846 45.2421 63.6423C45.2226 63.4546 45.2571 63.2651 45.3418 63.0963Z" fill="#231F20"/>
<path d="M5.97913 3.5304C5.85672 3.34252 5.70539 3.17501 5.53069 3.03402C5.37769 2.88815 5.18855 2.78537 4.98261 2.7362C4.76287 2.6392 4.52538 2.58851 4.28504 2.58728C3.90505 2.58208 3.52928 2.66716 3.18887 2.83547C2.89879 3.00164 2.6581 3.24142 2.4913 3.5304C2.2834 3.81374 2.13124 4.13375 2.04287 4.47351C1.98275 4.83458 1.94945 5.19958 1.94322 5.56553C1.94929 5.91504 1.98261 6.26355 2.04287 6.60792C2.13124 6.94768 2.2834 7.26768 2.4913 7.55103C2.64399 7.83845 2.88986 8.06589 3.18887 8.19632C3.52061 8.38769 3.90286 8.47424 4.28504 8.44451C4.5394 8.46239 4.79472 8.42751 5.03486 8.34207C5.27499 8.25663 5.49473 8.12249 5.68017 7.94813C6.00628 7.53088 6.21289 7.03345 6.27809 6.50865H8.12165C8.07165 7.02344 7.93699 7.52653 7.72304 7.99777C7.54473 8.41778 7.27198 8.79139 6.92583 9.08979C6.60752 9.41245 6.21372 9.65125 5.77983 9.78472C5.30458 9.97108 4.79527 10.0556 4.28504 10.0329C3.66901 10.0469 3.05718 9.9284 2.4913 9.68544C1.96991 9.48969 1.50699 9.16517 1.146 8.74233C0.778824 8.33594 0.4915 7.8645 0.298956 7.35248C-0.0996522 6.19427 -0.0996522 4.93679 0.298956 3.77858C0.490167 3.251 0.777306 2.76303 1.146 2.3391C1.50401 1.90128 1.96657 1.55994 2.4913 1.34635C3.05718 1.10339 3.66901 0.984875 4.28504 0.998884C4.74001 1.00917 5.19193 1.07587 5.63035 1.19743C6.041 1.33567 6.42761 1.53661 6.77635 1.79308C7.12352 2.06317 7.41175 2.40098 7.62339 2.78583C7.83783 3.20436 7.97296 3.6587 8.022 4.12605H6.17843C6.17503 3.91181 6.10544 3.70382 5.97913 3.5304Z" fill="#231F20"/>
<path d="M10.6129 8.34615C10.7579 8.4846 10.9302 8.59141 11.119 8.65978C11.3077 8.72816 11.5087 8.75658 11.7091 8.74325C12.0251 8.743 12.3351 8.65722 12.6059 8.49506C12.8154 8.34934 12.9726 8.14059 13.0544 7.89941H14.599C14.4383 8.56999 14.0289 9.15517 13.453 9.53745C12.9123 9.8641 12.2916 10.0359 11.6592 10.0338C11.1994 10.0332 10.7435 9.94905 10.3139 9.78564C9.92718 9.64343 9.5839 9.40404 9.3174 9.09071C9.02761 8.79459 8.80651 8.43877 8.66966 8.04833C8.51045 7.63626 8.42609 7.19926 8.42053 6.75775C8.4212 6.29965 8.50563 5.8455 8.66966 5.41754C8.82544 5.03638 9.0444 4.68401 9.3174 4.37515C9.61278 4.07223 9.96945 3.83534 10.3637 3.68023C10.7761 3.51731 11.2156 3.43312 11.6592 3.43204C12.1414 3.41963 12.6196 3.52172 13.0544 3.72987C13.4407 3.94071 13.7798 4.22784 14.0509 4.5737C14.2927 4.94109 14.4774 5.34271 14.599 5.765C14.7084 6.21972 14.742 6.68926 14.6986 7.15485H10.1644C10.1557 7.37318 10.1908 7.59105 10.2678 7.79565C10.3448 8.00024 10.4622 8.18741 10.6129 8.34615ZM12.5561 5.07008C12.4332 4.94694 12.2849 4.85204 12.1213 4.79202C11.9578 4.732 11.7831 4.70831 11.6094 4.72262C11.368 4.71339 11.1282 4.76459 10.9118 4.87153C10.7421 4.95873 10.59 5.07655 10.4634 5.21899C10.3679 5.35326 10.3001 5.50512 10.2641 5.66573C10.2081 5.79137 10.1744 5.92572 10.1644 6.06283H12.9547C12.9334 5.69762 12.7935 5.34921 12.5561 5.07008Z" fill="#231F20"/>
<path d="M17.1402 3.58095V4.77225C17.2265 4.57288 17.3443 4.38854 17.489 4.22624L17.9374 3.7795L18.5354 3.53131L19.1333 3.43204H19.5319V5.02044H18.934C18.6444 5.01252 18.3563 5.06318 18.0869 5.16935C17.8869 5.27571 17.7158 5.42905 17.5887 5.61609C17.4398 5.805 17.3375 6.02599 17.2897 6.26137C17.229 6.52197 17.1956 6.78812 17.1901 7.05557V9.83527H15.496V3.58095H17.1402Z" fill="#231F20"/>
<path d="M24.1657 3.58097V4.77227H22.8702V7.8498C22.8432 8.06 22.8965 8.27264 23.0197 8.44545C23.1931 8.56812 23.4066 8.62128 23.6176 8.59436H24.1657V9.88493H22.3719C22.1581 9.84252 21.9548 9.75815 21.774 9.63674C21.5797 9.54045 21.4222 9.38359 21.3256 9.19001C21.2179 8.95691 21.1667 8.70187 21.1761 8.44545V4.77227H20.1298V3.58097H21.1761V1.74438H22.8702V3.58097H24.1657Z" fill="#231F20"/>
<path d="M25.1622 2.63785V1.19836H26.9061V2.63785H25.1622ZM26.9061 3.58096V9.83529H25.1622V3.58096H26.9061Z" fill="#231F20"/>
<path d="M27.5538 4.77225V3.58095H28.6002V3.13422C28.5822 2.88082 28.6172 2.62647 28.703 2.38724C28.7888 2.14801 28.9234 1.92911 29.0984 1.74437C29.3149 1.55303 29.5672 1.40628 29.8409 1.31256C30.1145 1.21885 30.4041 1.18003 30.6929 1.19835H31.5897V2.53857H30.9918C30.8987 2.52633 30.8039 2.53816 30.7166 2.57293C30.6294 2.6077 30.5526 2.66424 30.4936 2.73712C30.3781 2.89466 30.3249 3.08901 30.3441 3.28313V3.63059H31.5399V4.82189H30.3441V9.83528H28.6002V4.77225H27.5538Z" fill="#231F20"/>
<path d="M32.6859 2.63785V1.19836H34.4298V2.63785H32.6859ZM34.4298 3.58096V9.83529H32.6859V3.58096H34.4298Z" fill="#231F20"/>
<path d="M37.1204 8.34615C37.4401 8.61493 37.8483 8.75638 38.2664 8.74325C38.5824 8.743 38.8924 8.65721 39.1633 8.49506C39.3728 8.34934 39.53 8.14059 39.6117 7.89941H41.1563C40.9749 8.56052 40.5702 9.13906 40.0103 9.53745C39.4696 9.8641 38.849 10.0359 38.2166 10.0338C37.7568 10.0332 37.3009 9.94905 36.8713 9.78563C36.477 9.63052 36.1203 9.39364 35.8249 9.09071C35.5681 8.77932 35.3659 8.42689 35.227 8.04832C35.0678 7.63625 34.9835 7.19925 34.9779 6.75775C34.9786 6.29965 35.063 5.8455 35.227 5.41754C35.3639 5.02709 35.585 4.67128 35.8748 4.37515C36.1516 4.07332 36.4919 3.83604 36.8713 3.68022C37.3009 3.51681 37.7568 3.43271 38.2166 3.43204C38.6983 3.42506 39.1752 3.52689 39.6117 3.72986C39.9927 3.92852 40.318 4.21852 40.5584 4.5737C40.8198 4.92997 41.0062 5.33518 41.1065 5.765C41.2327 6.21695 41.2832 6.68653 41.256 7.15485H36.7218C36.7063 7.36978 36.7336 7.58564 36.802 7.79006C36.8704 7.99449 36.9786 8.18346 37.1204 8.34615ZM39.0636 5.07007C38.953 4.94489 38.8137 4.848 38.6577 4.78754C38.5016 4.72707 38.3333 4.70481 38.1668 4.72261C37.9248 4.70623 37.6832 4.75783 37.4692 4.87152C37.2917 4.94608 37.137 5.06592 37.0208 5.21899C36.9087 5.34987 36.824 5.50176 36.7716 5.66572C36.7306 5.7939 36.7137 5.92853 36.7218 6.06282H39.5121C39.4988 5.68619 39.3378 5.32975 39.0636 5.07007Z" fill="#231F20"/>
<path d="M46.4877 9.04109C46.3149 9.37256 46.0336 9.63526 45.6905 9.78565C45.3467 9.94434 44.9732 10.0289 44.5943 10.0338C44.1599 10.0468 43.7299 9.94397 43.3487 9.73601C42.9863 9.57532 42.6758 9.31756 42.4518 8.99145C42.2073 8.68686 42.0368 8.33012 41.9535 7.94906C41.8113 7.53393 41.7438 7.09702 41.7542 6.65849C41.7471 6.2526 41.8147 5.84884 41.9535 5.46719C42.0368 5.08613 42.2073 4.72939 42.4518 4.4248C42.703 4.12454 43.0069 3.87225 43.3487 3.68024C43.7259 3.5164 44.133 3.43191 44.5445 3.43205C44.9072 3.43789 45.2643 3.52259 45.5908 3.68024C45.9207 3.82664 46.1986 4.06885 46.388 4.37516H46.4379V1.19836H48.132V9.83529H46.4877V9.04109ZM46.388 5.96356C46.3811 5.7265 46.2932 5.49887 46.1389 5.31828C46.0157 5.14531 45.8641 4.99428 45.6905 4.87154C45.4765 4.75784 45.2348 4.70625 44.9929 4.72263C44.7516 4.7134 44.5117 4.7646 44.2953 4.87154L43.7971 5.31828C43.6842 5.52074 43.6004 5.73794 43.548 5.96356C43.5067 6.2095 43.49 6.45891 43.4981 6.70813C43.49 6.95734 43.5067 7.20675 43.548 7.45269C43.6173 7.68049 43.7179 7.89764 43.8469 8.09797C43.9569 8.2816 44.111 8.43511 44.2953 8.54471C44.5002 8.6844 44.7449 8.75408 44.9929 8.74326C45.2422 8.76674 45.4913 8.69586 45.6905 8.54471C45.8964 8.44426 46.0704 8.28916 46.1935 8.09648C46.3166 7.90381 46.3839 7.68103 46.388 7.45269C46.4457 7.20836 46.4791 6.95897 46.4877 6.70813C46.4791 6.45728 46.4457 6.20789 46.388 5.96356Z" fill="#231F20"/>
<path d="M4.38469 76.3495C4.3172 76.0429 4.14749 75.768 3.90321 75.5698C3.65894 75.3715 3.35447 75.2614 3.03939 75.2575C1.84357 75.2575 1.3453 76.2999 1.3453 77.3423C1.3453 78.3846 1.84357 79.3774 3.03939 79.3774C3.40093 79.3776 3.74844 79.238 4.00869 78.988C4.26894 78.738 4.42161 78.3971 4.43452 78.0372H5.73C5.71716 78.3762 5.63735 78.7094 5.49514 79.0177C5.35293 79.326 5.1511 79.6033 4.9012 79.8338C4.6513 80.0643 4.35824 80.2435 4.03877 80.3611C3.7193 80.4787 3.3797 80.5324 3.03939 80.5191C1.146 80.5191 0 79.1292 0 77.3423C0 75.5553 1.146 74.1655 3.03939 74.1655C3.6767 74.1228 4.30608 74.3257 4.79754 74.7322C5.28899 75.1386 5.60496 75.7176 5.68017 76.3495H4.38469Z" fill="#231F20"/>
<path d="M8.52024 75.8531C8.83148 75.83 9.14404 75.8749 9.43604 75.9847C9.72805 76.0945 9.99245 76.2665 10.2108 76.4887C10.4291 76.7109 10.596 76.9779 10.6999 77.2711C10.8038 77.5643 10.8421 77.8766 10.8122 78.1861C10.8337 78.4937 10.7895 78.8024 10.6826 79.0918C10.5757 79.3812 10.4085 79.6448 10.192 79.8652C9.97545 80.0856 9.71453 80.2578 9.4264 80.3705C9.13826 80.4832 8.82943 80.5338 8.52024 80.5191C8.21104 80.5338 7.90221 80.4832 7.61408 80.3705C7.32594 80.2578 7.06503 80.0856 6.84851 79.8652C6.63199 79.6448 6.46477 79.3812 6.35786 79.0918C6.25095 78.8024 6.20678 78.4937 6.22824 78.1861C6.19834 77.8766 6.23668 77.5643 6.34057 77.2711C6.44446 76.9779 6.6114 76.7109 6.82971 76.4887C7.04802 76.2665 7.31242 76.0945 7.60443 75.9847C7.89644 75.8749 8.20899 75.83 8.52024 75.8531ZM8.52024 79.576C9.36728 79.576 9.61641 78.881 9.61641 78.1861C9.61641 77.4912 9.36728 76.7466 8.52024 76.7466C7.67319 76.7466 7.47389 77.4912 7.47389 78.1861C7.47389 78.881 7.72302 79.576 8.52024 79.576Z" fill="#231F20"/>
<path d="M11.5597 75.9524H12.7057V76.7963H12.7555C12.8713 76.5213 13.0648 76.2858 13.3125 76.1183C13.5602 75.9509 13.8514 75.8588 14.1506 75.8531H14.3998V76.9948H14.0012C13.1043 76.9948 12.7555 77.6401 12.7555 78.4343V80.4198H11.5597V75.9524Z" fill="#231F20"/>
<path d="M14.8981 75.9524H16.0441V76.5481C16.1858 76.3233 16.3852 76.1403 16.6218 76.0182C16.8583 75.896 17.1233 75.839 17.3894 75.8531C18.7845 75.8531 19.3824 76.9451 19.3824 78.2357C19.3824 79.5263 18.7347 80.5191 17.4392 80.5191C17.1814 80.5244 16.9267 80.4631 16.6997 80.3414C16.4727 80.2196 16.2812 80.0414 16.1437 79.8241H16.0939V81.9089H14.8981V75.9524ZM18.1866 78.1861C18.1866 77.4912 17.8876 76.7466 17.1402 76.7466C16.3929 76.7466 16.0441 77.4912 16.0441 78.1861C16.0441 78.881 16.343 79.5759 17.1402 79.5759C17.9375 79.5759 18.1866 78.881 18.1866 78.1861Z" fill="#231F20"/>
<path d="M22.073 75.8531C22.3842 75.83 22.6968 75.8749 22.9888 75.9847C23.2808 76.0945 23.5452 76.2665 23.7635 76.4887C23.9818 76.7109 24.1487 76.978 24.2526 77.2711C24.3565 77.5643 24.3949 77.8766 24.365 78.1861C24.365 78.7917 24.1235 79.3725 23.6937 79.8007C23.2638 80.2289 22.6808 80.4694 22.073 80.4694C21.4651 80.4694 20.8821 80.2289 20.4523 79.8007C20.0224 79.3725 19.781 78.7917 19.781 78.1861C19.7511 77.8766 19.7894 77.5643 19.8933 77.2711C19.9972 76.978 20.1641 76.7109 20.3824 76.4887C20.6008 76.2665 20.8652 76.0945 21.1572 75.9847C21.4492 75.8749 21.7617 75.83 22.073 75.8531ZM22.073 79.576C22.8702 79.576 23.1193 78.881 23.1193 78.1861C23.1193 77.4912 22.8702 76.7466 22.073 76.7466C21.2758 76.7466 20.9768 77.4912 20.9768 78.1861C20.9768 78.881 21.2259 79.576 22.073 79.576Z" fill="#231F20"/>
<path d="M25.1123 75.9524H26.2583V76.7963C26.3876 76.521 26.5913 76.287 26.8464 76.1204C27.1016 75.9539 27.3983 75.8613 27.7033 75.8531H27.9524V76.9948H27.504C26.6071 76.9948 26.3081 77.6401 26.3081 78.4343V80.4198H25.1123V75.9524Z" fill="#231F20"/>
<path d="M28.3012 77.3423C28.4008 76.2006 29.3974 75.8531 30.3939 75.8531C31.3904 75.8531 32.3371 76.0517 32.3371 77.0941V79.3774C32.3171 79.7151 32.368 80.0532 32.4866 80.3702H31.2409C31.2409 80.2213 31.1911 80.0723 31.1911 79.9731C30.9913 80.1591 30.7561 80.3033 30.4993 80.3971C30.2425 80.4909 29.9695 80.5324 29.6963 80.5191C28.8493 80.5191 28.2015 80.0723 28.2015 79.1789C28.2015 78.2854 28.9489 77.9379 29.6963 77.8387C30.4437 77.7394 31.1413 77.7394 31.1413 77.243C31.1413 76.7466 30.7427 76.6474 30.3441 76.6474C30.2445 76.633 30.1429 76.6403 30.0464 76.6688C29.9499 76.6972 29.8608 76.7461 29.785 76.8122C29.7093 76.8782 29.6488 76.9597 29.6077 77.0512C29.5666 77.1427 29.5458 77.242 29.5468 77.3423H28.3012ZM31.1413 78.2358C30.8033 78.3587 30.4522 78.442 30.0949 78.4839C29.7461 78.5336 29.3974 78.6825 29.3974 79.1292C29.3974 79.576 29.7461 79.6752 30.1448 79.6752C30.2795 79.6912 30.4161 79.6765 30.5443 79.6323C30.6725 79.588 30.7889 79.5154 30.8849 79.4198C30.9808 79.3242 31.0537 79.2082 31.0981 79.0805C31.1426 78.9528 31.1573 78.8167 31.1413 78.6825V78.2358Z" fill="#231F20"/>
<path d="M34.7785 75.9524H35.6754V76.7962H34.7785V78.9803C34.7785 79.3774 34.8782 79.4767 35.3266 79.4767H35.6754V80.4198H34.9778C34.2305 80.4198 33.5827 80.2709 33.5827 79.3774V76.7962H32.8353V75.9524H33.5827V74.6618H34.7785V75.9524Z" fill="#231F20"/>
<path d="M37.818 75.3071H36.6222V74.2647H37.818V75.3071ZM36.6222 75.9524H37.818V80.3702H36.6222V75.9524Z" fill="#231F20"/>
<path d="M40.9072 75.8531C41.2184 75.83 41.531 75.8749 41.823 75.9847C42.115 76.0945 42.3794 76.2665 42.5977 76.4887C42.816 76.7109 42.983 76.978 43.0869 77.2711C43.1908 77.5643 43.2291 77.8766 43.1992 78.1861C43.1992 78.7917 42.9577 79.3725 42.5279 79.8007C42.0981 80.2289 41.5151 80.4694 40.9072 80.4694C40.2993 80.4694 39.7163 80.2289 39.2865 79.8007C38.8567 79.3725 38.6152 78.7917 38.6152 78.1861C38.5853 77.8766 38.6236 77.5643 38.7275 77.2711C38.8314 76.978 38.9984 76.7109 39.2167 76.4887C39.435 76.2665 39.6994 76.0945 39.9914 75.9847C40.2834 75.8749 40.596 75.83 40.9072 75.8531ZM40.9072 79.576C41.7542 79.576 42.0034 78.881 42.0034 78.1861C42.0034 77.4912 41.7542 76.7466 40.9072 76.7466C40.0602 76.7466 39.8609 77.4912 39.8609 78.1861C39.8609 78.881 40.11 79.576 40.9072 79.576Z" fill="#231F20"/>
<path d="M43.9965 75.9524H45.1425V76.5977H45.1923C45.3352 76.3706 45.5336 76.1832 45.7688 76.053C46.004 75.9228 46.2685 75.8541 46.5376 75.8531C47.8331 75.8531 48.132 76.5977 48.132 77.6897V80.3702H46.9362V77.8883C46.9362 77.1437 46.7369 76.7963 46.139 76.7963C45.5411 76.7963 45.1923 77.1934 45.1923 78.0868V80.3702H43.9965V75.9524Z" fill="#231F20"/>
</svg>
